%TF.GenerationSoftware,KiCad,Pcbnew,9.99.0-4247-g42f93c0d15*%
%TF.CreationDate,2026-05-03T12:37:44-04:00*%
%TF.ProjectId,devboard,64657662-6f61-4726-942e-6b696361645f,rev?*%
%TF.SameCoordinates,Original*%
%TF.FileFunction,Soldermask,Bot*%
%TF.FilePolarity,Negative*%
%FSLAX46Y46*%
G04 Gerber Fmt 4.6, Leading zero omitted, Abs format (unit mm)*
G04 Created by KiCad (PCBNEW 9.99.0-4247-g42f93c0d15) date 2026-05-03 12:37:44*
%MOMM*%
%LPD*%
G01*
G04 APERTURE LIST*
%ADD10R,1.700000X1.700000*%
%ADD11C,1.700000*%
%ADD12C,0.650000*%
%ADD13O,1.000000X2.100000*%
%ADD14O,1.000000X1.600000*%
G04 APERTURE END LIST*
D10*
%TO.C,J2*%
X99870000Y-38590000D03*
D11*
X99870000Y-41130000D03*
X99870000Y-43670000D03*
X99870000Y-46210000D03*
X99870000Y-48750000D03*
X99870000Y-51290000D03*
X99870000Y-53830000D03*
X99870000Y-56370000D03*
X99870000Y-58910000D03*
X99870000Y-61450000D03*
X99870000Y-63990000D03*
X99870000Y-66530000D03*
X99870000Y-69070000D03*
X99870000Y-71610000D03*
X99870000Y-74150000D03*
X99870000Y-76690000D03*
X99870000Y-79230000D03*
X99870000Y-81770000D03*
X99870000Y-84310000D03*
X99870000Y-86850000D03*
%TD*%
D12*
%TO.C,J1*%
X111660000Y-42320000D03*
X105880000Y-42320000D03*
D13*
X113090000Y-42850000D03*
D14*
X113090000Y-38670000D03*
D13*
X104450000Y-42850000D03*
D14*
X104450000Y-38670000D03*
%TD*%
D10*
%TO.C,J4*%
X106230000Y-86630000D03*
D11*
X108770000Y-86630000D03*
X111310000Y-86630000D03*
%TD*%
D10*
%TO.C,J3*%
X117680000Y-38590000D03*
D11*
X117680000Y-41130000D03*
X117680000Y-43670000D03*
X117680000Y-46210000D03*
X117680000Y-48750000D03*
X117680000Y-51290000D03*
X117680000Y-53830000D03*
X117680000Y-56370000D03*
X117680000Y-58910000D03*
X117680000Y-61450000D03*
X117680000Y-63990000D03*
X117680000Y-66530000D03*
X117680000Y-69070000D03*
X117680000Y-71610000D03*
X117680000Y-74150000D03*
X117680000Y-76690000D03*
X117680000Y-79230000D03*
X117680000Y-81770000D03*
X117680000Y-84310000D03*
X117680000Y-86850000D03*
%TD*%
M02*
