%TF.GenerationSoftware,KiCad,Pcbnew,9.99.0-4247-g42f93c0d15*%
%TF.CreationDate,2026-05-03T12:37:44-04:00*%
%TF.ProjectId,devboard,64657662-6f61-4726-942e-6b696361645f,rev?*%
%TF.SameCoordinates,Original*%
%TF.FileFunction,Copper,L1,Top*%
%TF.FilePolarity,Positive*%
%FSLAX46Y46*%
G04 Gerber Fmt 4.6, Leading zero omitted, Abs format (unit mm)*
G04 Created by KiCad (PCBNEW 9.99.0-4247-g42f93c0d15) date 2026-05-03 12:37:44*
%MOMM*%
%LPD*%
G01*
G04 APERTURE LIST*
G04 Aperture macros list*
%AMRoundRect*
0 Rectangle with rounded corners*
0 $1 Rounding radius*
0 $2 $3 $4 $5 $6 $7 $8 $9 X,Y pos of 4 corners*
0 Add a 4 corners polygon primitive as box body*
4,1,4,$2,$3,$4,$5,$6,$7,$8,$9,$2,$3,0*
0 Add four circle primitives for the rounded corners*
1,1,$1+$1,$2,$3*
1,1,$1+$1,$4,$5*
1,1,$1+$1,$6,$7*
1,1,$1+$1,$8,$9*
0 Add four rect primitives between the rounded corners*
20,1,$1+$1,$2,$3,$4,$5,0*
20,1,$1+$1,$4,$5,$6,$7,0*
20,1,$1+$1,$6,$7,$8,$9,0*
20,1,$1+$1,$8,$9,$2,$3,0*%
G04 Aperture macros list end*
%TA.AperFunction,SMDPad,CuDef*%
%ADD10RoundRect,0.200000X-0.200000X-0.800000X0.200000X-0.800000X0.200000X0.800000X-0.200000X0.800000X0*%
%TD*%
%TA.AperFunction,SMDPad,CuDef*%
%ADD11RoundRect,0.140000X-0.140000X-0.170000X0.140000X-0.170000X0.140000X0.170000X-0.140000X0.170000X0*%
%TD*%
%TA.AperFunction,SMDPad,CuDef*%
%ADD12RoundRect,0.100000X-0.130000X-0.100000X0.130000X-0.100000X0.130000X0.100000X-0.130000X0.100000X0*%
%TD*%
%TA.AperFunction,SMDPad,CuDef*%
%ADD13RoundRect,0.140000X-0.170000X0.140000X-0.170000X-0.140000X0.170000X-0.140000X0.170000X0.140000X0*%
%TD*%
%TA.AperFunction,SMDPad,CuDef*%
%ADD14RoundRect,0.250000X0.350000X-0.450000X0.350000X0.450000X-0.350000X0.450000X-0.350000X-0.450000X0*%
%TD*%
%TA.AperFunction,SMDPad,CuDef*%
%ADD15RoundRect,0.140000X0.170000X-0.140000X0.170000X0.140000X-0.170000X0.140000X-0.170000X-0.140000X0*%
%TD*%
%TA.AperFunction,ComponentPad*%
%ADD16R,1.700000X1.700000*%
%TD*%
%TA.AperFunction,ComponentPad*%
%ADD17C,1.700000*%
%TD*%
%TA.AperFunction,SMDPad,CuDef*%
%ADD18RoundRect,0.100000X0.100000X-0.130000X0.100000X0.130000X-0.100000X0.130000X-0.100000X-0.130000X0*%
%TD*%
%TA.AperFunction,SMDPad,CuDef*%
%ADD19RoundRect,0.140000X0.140000X0.170000X-0.140000X0.170000X-0.140000X-0.170000X0.140000X-0.170000X0*%
%TD*%
%TA.AperFunction,SMDPad,CuDef*%
%ADD20RoundRect,0.150000X0.150000X-0.587500X0.150000X0.587500X-0.150000X0.587500X-0.150000X-0.587500X0*%
%TD*%
%TA.AperFunction,SMDPad,CuDef*%
%ADD21R,0.600000X1.450000*%
%TD*%
%TA.AperFunction,SMDPad,CuDef*%
%ADD22R,0.300000X1.450000*%
%TD*%
%TA.AperFunction,HeatsinkPad*%
%ADD23O,1.000000X2.100000*%
%TD*%
%TA.AperFunction,HeatsinkPad*%
%ADD24O,1.000000X1.600000*%
%TD*%
%TA.AperFunction,SMDPad,CuDef*%
%ADD25RoundRect,0.200000X0.800000X-0.200000X0.800000X0.200000X-0.800000X0.200000X-0.800000X-0.200000X0*%
%TD*%
%TA.AperFunction,SMDPad,CuDef*%
%ADD26RoundRect,0.062500X-0.387500X-0.062500X0.387500X-0.062500X0.387500X0.062500X-0.387500X0.062500X0*%
%TD*%
%TA.AperFunction,HeatsinkPad*%
%ADD27R,0.200000X1.600000*%
%TD*%
%TA.AperFunction,SMDPad,CuDef*%
%ADD28RoundRect,0.050000X-0.387500X-0.050000X0.387500X-0.050000X0.387500X0.050000X-0.387500X0.050000X0*%
%TD*%
%TA.AperFunction,SMDPad,CuDef*%
%ADD29RoundRect,0.050000X-0.050000X-0.387500X0.050000X-0.387500X0.050000X0.387500X-0.050000X0.387500X0*%
%TD*%
%TA.AperFunction,HeatsinkPad*%
%ADD30R,3.200000X3.200000*%
%TD*%
%TA.AperFunction,ViaPad*%
%ADD31C,0.600000*%
%TD*%
%TA.AperFunction,Conductor*%
%ADD32C,0.200000*%
%TD*%
G04 APERTURE END LIST*
D10*
%TO.P,SW2,1,1_1*%
%TO.N,GND*%
X105350000Y-80650000D03*
%TO.P,SW2,2,2_2*%
%TO.N,Net-(R8-Pad1)*%
X109550000Y-80650000D03*
%TD*%
D11*
%TO.P,R8,1*%
%TO.N,Net-(R8-Pad1)*%
X107900000Y-78480000D03*
%TO.P,R8,2*%
%TO.N,GPIO25*%
X108860000Y-78480000D03*
%TD*%
D12*
%TO.P,C2,1*%
%TO.N,GND*%
X103885000Y-45760000D03*
%TO.P,C2,2*%
%TO.N,+3V3*%
X104525000Y-45760000D03*
%TD*%
D13*
%TO.P,C21,1*%
%TO.N,GND*%
X111360000Y-61210000D03*
%TO.P,C21,2*%
%TO.N,+3V3*%
X111360000Y-62170000D03*
%TD*%
D14*
%TO.P,Y1,1,1_1*%
%TO.N,Net-(C16-Pad2)*%
X107150000Y-76450000D03*
%TO.P,Y1,2,G_2*%
%TO.N,GND*%
X107150000Y-74250000D03*
%TO.P,Y1,3,3_3*%
%TO.N,XIN*%
X105450000Y-74250000D03*
%TO.P,Y1,4,G_4*%
%TO.N,GND*%
X105450000Y-76450000D03*
%TD*%
D11*
%TO.P,C4,1*%
%TO.N,GND*%
X110820000Y-60030000D03*
%TO.P,C4,2*%
%TO.N,+1V1*%
X111780000Y-60030000D03*
%TD*%
D15*
%TO.P,C3,1*%
%TO.N,GND*%
X109750000Y-72810000D03*
%TO.P,C3,2*%
%TO.N,+1V1*%
X109750000Y-71850000D03*
%TD*%
D16*
%TO.P,J2,1,Pin_1_1*%
%TO.N,GPIO0*%
X99870000Y-38590000D03*
D17*
%TO.P,J2,2,Pin_2_2*%
%TO.N,GPIO1*%
X99870000Y-41130000D03*
%TO.P,J2,3,Pin_3_3*%
%TO.N,GND*%
X99870000Y-43670000D03*
%TO.P,J2,4,Pin_4_4*%
%TO.N,GPIO2*%
X99870000Y-46210000D03*
%TO.P,J2,5,Pin_5_5*%
%TO.N,GPIO3*%
X99870000Y-48750000D03*
%TO.P,J2,6,Pin_6_6*%
%TO.N,GPIO4*%
X99870000Y-51290000D03*
%TO.P,J2,7,Pin_7_7*%
%TO.N,GPIO5*%
X99870000Y-53830000D03*
%TO.P,J2,8,Pin_8_8*%
%TO.N,GND*%
X99870000Y-56370000D03*
%TO.P,J2,9,Pin_9_9*%
%TO.N,GPIO6*%
X99870000Y-58910000D03*
%TO.P,J2,10,Pin_10_10*%
%TO.N,GPIO7*%
X99870000Y-61450000D03*
%TO.P,J2,11,Pin_11_11*%
%TO.N,GPIO8*%
X99870000Y-63990000D03*
%TO.P,J2,12,Pin_12_12*%
%TO.N,GPIO9*%
X99870000Y-66530000D03*
%TO.P,J2,13,Pin_13_13*%
%TO.N,GND*%
X99870000Y-69070000D03*
%TO.P,J2,14,Pin_14_14*%
%TO.N,GPIO10*%
X99870000Y-71610000D03*
%TO.P,J2,15,Pin_15_15*%
%TO.N,GPIO11*%
X99870000Y-74150000D03*
%TO.P,J2,16,Pin_16_16*%
%TO.N,GPIO12*%
X99870000Y-76690000D03*
%TO.P,J2,17,Pin_17_17*%
%TO.N,GPIO13*%
X99870000Y-79230000D03*
%TO.P,J2,18,Pin_18_18*%
%TO.N,GND*%
X99870000Y-81770000D03*
%TO.P,J2,19,Pin_19_19*%
%TO.N,GPIO14*%
X99870000Y-84310000D03*
%TO.P,J2,20,Pin_20_20*%
%TO.N,GPIO15*%
X99870000Y-86850000D03*
%TD*%
D15*
%TO.P,R4,1*%
%TO.N,Net-(U2-USB_DM)*%
X110440000Y-62170000D03*
%TO.P,R4,2*%
%TO.N,USB_D-*%
X110440000Y-61210000D03*
%TD*%
D18*
%TO.P,C1,1*%
%TO.N,GND*%
X108660000Y-47035000D03*
%TO.P,C1,2*%
%TO.N,VBUS*%
X108660000Y-46395000D03*
%TD*%
D11*
%TO.P,R1,1*%
%TO.N,Net-(J1-CC1)*%
X111270000Y-45450000D03*
%TO.P,R1,2*%
%TO.N,GND*%
X112230000Y-45450000D03*
%TD*%
D19*
%TO.P,C20,1*%
%TO.N,GND*%
X113920000Y-63050000D03*
%TO.P,C20,2*%
%TO.N,+3V3*%
X112960000Y-63050000D03*
%TD*%
D20*
%TO.P,U1,1,GND_1*%
%TO.N,GND*%
X105660000Y-47855000D03*
%TO.P,U1,2,VO_2*%
%TO.N,+3V3*%
X107560000Y-47855000D03*
%TO.P,U1,3,VI_3*%
%TO.N,VBUS*%
X106610000Y-45980000D03*
%TD*%
D21*
%TO.P,J1,A1,GND_A1*%
%TO.N,GND*%
X112020000Y-43765000D03*
%TO.P,J1,A4,VBUS_A4*%
%TO.N,VBUS*%
X111220000Y-43765000D03*
D22*
%TO.P,J1,A5,CC1_A5*%
%TO.N,Net-(J1-CC1)*%
X110020000Y-43765000D03*
%TO.P,J1,A6,D+_A6*%
%TO.N,USB_D+*%
X109020000Y-43765000D03*
%TO.P,J1,A7,D-_A7*%
%TO.N,USB_D-*%
X108520000Y-43765000D03*
%TO.P,J1,A8*%
%TO.N,N/C*%
X107520000Y-43765000D03*
D21*
%TO.P,J1,A9,VBUS_A9*%
%TO.N,VBUS*%
X106320000Y-43765000D03*
%TO.P,J1,A12,GND_A12*%
%TO.N,GND*%
X105520000Y-43765000D03*
%TO.P,J1,B1,GND_B1*%
X105520000Y-43765000D03*
%TO.P,J1,B4,VBUS_B4*%
%TO.N,VBUS*%
X106320000Y-43765000D03*
D22*
%TO.P,J1,B5,CC2_B5*%
%TO.N,Net-(J1-CC2)*%
X107020000Y-43765000D03*
%TO.P,J1,B6,D+_B6*%
%TO.N,USB_D+*%
X108020000Y-43765000D03*
%TO.P,J1,B7,D-_B7*%
%TO.N,USB_D-*%
X109520000Y-43765000D03*
%TO.P,J1,B8*%
%TO.N,N/C*%
X110520000Y-43765000D03*
D21*
%TO.P,J1,B9,VBUS_B9*%
%TO.N,VBUS*%
X111220000Y-43765000D03*
%TO.P,J1,B12,GND_B12*%
%TO.N,GND*%
X112020000Y-43765000D03*
D23*
%TO.P,J1,S1,SHIELD_S1*%
X113090000Y-42850000D03*
D24*
X113090000Y-38670000D03*
D23*
X104450000Y-42850000D03*
D24*
X104450000Y-38670000D03*
%TD*%
D13*
%TO.P,C17,1*%
%TO.N,+3V3*%
X108830000Y-71850000D03*
%TO.P,C17,2*%
%TO.N,GND*%
X108830000Y-72810000D03*
%TD*%
D15*
%TO.P,R6,1*%
%TO.N,QSPI_SS*%
X104450000Y-47500000D03*
%TO.P,R6,2*%
%TO.N,+3V3*%
X104450000Y-46540000D03*
%TD*%
D19*
%TO.P,R2,1*%
%TO.N,GND*%
X108550000Y-45450000D03*
%TO.P,R2,2*%
%TO.N,Net-(J1-CC2)*%
X107590000Y-45450000D03*
%TD*%
D13*
%TO.P,R3,1*%
%TO.N,USB_D+*%
X109520000Y-61210000D03*
%TO.P,R3,2*%
%TO.N,Net-(U2-USB_DP)*%
X109520000Y-62170000D03*
%TD*%
D25*
%TO.P,SW1,1,1_1*%
%TO.N,GND*%
X106550000Y-53700000D03*
%TO.P,SW1,2,2_2*%
%TO.N,Net-(R7-Pad1)*%
X106550000Y-49500000D03*
%TD*%
D13*
%TO.P,C25,1*%
%TO.N,GND*%
X109450000Y-57690000D03*
%TO.P,C25,2*%
%TO.N,+3V3*%
X109450000Y-58650000D03*
%TD*%
D15*
%TO.P,C15,1*%
%TO.N,GND*%
X104090000Y-76090000D03*
%TO.P,C15,2*%
%TO.N,XIN*%
X104090000Y-75130000D03*
%TD*%
D11*
%TO.P,C19,1*%
%TO.N,GND*%
X103640000Y-63320000D03*
%TO.P,C19,2*%
%TO.N,+3V3*%
X104600000Y-63320000D03*
%TD*%
%TO.P,C26,1*%
%TO.N,GND*%
X105760000Y-58500000D03*
%TO.P,C26,2*%
%TO.N,+3V3*%
X106720000Y-58500000D03*
%TD*%
D13*
%TO.P,C5,1*%
%TO.N,GND*%
X107610000Y-57270000D03*
%TO.P,C5,2*%
%TO.N,+1V1*%
X107610000Y-58230000D03*
%TD*%
D19*
%TO.P,C23,1*%
%TO.N,GND*%
X115090000Y-67700000D03*
%TO.P,C23,2*%
%TO.N,+3V3*%
X114130000Y-67700000D03*
%TD*%
D13*
%TO.P,C16,1*%
%TO.N,GND*%
X108510000Y-75850000D03*
%TO.P,C16,2*%
%TO.N,Net-(C16-Pad2)*%
X108510000Y-76810000D03*
%TD*%
D16*
%TO.P,J4,1,Pin_1_1*%
%TO.N,SWCLK*%
X106230000Y-86630000D03*
D17*
%TO.P,J4,2,Pin_2_2*%
%TO.N,GND*%
X108770000Y-86630000D03*
%TO.P,J4,3,Pin_3_3*%
%TO.N,SWD*%
X111310000Y-86630000D03*
%TD*%
D13*
%TO.P,R5,1*%
%TO.N,XOUT*%
X108510000Y-73680000D03*
%TO.P,R5,2*%
%TO.N,Net-(C16-Pad2)*%
X108510000Y-74640000D03*
%TD*%
D19*
%TO.P,R7,1*%
%TO.N,Net-(R7-Pad1)*%
X104680000Y-48390000D03*
%TO.P,R7,2*%
%TO.N,QSPI_SS*%
X103720000Y-48390000D03*
%TD*%
D16*
%TO.P,J3,1,Pin_1_1*%
%TO.N,VBUS*%
X117680000Y-38590000D03*
D17*
%TO.P,J3,2,Pin_2_2*%
%TO.N,GPIO29_ADC3*%
X117680000Y-41130000D03*
%TO.P,J3,3,Pin_3_3*%
%TO.N,GND*%
X117680000Y-43670000D03*
%TO.P,J3,4,Pin_4_4*%
%TO.N,GPIO28_ADC2*%
X117680000Y-46210000D03*
%TO.P,J3,5,Pin_5_5*%
%TO.N,+3V3*%
X117680000Y-48750000D03*
%TO.P,J3,6,Pin_6_6*%
%TO.N,GPIO27_ADC1*%
X117680000Y-51290000D03*
%TO.P,J3,7,Pin_7_7*%
%TO.N,GPIO26_ADC0*%
X117680000Y-53830000D03*
%TO.P,J3,8,Pin_8_8*%
%TO.N,GND*%
X117680000Y-56370000D03*
%TO.P,J3,9,Pin_9_9*%
%TO.N,GPIO24*%
X117680000Y-58910000D03*
%TO.P,J3,10,Pin_10_10*%
%TO.N,GPIO23*%
X117680000Y-61450000D03*
%TO.P,J3,11,Pin_11_11*%
%TO.N,RUN*%
X117680000Y-63990000D03*
%TO.P,J3,12,Pin_12_12*%
%TO.N,GPIO22*%
X117680000Y-66530000D03*
%TO.P,J3,13,Pin_13_13*%
%TO.N,GND*%
X117680000Y-69070000D03*
%TO.P,J3,14,Pin_14_14*%
%TO.N,GPIO21*%
X117680000Y-71610000D03*
%TO.P,J3,15,Pin_15_15*%
%TO.N,GPIO20*%
X117680000Y-74150000D03*
%TO.P,J3,16,Pin_16_16*%
%TO.N,GPIO19*%
X117680000Y-76690000D03*
%TO.P,J3,17,Pin_17_17*%
%TO.N,GPIO18*%
X117680000Y-79230000D03*
%TO.P,J3,18,Pin_18_18*%
%TO.N,GND*%
X117680000Y-81770000D03*
%TO.P,J3,19,Pin_19_19*%
%TO.N,GPIO17*%
X117680000Y-84310000D03*
%TO.P,J3,20,Pin_20_20*%
%TO.N,GPIO16*%
X117680000Y-86850000D03*
%TD*%
D26*
%TO.P,U3,1,~{CS}_1*%
%TO.N,QSPI_SS*%
X103970000Y-59500000D03*
%TO.P,U3,2,DO/IO_{1}_2*%
%TO.N,QSPI_SD1*%
X103970000Y-60000000D03*
%TO.P,U3,3,~{WP}/IO_{2}_3*%
%TO.N,QSPI_SD2*%
X103970000Y-60500000D03*
%TO.P,U3,4,GND_4*%
%TO.N,GND*%
X103970000Y-61000000D03*
%TO.P,U3,5,DI/IO_{0}_5*%
%TO.N,QSPI_SD0*%
X106820000Y-61000000D03*
%TO.P,U3,6,CLK_6*%
%TO.N,QSPI_SCLK*%
X106820000Y-60500000D03*
%TO.P,U3,7,~{HOLD}/~{RESET}/IO_{3}_7*%
%TO.N,QSPI_SD3*%
X106820000Y-60000000D03*
%TO.P,U3,8,VCC_8*%
%TO.N,+3V3*%
X106820000Y-59500000D03*
D27*
%TO.P,U3,9*%
%TO.N,N/C*%
X105395000Y-60250000D03*
%TD*%
D13*
%TO.P,C22,1*%
%TO.N,GND*%
X112280000Y-61190000D03*
%TO.P,C22,2*%
%TO.N,+3V3*%
X112280000Y-62150000D03*
%TD*%
D11*
%TO.P,C18,1*%
%TO.N,GND*%
X102320000Y-68350000D03*
%TO.P,C18,2*%
%TO.N,+3V3*%
X103280000Y-68350000D03*
%TD*%
D13*
%TO.P,C24,1*%
%TO.N,GND*%
X108530000Y-57690000D03*
%TO.P,C24,2*%
%TO.N,+3V3*%
X108530000Y-58650000D03*
%TD*%
D28*
%TO.P,U2,1,IOVDD_1*%
%TO.N,+3V3*%
X105342500Y-64130000D03*
%TO.P,U2,2,GPIO0_2*%
%TO.N,GPIO0*%
X105342500Y-64530000D03*
%TO.P,U2,3,GPIO1_3*%
%TO.N,GPIO1*%
X105342500Y-64930000D03*
%TO.P,U2,4,GPIO2_4*%
%TO.N,GPIO2*%
X105342500Y-65330000D03*
%TO.P,U2,5,GPIO3_5*%
%TO.N,GPIO3*%
X105342500Y-65730000D03*
%TO.P,U2,6,GPIO4_6*%
%TO.N,GPIO4*%
X105342500Y-66130000D03*
%TO.P,U2,7,GPIO5_7*%
%TO.N,GPIO5*%
X105342500Y-66530000D03*
%TO.P,U2,8,GPIO6_8*%
%TO.N,GPIO6*%
X105342500Y-66930000D03*
%TO.P,U2,9,GPIO7_9*%
%TO.N,GPIO7*%
X105342500Y-67330000D03*
%TO.P,U2,10,IOVDD_10*%
%TO.N,+3V3*%
X105342500Y-67730000D03*
%TO.P,U2,11,GPIO8_11*%
%TO.N,GPIO8*%
X105342500Y-68130000D03*
%TO.P,U2,12,GPIO9_12*%
%TO.N,GPIO9*%
X105342500Y-68530000D03*
%TO.P,U2,13,GPIO10_13*%
%TO.N,GPIO10*%
X105342500Y-68930000D03*
%TO.P,U2,14,GPIO11_14*%
%TO.N,GPIO11*%
X105342500Y-69330000D03*
D29*
%TO.P,U2,15,GPIO12_15*%
%TO.N,GPIO12*%
X106180000Y-70167500D03*
%TO.P,U2,16,GPIO13_16*%
%TO.N,GPIO13*%
X106580000Y-70167500D03*
%TO.P,U2,17,GPIO14_17*%
%TO.N,GPIO14*%
X106980000Y-70167500D03*
%TO.P,U2,18,GPIO15_18*%
%TO.N,GPIO15*%
X107380000Y-70167500D03*
%TO.P,U2,19,TESTEN_19*%
%TO.N,GND*%
X107780000Y-70167500D03*
%TO.P,U2,20,XIN_20*%
%TO.N,XIN*%
X108180000Y-70167500D03*
%TO.P,U2,21,XOUT_21*%
%TO.N,XOUT*%
X108580000Y-70167500D03*
%TO.P,U2,22,IOVDD_22*%
%TO.N,+3V3*%
X108980000Y-70167500D03*
%TO.P,U2,23,DVDD_23*%
%TO.N,+1V1*%
X109380000Y-70167500D03*
%TO.P,U2,24,SWCLK_24*%
%TO.N,SWCLK*%
X109780000Y-70167500D03*
%TO.P,U2,25,SWD_25*%
%TO.N,SWD*%
X110180000Y-70167500D03*
%TO.P,U2,26,RUN_26*%
%TO.N,RUN*%
X110580000Y-70167500D03*
%TO.P,U2,27,GPIO16_27*%
%TO.N,GPIO16*%
X110980000Y-70167500D03*
%TO.P,U2,28,GPIO17_28*%
%TO.N,GPIO17*%
X111380000Y-70167500D03*
D28*
%TO.P,U2,29,GPIO18_29*%
%TO.N,GPIO18*%
X112217500Y-69330000D03*
%TO.P,U2,30,GPIO19_30*%
%TO.N,GPIO19*%
X112217500Y-68930000D03*
%TO.P,U2,31,GPIO20_31*%
%TO.N,GPIO20*%
X112217500Y-68530000D03*
%TO.P,U2,32,GPIO21_32*%
%TO.N,GPIO21*%
X112217500Y-68130000D03*
%TO.P,U2,33,IOVDD_33*%
%TO.N,+3V3*%
X112217500Y-67730000D03*
%TO.P,U2,34,GPIO22_34*%
%TO.N,GPIO22*%
X112217500Y-67330000D03*
%TO.P,U2,35,GPIO23_35*%
%TO.N,GPIO23*%
X112217500Y-66930000D03*
%TO.P,U2,36,GPIO24_36*%
%TO.N,GPIO24*%
X112217500Y-66530000D03*
%TO.P,U2,37,GPIO25_37*%
%TO.N,GPIO25*%
X112217500Y-66130000D03*
%TO.P,U2,38,GPIO26_ADC0_38*%
%TO.N,GPIO26_ADC0*%
X112217500Y-65730000D03*
%TO.P,U2,39,GPIO27_ADC1_39*%
%TO.N,GPIO27_ADC1*%
X112217500Y-65330000D03*
%TO.P,U2,40,GPIO28_ADC2_40*%
%TO.N,GPIO28_ADC2*%
X112217500Y-64930000D03*
%TO.P,U2,41,GPIO29_ADC3_41*%
%TO.N,GPIO29_ADC3*%
X112217500Y-64530000D03*
%TO.P,U2,42,IOVDD_42*%
%TO.N,+3V3*%
X112217500Y-64130000D03*
D29*
%TO.P,U2,43,ADC_AVDD_43*%
X111380000Y-63292500D03*
%TO.P,U2,44,VREG_IN_44*%
X110980000Y-63292500D03*
%TO.P,U2,45,VREG_VOUT_45*%
%TO.N,+1V1*%
X110580000Y-63292500D03*
%TO.P,U2,46,USB_DM_46*%
%TO.N,Net-(U2-USB_DM)*%
X110180000Y-63292500D03*
%TO.P,U2,47,USB_DP_47*%
%TO.N,Net-(U2-USB_DP)*%
X109780000Y-63292500D03*
%TO.P,U2,48,USB_VDD_48*%
%TO.N,+3V3*%
X109380000Y-63292500D03*
%TO.P,U2,49,IOVDD_49*%
X108980000Y-63292500D03*
%TO.P,U2,50,DVDD_50*%
%TO.N,+1V1*%
X108580000Y-63292500D03*
%TO.P,U2,51,QSPI_SD3_51*%
%TO.N,QSPI_SD3*%
X108180000Y-63292500D03*
%TO.P,U2,52,QSPI_SCLK_52*%
%TO.N,QSPI_SCLK*%
X107780000Y-63292500D03*
%TO.P,U2,53,QSPI_SD0_53*%
%TO.N,QSPI_SD0*%
X107380000Y-63292500D03*
%TO.P,U2,54,QSPI_SD2_54*%
%TO.N,QSPI_SD2*%
X106980000Y-63292500D03*
%TO.P,U2,55,QSPI_SD1_55*%
%TO.N,QSPI_SD1*%
X106580000Y-63292500D03*
%TO.P,U2,56,QSPI_SS_56*%
%TO.N,QSPI_SS*%
X106180000Y-63292500D03*
D30*
%TO.P,U2,57,GND_57*%
%TO.N,GND*%
X108780000Y-66730000D03*
%TD*%
D31*
%TO.N,GND*%
X108938909Y-79261091D03*
X105350000Y-80650000D03*
%TO.N,GPIO25*%
X108890000Y-77830000D03*
X111332713Y-67034271D03*
%TO.N,GND*%
X107780141Y-69421425D03*
X104270000Y-58925000D03*
X108830000Y-72810000D03*
X104845001Y-60872818D03*
X113650388Y-63440001D03*
X104726999Y-62377000D03*
X108780000Y-66730000D03*
X109018909Y-47961091D03*
X107170000Y-74130000D03*
X102081000Y-68409000D03*
X112280000Y-61190000D03*
X105586357Y-47113643D03*
%TO.N,+3V3*%
X107990000Y-47710000D03*
X111281000Y-67820000D03*
X108560000Y-59410000D03*
X109180000Y-62928384D03*
X106467773Y-64226706D03*
X107010000Y-59110000D03*
X111107236Y-64116523D03*
X108780000Y-68830002D03*
%TO.N,+1V1*%
X111680000Y-60430000D03*
X110180127Y-64230000D03*
%TO.N,GPIO0*%
X102362473Y-59121879D03*
X104176999Y-64255273D03*
X103170000Y-57024909D03*
%TO.N,GPIO1*%
X102223000Y-58384961D03*
X103626999Y-64840643D03*
X102700000Y-55270000D03*
%TO.N,GPIO2*%
X102925000Y-62260023D03*
X102223000Y-54400000D03*
X102223000Y-57634958D03*
%TO.N,RUN*%
X110478870Y-69345739D03*
%TD*%
%TO.N,GND*%
D32*
X108948909Y-79261091D02*
X108938909Y-79261091D01*
X109750000Y-78460000D02*
X108948909Y-79261091D01*
X109750000Y-72810000D02*
X109750000Y-78460000D01*
X105450000Y-76450000D02*
X105450000Y-80550000D01*
X105450000Y-80550000D02*
X105350000Y-80650000D01*
%TO.N,GPIO25*%
X108890000Y-77830000D02*
X108890000Y-78450000D01*
X108890000Y-78450000D02*
X108860000Y-78480000D01*
%TO.N,Net-(R8-Pad1)*%
X107900000Y-78480000D02*
X107900000Y-79000000D01*
X107900000Y-79000000D02*
X109550000Y-80650000D01*
%TO.N,GPIO25*%
X112217500Y-66130000D02*
X111752936Y-66130000D01*
X111752936Y-66130000D02*
X111332713Y-66550223D01*
X111332713Y-66550223D02*
X111332713Y-67034271D01*
%TO.N,GND*%
X109111000Y-46011000D02*
X109111000Y-46783999D01*
X112020000Y-43765000D02*
X112020000Y-45240000D01*
X106550000Y-56645000D02*
X104270000Y-58925000D01*
X105660000Y-47187286D02*
X105586357Y-47113643D01*
X106550000Y-53700000D02*
X106550000Y-56645000D01*
X108660000Y-47602182D02*
X109018909Y-47961091D01*
X108660000Y-47035000D02*
X108660000Y-47602182D01*
X112020000Y-45240000D02*
X112230000Y-45450000D01*
X103970000Y-60970000D02*
X104030000Y-60910000D01*
X107150000Y-74250000D02*
X107150000Y-74150000D01*
X110820000Y-60650000D02*
X110820000Y-60030000D01*
X102140000Y-68350000D02*
X102081000Y-68409000D01*
X105660000Y-47855000D02*
X105660000Y-47187286D01*
X103970000Y-61000000D02*
X103970000Y-60970000D01*
X107780000Y-70167500D02*
X107780000Y-69421566D01*
X104030000Y-60910000D02*
X104807819Y-60910000D01*
X113920000Y-63050000D02*
X113920000Y-63170389D01*
X107780000Y-69421566D02*
X107780141Y-69421425D01*
X108859999Y-47035000D02*
X108660000Y-47035000D01*
X109111000Y-46783999D02*
X108859999Y-47035000D01*
X104583000Y-62377000D02*
X104726999Y-62377000D01*
X113920000Y-63170389D02*
X113650388Y-63440001D01*
X108550000Y-45450000D02*
X109111000Y-46011000D01*
X112280000Y-61190000D02*
X111380000Y-61190000D01*
X111360000Y-61210000D02*
X111380000Y-61210000D01*
X111380000Y-61190000D02*
X111360000Y-61210000D01*
X107150000Y-74150000D02*
X107170000Y-74130000D01*
X108030000Y-57690000D02*
X107610000Y-57270000D01*
X102320000Y-68350000D02*
X102140000Y-68350000D01*
X103640000Y-63320000D02*
X104583000Y-62377000D01*
X109750000Y-72810000D02*
X108830000Y-72810000D01*
X109450000Y-57690000D02*
X108030000Y-57690000D01*
X104807819Y-60910000D02*
X104845001Y-60872818D01*
X111380000Y-61210000D02*
X110820000Y-60650000D01*
%TO.N,+3V3*%
X107851000Y-48146000D02*
X107851000Y-56091450D01*
X104600000Y-63320000D02*
X104600000Y-63387500D01*
X106720000Y-58820000D02*
X107010000Y-59110000D01*
X111380000Y-63292500D02*
X112217500Y-64130000D01*
X105342500Y-67730000D02*
X104588770Y-67730000D01*
X111107236Y-64116523D02*
X111107236Y-63565264D01*
X103939384Y-68379384D02*
X103910000Y-68350000D01*
X108780000Y-68791000D02*
X108940000Y-68631000D01*
X105342500Y-64130000D02*
X106010000Y-64130000D01*
X106779000Y-67730000D02*
X106879000Y-67630000D01*
X108940000Y-68811000D02*
X108940000Y-68631000D01*
X103910000Y-68350000D02*
X103280000Y-68350000D01*
X108980000Y-63292500D02*
X108980000Y-63128384D01*
X105342500Y-67730000D02*
X106779000Y-67730000D01*
X104450000Y-46540000D02*
X105010000Y-46540000D01*
X111380000Y-62150000D02*
X111360000Y-62170000D01*
X108560000Y-59410000D02*
X108690000Y-59410000D01*
X108940000Y-68631000D02*
X106879000Y-68631000D01*
X111107236Y-63565264D02*
X111380000Y-63292500D01*
X117395000Y-49035000D02*
X117680000Y-48750000D01*
X105790532Y-46540000D02*
X107105532Y-47855000D01*
X104588770Y-67730000D02*
X103939384Y-68379384D01*
X107990000Y-47710000D02*
X107705000Y-47710000D01*
X106720000Y-57222450D02*
X106720000Y-58500000D01*
X107851000Y-56091450D02*
X106720000Y-57222450D01*
X112280000Y-62150000D02*
X111380000Y-62150000D01*
X106443294Y-64251185D02*
X106443294Y-64563294D01*
X104450000Y-46540000D02*
X104450000Y-45835000D01*
X112217500Y-63792500D02*
X112960000Y-63050000D01*
X112247500Y-67700000D02*
X112217500Y-67730000D01*
X108980000Y-68851000D02*
X108940000Y-68811000D01*
X110980000Y-62550000D02*
X111360000Y-62170000D01*
X107105532Y-47855000D02*
X107560000Y-47855000D01*
X112217500Y-64130000D02*
X112217500Y-63792500D01*
X106879000Y-64999000D02*
X106879000Y-67630000D01*
X108560000Y-59410000D02*
X108560000Y-58680000D01*
X106879000Y-68631000D02*
X106879000Y-67630000D01*
X111371000Y-67730000D02*
X111281000Y-67820000D01*
X106820000Y-59300000D02*
X107010000Y-59110000D01*
X112217500Y-67730000D02*
X111371000Y-67730000D01*
X106010000Y-64130000D02*
X106443294Y-64563294D01*
X108980000Y-71700000D02*
X108830000Y-71850000D01*
X107560000Y-47855000D02*
X107851000Y-48146000D01*
X106467773Y-64226706D02*
X106443294Y-64251185D01*
X105342500Y-64130000D02*
X105342500Y-64122500D01*
X108980000Y-70167500D02*
X108980000Y-68851000D01*
X107705000Y-47710000D02*
X107560000Y-47855000D01*
X106720000Y-59400000D02*
X106820000Y-59500000D01*
X108690000Y-59410000D02*
X109450000Y-58650000D01*
X106443294Y-64563294D02*
X106879000Y-64999000D01*
X108980000Y-70167500D02*
X108980000Y-71700000D01*
X106720000Y-58500000D02*
X106720000Y-58820000D01*
X114130000Y-67700000D02*
X112247500Y-67700000D01*
X108780000Y-68830002D02*
X108780000Y-68791000D01*
X108980000Y-63128384D02*
X109180000Y-62928384D01*
X106820000Y-59500000D02*
X106820000Y-59300000D01*
X110980000Y-63292500D02*
X110980000Y-62550000D01*
X104450000Y-45835000D02*
X104525000Y-45760000D01*
X105010000Y-46540000D02*
X105790532Y-46540000D01*
X104600000Y-63387500D02*
X105342500Y-64130000D01*
X108560000Y-58680000D02*
X108530000Y-58650000D01*
X110980000Y-63292500D02*
X111380000Y-63292500D01*
%TO.N,Net-(C16-Pad2)*%
X108510000Y-74640000D02*
X107899000Y-75251000D01*
X107150000Y-76450000D02*
X108150000Y-76450000D01*
X107400000Y-75251000D02*
X107150000Y-75501000D01*
X107150000Y-75501000D02*
X107150000Y-76450000D01*
X108150000Y-76450000D02*
X108510000Y-76810000D01*
X107899000Y-75251000D02*
X107400000Y-75251000D01*
%TO.N,XIN*%
X108163387Y-71153387D02*
X108229000Y-71087774D01*
X107918000Y-71398774D02*
X108163387Y-71153387D01*
X104090000Y-75130000D02*
X104570000Y-75130000D01*
X107918000Y-73000000D02*
X107918000Y-71398774D01*
X108229000Y-71087774D02*
X108229000Y-70160000D01*
X105450000Y-74250000D02*
X106700000Y-73000000D01*
X104570000Y-75130000D02*
X105450000Y-74250000D01*
X106700000Y-73000000D02*
X107918000Y-73000000D01*
%TO.N,+1V1*%
X110580000Y-63830127D02*
X110180127Y-64230000D01*
X109380000Y-68660000D02*
X110652000Y-68660000D01*
X107610000Y-59590000D02*
X108580000Y-60560000D01*
X109380000Y-71480000D02*
X109750000Y-71850000D01*
X107610000Y-58230000D02*
X107610000Y-59590000D01*
X108982226Y-64230000D02*
X108580000Y-63827774D01*
X111680000Y-60430000D02*
X111680000Y-60130000D01*
X108580000Y-60560000D02*
X108580000Y-63292500D01*
X111680000Y-60130000D02*
X111780000Y-60030000D01*
X110681000Y-64730873D02*
X110180127Y-64230000D01*
X110580000Y-63292500D02*
X110580000Y-63830127D01*
X108580000Y-63827774D02*
X108580000Y-63292500D01*
X110180127Y-64230000D02*
X108982226Y-64230000D01*
X109380000Y-70167500D02*
X109380000Y-68660000D01*
X110681000Y-68631000D02*
X110681000Y-64730873D01*
X109380000Y-70167500D02*
X109380000Y-71480000D01*
X110652000Y-68660000D02*
X110681000Y-68631000D01*
%TO.N,GPIO0*%
X105342500Y-64530000D02*
X104451726Y-64530000D01*
X102362473Y-59121879D02*
X103170000Y-58314352D01*
X103170000Y-58314352D02*
X103170000Y-57024909D01*
X104451726Y-64530000D02*
X104176999Y-64255273D01*
%TO.N,GPIO1*%
X102223000Y-58384961D02*
X102505039Y-58384961D01*
X103716356Y-64930000D02*
X103626999Y-64840643D01*
X102619000Y-55351000D02*
X102700000Y-55270000D01*
X105342500Y-64930000D02*
X103716356Y-64930000D01*
X102819000Y-57453141D02*
X102619000Y-57253141D01*
X102619000Y-57253141D02*
X102619000Y-55351000D01*
X102505039Y-58384961D02*
X102819000Y-58071000D01*
X102819000Y-58071000D02*
X102819000Y-57453141D01*
%TO.N,GPIO2*%
X102925000Y-63225002D02*
X102925000Y-62260023D01*
X105342500Y-65330000D02*
X103878057Y-65330000D01*
X103077000Y-65828444D02*
X103077000Y-63609446D01*
X102149000Y-54474000D02*
X102223000Y-54400000D01*
X102808778Y-63341224D02*
X102925000Y-63225002D01*
X103363056Y-65845000D02*
X103093556Y-65845000D01*
X102223000Y-57634958D02*
X102149000Y-57560958D01*
X102149000Y-57560958D02*
X102149000Y-54474000D01*
X103878057Y-65330000D02*
X103476528Y-65731528D01*
X103093556Y-65845000D02*
X103077000Y-65828444D01*
X103077000Y-63609446D02*
X102808778Y-63341224D01*
X103476528Y-65731528D02*
X103363056Y-65845000D01*
%TO.N,GPIO3*%
X101673000Y-59210224D02*
X101673000Y-50553000D01*
X102948167Y-66196000D02*
X102726000Y-65973834D01*
X101673000Y-50553000D02*
X99870000Y-48750000D01*
X102375000Y-63403833D02*
X102375000Y-59912223D01*
X102726000Y-63754835D02*
X102375000Y-63403833D01*
X102375000Y-59912223D02*
X101673000Y-59210224D01*
X103508445Y-66196000D02*
X102948167Y-66196000D01*
X105342500Y-65730000D02*
X103974446Y-65730000D01*
X103974446Y-65730000D02*
X103508445Y-66196000D01*
X102726000Y-65973834D02*
X102726000Y-63754835D01*
%TO.N,GPIO4*%
X101322000Y-59355612D02*
X101322000Y-52742000D01*
X104070834Y-66130000D02*
X103653833Y-66547000D01*
X103653833Y-66547000D02*
X102802778Y-66547000D01*
X102802778Y-66547000D02*
X102375000Y-66119223D01*
X102375000Y-63900223D02*
X102024000Y-63549222D01*
X102024000Y-60057612D02*
X101322000Y-59355612D01*
X102375000Y-66119223D02*
X102375000Y-63900223D01*
X101322000Y-52742000D02*
X99870000Y-51290000D01*
X102024000Y-63549222D02*
X102024000Y-60057612D01*
X105342500Y-66130000D02*
X104070834Y-66130000D01*
%TO.N,GPIO5*%
X102024000Y-66264612D02*
X102024000Y-64045612D01*
X102584000Y-66898000D02*
X102584000Y-66824611D01*
X102584000Y-66824611D02*
X102024000Y-66264612D01*
X104167223Y-66530000D02*
X103799222Y-66898000D01*
X105342500Y-66530000D02*
X104167223Y-66530000D01*
X102024000Y-64045612D02*
X101673000Y-63694611D01*
X101673000Y-60203000D02*
X100920000Y-59450000D01*
X100920000Y-59450000D02*
X100971000Y-59399000D01*
X100971000Y-59399000D02*
X100971000Y-54931000D01*
X103799222Y-66898000D02*
X102584000Y-66898000D01*
X100971000Y-54931000D02*
X99870000Y-53830000D01*
X101673000Y-63694611D02*
X101673000Y-60203000D01*
%TO.N,GPIO6*%
X102233000Y-66970000D02*
X101673000Y-66410000D01*
X101673000Y-64191000D02*
X101322000Y-63840000D01*
X104263612Y-66930000D02*
X103944611Y-67249000D01*
X101322000Y-63840000D02*
X101322000Y-60362000D01*
X101673000Y-66410000D02*
X101673000Y-64191000D01*
X103944611Y-67249000D02*
X102233000Y-67249000D01*
X101322000Y-60362000D02*
X99870000Y-58910000D01*
X102233000Y-67249000D02*
X102233000Y-66970000D01*
X105342500Y-66930000D02*
X104263612Y-66930000D01*
%TO.N,GPIO7*%
X101322000Y-66714612D02*
X101322000Y-64571000D01*
X101882000Y-67274612D02*
X101322000Y-66714612D01*
X101882000Y-67600000D02*
X101882000Y-67274612D01*
X101322000Y-64571000D02*
X100971000Y-64220000D01*
X100971000Y-62551000D02*
X99870000Y-61450000D01*
X105342500Y-67330000D02*
X104360000Y-67330000D01*
X100971000Y-64220000D02*
X100971000Y-62551000D01*
X104360000Y-67330000D02*
X104000000Y-67690000D01*
X104000000Y-67690000D02*
X103910000Y-67600000D01*
X103910000Y-67600000D02*
X101882000Y-67600000D01*
%TO.N,GPIO8*%
X100971000Y-66860000D02*
X100971000Y-65091000D01*
X101531000Y-68959000D02*
X101531000Y-67420000D01*
X105342500Y-68130000D02*
X104685159Y-68130000D01*
X104685159Y-68130000D02*
X103856158Y-68959000D01*
X101531000Y-67420000D02*
X100971000Y-66860000D01*
X103856158Y-68959000D02*
X101531000Y-68959000D01*
X100971000Y-65091000D02*
X99870000Y-63990000D01*
%TO.N,GPIO9*%
X104001547Y-69310000D02*
X104781548Y-68530000D01*
X101180000Y-67840000D02*
X101180000Y-69310000D01*
X104781548Y-68530000D02*
X105342500Y-68530000D01*
X99870000Y-66530000D02*
X101180000Y-67840000D01*
X101180000Y-69310000D02*
X104001547Y-69310000D01*
%TO.N,GPIO10*%
X104877936Y-68930000D02*
X105342500Y-68930000D01*
X99870000Y-71610000D02*
X103993000Y-71610000D01*
X104303000Y-69504936D02*
X104877936Y-68930000D01*
X104303000Y-71300000D02*
X104303000Y-69504936D01*
X103993000Y-71610000D02*
X104303000Y-71300000D01*
%TO.N,GPIO11*%
X102478803Y-73888804D02*
X102478803Y-73720193D01*
X104740000Y-71550000D02*
X104654000Y-71464000D01*
X102478803Y-73720193D02*
X104648996Y-71550000D01*
X104654000Y-70018500D02*
X105342500Y-69330000D01*
X102217608Y-74150000D02*
X102478803Y-73888804D01*
X104648996Y-71550000D02*
X104740000Y-71550000D01*
X99870000Y-74150000D02*
X102217608Y-74150000D01*
X104654000Y-71464000D02*
X104654000Y-70018500D01*
%TO.N,GPIO12*%
X103317994Y-73546000D02*
X102476000Y-74387997D01*
X100850000Y-75710000D02*
X99870000Y-76690000D01*
X102476000Y-74387997D02*
X102476000Y-75710000D01*
X102476000Y-75710000D02*
X100850000Y-75710000D01*
X105535640Y-72178806D02*
X104516579Y-72178806D01*
X106180000Y-71534445D02*
X105535640Y-72178806D01*
X103503806Y-73191581D02*
X103503806Y-73546000D01*
X104516579Y-72178806D02*
X103503806Y-73191581D01*
X106180000Y-70167500D02*
X106180000Y-71534445D01*
X103503806Y-73546000D02*
X103317994Y-73546000D01*
%TO.N,GPIO13*%
X103463384Y-73897000D02*
X103854806Y-73897000D01*
X99870000Y-79230000D02*
X100290000Y-79230000D01*
X102827000Y-74533385D02*
X103463384Y-73897000D01*
X105681030Y-72529806D02*
X106140416Y-72070419D01*
X106140416Y-72070419D02*
X106263836Y-71947000D01*
X103854806Y-73336969D02*
X104661968Y-72529806D01*
X106580000Y-71898000D02*
X106580000Y-70167500D01*
X106263836Y-71947000D02*
X106629000Y-71947000D01*
X102827000Y-76693000D02*
X102827000Y-74533385D01*
X100290000Y-79230000D02*
X102827000Y-76693000D01*
X106629000Y-71947000D02*
X106580000Y-71898000D01*
X103854806Y-73897000D02*
X103854806Y-73336969D01*
X104661968Y-72529806D02*
X105681030Y-72529806D01*
%TO.N,GPIO14*%
X103178000Y-74678773D02*
X103178000Y-76634389D01*
X107029000Y-72298000D02*
X106409224Y-72298000D01*
X105826418Y-72880806D02*
X104807357Y-72880806D01*
X104205806Y-73482358D02*
X104205806Y-74248000D01*
X104109000Y-77280000D02*
X104109000Y-80071000D01*
X106980000Y-70167500D02*
X106980000Y-72249000D01*
X103823611Y-77280000D02*
X104109000Y-77280000D01*
X104109000Y-80071000D02*
X99870000Y-84310000D01*
X106409224Y-72298000D02*
X105826418Y-72880806D01*
X104205806Y-74248000D02*
X103608773Y-74248000D01*
X103608773Y-74248000D02*
X103178000Y-74678773D01*
X103178000Y-76634389D02*
X103823611Y-77280000D01*
X104807357Y-72880806D02*
X104205806Y-73482358D01*
X106980000Y-72249000D02*
X107029000Y-72298000D01*
%TO.N,GPIO15*%
X103750000Y-76710000D02*
X103529000Y-76489000D01*
X103529000Y-76489000D02*
X103529000Y-74824162D01*
X104952746Y-73231806D02*
X105971806Y-73231806D01*
X107380000Y-72480000D02*
X107380000Y-70167500D01*
X104556806Y-74646806D02*
X104556806Y-73627746D01*
X99870000Y-86850000D02*
X104460000Y-82260000D01*
X107350000Y-72649000D02*
X107350000Y-72510000D01*
X104509000Y-74599000D02*
X104556806Y-74646806D01*
X103754162Y-74599000D02*
X104509000Y-74599000D01*
X104460000Y-82260000D02*
X104460000Y-76710000D01*
X104556806Y-73627746D02*
X104952746Y-73231806D01*
X104460000Y-76710000D02*
X103750000Y-76710000D01*
X107350000Y-72510000D02*
X107380000Y-72480000D01*
X105971806Y-73231806D02*
X106554612Y-72649000D01*
X103529000Y-74824162D02*
X103754162Y-74599000D01*
X106554612Y-72649000D02*
X107350000Y-72649000D01*
%TO.N,Net-(U2-USB_DM)*%
X110180000Y-63292500D02*
X110180000Y-62430000D01*
X110180000Y-62430000D02*
X110440000Y-62170000D01*
%TO.N,USB_D-*%
X108520000Y-43765000D02*
X108520000Y-42788000D01*
X109495000Y-44365000D02*
X109495000Y-44786802D01*
X109495000Y-44786802D02*
X111029747Y-46321549D01*
X109520000Y-43765000D02*
X109520000Y-44340000D01*
X110205000Y-59513198D02*
X110205000Y-60509999D01*
X110440000Y-60744999D02*
X110440000Y-61210000D01*
X108520000Y-42788000D02*
X108569000Y-42739000D01*
X109519000Y-42739000D02*
X109520000Y-42740000D01*
X111029747Y-46321549D02*
X111029747Y-58688451D01*
X109520000Y-42740000D02*
X109520000Y-43765000D01*
X108569000Y-42739000D02*
X109519000Y-42739000D01*
X110205000Y-60509999D02*
X110440000Y-60744999D01*
X111029747Y-58688451D02*
X110205000Y-59513198D01*
X109520000Y-44340000D02*
X109495000Y-44365000D01*
%TO.N,VBUS*%
X110881008Y-41937000D02*
X110984000Y-42039992D01*
X106320000Y-42840000D02*
X107223000Y-41937000D01*
X108660000Y-46395000D02*
X107025000Y-46395000D01*
X111220000Y-43765000D02*
X110984000Y-43529000D01*
X106320000Y-43765000D02*
X106320000Y-42840000D01*
X110984000Y-43529000D02*
X110984000Y-42039992D01*
X106320000Y-45690000D02*
X106320000Y-43765000D01*
X106610000Y-45980000D02*
X106320000Y-45690000D01*
X107223000Y-41937000D02*
X110881008Y-41937000D01*
X110984000Y-42039992D02*
X113252992Y-39771000D01*
X116499000Y-39771000D02*
X117680000Y-38590000D01*
X107025000Y-46395000D02*
X106610000Y-45980000D01*
X113252992Y-39771000D02*
X116499000Y-39771000D01*
%TO.N,Net-(J1-CC1)*%
X110780000Y-45450000D02*
X111270000Y-45450000D01*
X110020000Y-44690000D02*
X110780000Y-45450000D01*
X110020000Y-43765000D02*
X110020000Y-44690000D01*
%TO.N,USB_D+*%
X110579747Y-58502055D02*
X109755000Y-59326802D01*
X109755000Y-60509999D02*
X109520000Y-60744999D01*
X109020000Y-44742000D02*
X108971000Y-44791000D01*
X109520000Y-60744999D02*
X109520000Y-61210000D01*
X109020000Y-43765000D02*
X109020000Y-44340000D01*
X109755000Y-59326802D02*
X109755000Y-60509999D01*
X109045000Y-44365000D02*
X109045000Y-44973198D01*
X109020000Y-43765000D02*
X109020000Y-44742000D01*
X108971000Y-44791000D02*
X108069000Y-44791000D01*
X109045000Y-44973198D02*
X110579747Y-46507945D01*
X110579747Y-46507945D02*
X110579747Y-58502055D01*
X109020000Y-44340000D02*
X109045000Y-44365000D01*
X108069000Y-44791000D02*
X108020000Y-44742000D01*
X108020000Y-44742000D02*
X108020000Y-43765000D01*
%TO.N,Net-(J1-CC2)*%
X107020000Y-44880000D02*
X107590000Y-45450000D01*
X107020000Y-43765000D02*
X107020000Y-44880000D01*
%TO.N,QSPI_SS*%
X103720000Y-48390000D02*
X103720000Y-59250000D01*
X102818000Y-61380898D02*
X102818000Y-60119102D01*
X103720000Y-48390000D02*
X103720000Y-48230000D01*
X106180000Y-62917100D02*
X105089900Y-61827000D01*
X103720000Y-48230000D02*
X104450000Y-47500000D01*
X103437102Y-59500000D02*
X103970000Y-59500000D01*
X104460000Y-47500000D02*
X104460000Y-47650000D01*
X105089900Y-61827000D02*
X103264102Y-61827000D01*
X106180000Y-63292500D02*
X106180000Y-62917100D01*
X103720000Y-59250000D02*
X103970000Y-59500000D01*
X103264102Y-61827000D02*
X102818000Y-61380898D01*
X102818000Y-60119102D02*
X103437102Y-59500000D01*
%TO.N,Net-(U2-USB_DP)*%
X109780000Y-63292500D02*
X109780000Y-62430000D01*
X109780000Y-62430000D02*
X109520000Y-62170000D01*
%TO.N,Net-(R7-Pad1)*%
X105790000Y-49500000D02*
X106550000Y-49500000D01*
X104680000Y-48390000D02*
X105790000Y-49500000D01*
%TO.N,SWCLK*%
X110400000Y-82460000D02*
X106230000Y-86630000D01*
X109780000Y-70728452D02*
X110400000Y-71348452D01*
X110400000Y-71348452D02*
X110400000Y-82460000D01*
X109780000Y-70167500D02*
X109780000Y-70728452D01*
%TO.N,SWD*%
X110180000Y-70632064D02*
X110180000Y-70167500D01*
X111310000Y-71762064D02*
X110180000Y-70632064D01*
X111310000Y-86630000D02*
X111310000Y-71762064D01*
%TO.N,XOUT*%
X108580000Y-71233162D02*
X108269000Y-71544162D01*
X108269000Y-71544162D02*
X108269000Y-73439000D01*
X108580000Y-70167500D02*
X108580000Y-71233162D01*
X108269000Y-73439000D02*
X108510000Y-73680000D01*
%TO.N,GPIO29_ADC3*%
X112217500Y-64530000D02*
X113377550Y-64530000D01*
X112891000Y-45919000D02*
X117680000Y-41130000D01*
X114237550Y-62430000D02*
X112891000Y-62430000D01*
X114501000Y-62693450D02*
X114237550Y-62430000D01*
X114501000Y-63406550D02*
X114501000Y-62693450D01*
X113377550Y-64530000D02*
X114501000Y-63406550D01*
X112891000Y-62430000D02*
X112891000Y-45919000D01*
%TO.N,GPIO28_ADC2*%
X113242000Y-46820000D02*
X113242000Y-62079000D01*
X114382939Y-62079000D02*
X114852000Y-62548061D01*
X113852000Y-46210000D02*
X113242000Y-46820000D01*
X113242000Y-62079000D02*
X114382939Y-62079000D01*
X114852000Y-63551939D02*
X113473939Y-64930000D01*
X117680000Y-46210000D02*
X113852000Y-46210000D01*
X114852000Y-62548061D02*
X114852000Y-63551939D01*
X113473939Y-64930000D02*
X112217500Y-64930000D01*
%TO.N,GPIO27_ADC1*%
X117680000Y-51290000D02*
X113593000Y-55377000D01*
X115203000Y-63697327D02*
X113570327Y-65330000D01*
X115203000Y-62402673D02*
X115203000Y-63697327D01*
X113570327Y-65330000D02*
X112217500Y-65330000D01*
X114528328Y-61728000D02*
X115203000Y-62402673D01*
X113593000Y-61728000D02*
X114528328Y-61728000D01*
X113593000Y-55377000D02*
X113593000Y-61728000D01*
%TO.N,GPIO26_ADC0*%
X112217500Y-65730000D02*
X113666715Y-65730000D01*
X113944000Y-61377000D02*
X113944000Y-57566000D01*
X113666715Y-65730000D02*
X115554000Y-63842715D01*
X114673718Y-61377000D02*
X113944000Y-61377000D01*
X115554000Y-63842715D02*
X115554000Y-62257284D01*
X113944000Y-57566000D02*
X117680000Y-53830000D01*
X115554000Y-62257284D02*
X114673718Y-61377000D01*
%TO.N,GPIO24*%
X115905000Y-63988104D02*
X113363104Y-66530000D01*
X113363104Y-66530000D02*
X112217500Y-66530000D01*
X117680000Y-58910000D02*
X115905000Y-60685000D01*
X115905000Y-60685000D02*
X115905000Y-63988104D01*
%TO.N,GPIO23*%
X116256000Y-62850000D02*
X116280000Y-62850000D01*
X116256000Y-64133493D02*
X116256000Y-62850000D01*
X113459492Y-66930000D02*
X116256000Y-64133493D01*
X112217500Y-66930000D02*
X113459492Y-66930000D01*
X116280000Y-62850000D02*
X117680000Y-61450000D01*
%TO.N,RUN*%
X110478870Y-69345739D02*
X110580000Y-69446869D01*
X110580000Y-69446869D02*
X110580000Y-70167500D01*
%TO.N,GPIO22*%
X113555881Y-67330000D02*
X112217500Y-67330000D01*
X114355881Y-66530000D02*
X113555881Y-67330000D01*
X117680000Y-66530000D02*
X114355881Y-66530000D01*
%TO.N,GPIO21*%
X113693162Y-68130000D02*
X113903162Y-68340000D01*
X112217500Y-68130000D02*
X113693162Y-68130000D01*
X113903162Y-68340000D02*
X116350000Y-68340000D01*
X116350000Y-70280000D02*
X117680000Y-71610000D01*
X116350000Y-68340000D02*
X116350000Y-70280000D01*
%TO.N,GPIO20*%
X113757774Y-68691000D02*
X115750000Y-68691000D01*
X115750000Y-72220000D02*
X117680000Y-74150000D01*
X112217500Y-68530000D02*
X113596774Y-68530000D01*
X115750000Y-68691000D02*
X115750000Y-72220000D01*
X113596774Y-68530000D02*
X113757774Y-68691000D01*
%TO.N,GPIO19*%
X115399000Y-69042000D02*
X115399000Y-74409000D01*
X113500385Y-68930000D02*
X113612386Y-69042000D01*
X113612386Y-69042000D02*
X115399000Y-69042000D01*
X115399000Y-74409000D02*
X117680000Y-76690000D01*
X112217500Y-68930000D02*
X113500385Y-68930000D01*
%TO.N,GPIO18*%
X112217500Y-69330000D02*
X112280501Y-69393001D01*
X115048000Y-69393000D02*
X115048000Y-76598000D01*
X115048000Y-76598000D02*
X117680000Y-79230000D01*
X112280501Y-69393001D02*
X115048000Y-69393000D01*
%TO.N,GPIO17*%
X113912500Y-72700000D02*
X111380000Y-70167500D01*
X117680000Y-84310000D02*
X114697000Y-81327000D01*
X114697000Y-72700000D02*
X113912500Y-72700000D01*
X114697000Y-81327000D02*
X114697000Y-72700000D01*
%TO.N,GPIO16*%
X114346000Y-83516000D02*
X117680000Y-86850000D01*
X114346000Y-73998064D02*
X114346000Y-83516000D01*
X110980000Y-70632064D02*
X114346000Y-73998064D01*
X110980000Y-70167500D02*
X110980000Y-70632064D01*
%TO.N,QSPI_SD1*%
X105256000Y-61426000D02*
X103430202Y-61426000D01*
X103504202Y-60000000D02*
X103970000Y-60000000D01*
X103219000Y-61214798D02*
X103219000Y-60285202D01*
X106580000Y-62750000D02*
X105256000Y-61426000D01*
X103430202Y-61426000D02*
X103219000Y-61214798D01*
X106580000Y-63292500D02*
X106580000Y-62750000D01*
X103219000Y-60285202D02*
X103504202Y-60000000D01*
%TO.N,QSPI_SD2*%
X106980000Y-63292500D02*
X106980000Y-62150000D01*
X106980000Y-62150000D02*
X105920000Y-61090000D01*
X105920000Y-59273000D02*
X105796000Y-59149000D01*
X104994000Y-59149000D02*
X104994000Y-59946000D01*
X104994000Y-59946000D02*
X104440000Y-60500000D01*
X105796000Y-59149000D02*
X104994000Y-59149000D01*
X104440000Y-60500000D02*
X103970000Y-60500000D01*
X105920000Y-61090000D02*
X105920000Y-59273000D01*
%TO.N,QSPI_SD0*%
X107380000Y-61560000D02*
X107380000Y-63292500D01*
X106820000Y-61000000D02*
X107380000Y-61560000D01*
%TO.N,QSPI_SCLK*%
X106820000Y-60500000D02*
X107285798Y-60500000D01*
X107285798Y-60500000D02*
X107780000Y-60994202D01*
X107780000Y-60994202D02*
X107780000Y-63292500D01*
%TO.N,QSPI_SD3*%
X107352898Y-60000000D02*
X108180000Y-60827102D01*
X106820000Y-60000000D02*
X107352898Y-60000000D01*
X108180000Y-60827102D02*
X108180000Y-63292500D01*
%TD*%
%TA.AperFunction,Conductor*%
%TO.N,GND*%
G36*
X106132922Y-75061213D02*
G01*
X106161347Y-75093221D01*
X106207684Y-75168345D01*
X106331654Y-75292315D01*
X106480875Y-75384356D01*
X106480880Y-75384358D01*
X106589989Y-75420513D01*
X106647434Y-75460285D01*
X106674257Y-75524801D01*
X106661942Y-75593577D01*
X106614399Y-75644777D01*
X106607282Y-75648703D01*
X106561657Y-75671950D01*
X106561652Y-75671954D01*
X106471954Y-75761652D01*
X106471951Y-75761657D01*
X106471950Y-75761658D01*
X106470259Y-75764977D01*
X106414352Y-75874698D01*
X106399500Y-75968475D01*
X106399500Y-76931517D01*
X106407469Y-76981829D01*
X106414354Y-77025304D01*
X106471950Y-77138342D01*
X106471952Y-77138344D01*
X106471954Y-77138347D01*
X106561652Y-77228045D01*
X106561654Y-77228046D01*
X106561658Y-77228050D01*
X106674694Y-77285645D01*
X106674698Y-77285647D01*
X106768475Y-77300499D01*
X106768481Y-77300500D01*
X107531518Y-77300499D01*
X107625304Y-77285646D01*
X107738342Y-77228050D01*
X107828050Y-77138342D01*
X107858253Y-77079064D01*
X107906226Y-77028270D01*
X107974047Y-77011474D01*
X108040182Y-77034011D01*
X108082171Y-77085273D01*
X108096187Y-77117016D01*
X108172984Y-77193813D01*
X108272338Y-77237682D01*
X108296627Y-77240500D01*
X108547273Y-77240499D01*
X108614311Y-77260183D01*
X108660066Y-77312987D01*
X108670010Y-77382146D01*
X108640985Y-77445701D01*
X108619180Y-77463708D01*
X108619836Y-77464563D01*
X108613384Y-77469513D01*
X108529513Y-77553384D01*
X108529511Y-77553387D01*
X108470201Y-77656114D01*
X108439500Y-77770691D01*
X108439500Y-77889309D01*
X108469562Y-78001504D01*
X108467900Y-78071353D01*
X108428738Y-78129216D01*
X108364509Y-78156720D01*
X108295607Y-78145134D01*
X108262107Y-78121278D01*
X108207016Y-78066187D01*
X108107663Y-78022318D01*
X108083373Y-78019500D01*
X107716634Y-78019500D01*
X107716611Y-78019502D01*
X107692340Y-78022317D01*
X107692337Y-78022318D01*
X107592984Y-78066186D01*
X107516187Y-78142983D01*
X107472318Y-78242335D01*
X107472318Y-78242337D01*
X107469500Y-78266625D01*
X107469500Y-78693365D01*
X107469502Y-78693388D01*
X107472317Y-78717659D01*
X107472318Y-78717662D01*
X107516186Y-78817015D01*
X107516187Y-78817016D01*
X107592984Y-78893813D01*
X107592989Y-78893815D01*
X107595574Y-78895586D01*
X107599205Y-78900034D01*
X107601109Y-78901938D01*
X107600916Y-78902130D01*
X107639758Y-78949711D01*
X107649500Y-78997888D01*
X107649500Y-79049829D01*
X107687636Y-79141897D01*
X108963181Y-80417442D01*
X108996666Y-80478765D01*
X108999500Y-80505123D01*
X108999500Y-81483260D01*
X109009426Y-81551391D01*
X109060803Y-81656485D01*
X109143514Y-81739196D01*
X109143515Y-81739196D01*
X109143517Y-81739198D01*
X109248607Y-81790573D01*
X109261435Y-81792442D01*
X109316739Y-81800500D01*
X109316740Y-81800500D01*
X109783261Y-81800500D01*
X109805971Y-81797191D01*
X109851393Y-81790573D01*
X109956483Y-81739198D01*
X109956483Y-81739197D01*
X109965714Y-81734685D01*
X109966724Y-81736752D01*
X110019440Y-81718431D01*
X110087361Y-81734816D01*
X110135642Y-81785321D01*
X110149500Y-81842283D01*
X110149500Y-82304877D01*
X110129815Y-82371916D01*
X110113181Y-82392558D01*
X106912558Y-85593181D01*
X106851235Y-85626666D01*
X106824877Y-85629500D01*
X105365178Y-85629500D01*
X105321282Y-85638231D01*
X105321275Y-85638234D01*
X105271496Y-85671495D01*
X105271495Y-85671496D01*
X105238234Y-85721275D01*
X105238231Y-85721282D01*
X105229500Y-85765177D01*
X105229500Y-85765180D01*
X105229500Y-87494820D01*
X105229500Y-87494822D01*
X105229499Y-87494822D01*
X105238231Y-87538717D01*
X105242906Y-87550002D01*
X105241232Y-87550695D01*
X105257699Y-87603292D01*
X105239212Y-87670671D01*
X105187231Y-87717359D01*
X105133719Y-87729500D01*
X100704784Y-87729500D01*
X100637745Y-87709815D01*
X100591990Y-87657011D01*
X100582046Y-87587853D01*
X100611071Y-87524297D01*
X100617103Y-87517819D01*
X100647136Y-87487785D01*
X100647139Y-87487782D01*
X100756632Y-87323914D01*
X100832051Y-87141835D01*
X100859233Y-87005185D01*
X100870500Y-86948543D01*
X100870500Y-86751456D01*
X100832052Y-86558170D01*
X100832051Y-86558169D01*
X100832051Y-86558165D01*
X100771215Y-86411294D01*
X100763747Y-86341827D01*
X100795022Y-86279348D01*
X100798067Y-86276192D01*
X104672364Y-82401897D01*
X104710500Y-82309828D01*
X104710500Y-82214765D01*
X104730185Y-82147726D01*
X104782989Y-82101971D01*
X104852147Y-82092027D01*
X104871391Y-82096380D01*
X105022895Y-82143590D01*
X105093408Y-82149998D01*
X105093426Y-82149999D01*
X105600000Y-82149999D01*
X105606581Y-82149999D01*
X105677102Y-82143591D01*
X105677107Y-82143590D01*
X105839396Y-82093018D01*
X105984877Y-82005072D01*
X106105072Y-81884877D01*
X106193019Y-81739395D01*
X106243590Y-81577106D01*
X106250000Y-81506572D01*
X106250000Y-80900000D01*
X105600000Y-80900000D01*
X105600000Y-82149999D01*
X105093426Y-82149999D01*
X105099999Y-82149998D01*
X105100000Y-82149998D01*
X105100000Y-80400000D01*
X105600000Y-80400000D01*
X106249999Y-80400000D01*
X106249999Y-79793417D01*
X106243591Y-79722897D01*
X106243590Y-79722892D01*
X106193018Y-79560603D01*
X106105072Y-79415122D01*
X105984877Y-79294927D01*
X105839395Y-79206980D01*
X105839396Y-79206980D01*
X105677105Y-79156409D01*
X105677106Y-79156409D01*
X105606572Y-79150000D01*
X105600000Y-79150000D01*
X105600000Y-80400000D01*
X105100000Y-80400000D01*
X105100000Y-79150000D01*
X105099999Y-79149999D01*
X105093436Y-79150000D01*
X105093417Y-79150001D01*
X105022897Y-79156408D01*
X105022891Y-79156409D01*
X104871391Y-79203619D01*
X104801530Y-79204771D01*
X104742138Y-79167970D01*
X104712070Y-79104901D01*
X104710500Y-79085234D01*
X104710500Y-76660173D01*
X104710499Y-76660170D01*
X104696608Y-76626634D01*
X104672364Y-76568103D01*
X104601897Y-76497636D01*
X104533331Y-76469235D01*
X104509829Y-76459500D01*
X104509828Y-76459500D01*
X103905123Y-76459500D01*
X103838084Y-76439815D01*
X103817442Y-76423181D01*
X103815819Y-76421558D01*
X103782334Y-76360235D01*
X103779500Y-76333877D01*
X103779500Y-75684499D01*
X103799185Y-75617460D01*
X103851989Y-75571705D01*
X103903495Y-75560499D01*
X104303372Y-75560499D01*
X104327662Y-75557682D01*
X104427016Y-75513813D01*
X104503813Y-75437016D01*
X104503816Y-75437008D01*
X104505586Y-75434426D01*
X104510034Y-75430794D01*
X104511938Y-75428891D01*
X104512130Y-75429083D01*
X104559711Y-75390242D01*
X104607888Y-75380500D01*
X104619826Y-75380500D01*
X104619828Y-75380500D01*
X104711897Y-75342364D01*
X104924772Y-75129487D01*
X104986091Y-75096005D01*
X105031848Y-75094698D01*
X105068481Y-75100500D01*
X105831518Y-75100499D01*
X105925304Y-75085646D01*
X105999514Y-75047833D01*
X106068181Y-75034937D01*
X106132922Y-75061213D01*
G37*
%TD.AperFunction*%
%TA.AperFunction,Conductor*%
G36*
X108304075Y-86822993D02*
G01*
X108369901Y-86937007D01*
X108462993Y-87030099D01*
X108577007Y-87095925D01*
X108640591Y-87112962D01*
X108060373Y-87693181D01*
X107999050Y-87726666D01*
X107972692Y-87729500D01*
X107326281Y-87729500D01*
X107259242Y-87709815D01*
X107213487Y-87657011D01*
X107203543Y-87587853D01*
X107217915Y-87550342D01*
X107217094Y-87550002D01*
X107221764Y-87538726D01*
X107221767Y-87538722D01*
X107221768Y-87538717D01*
X107230500Y-87494822D01*
X107230500Y-87043503D01*
X107250185Y-86976464D01*
X107302989Y-86930709D01*
X107372147Y-86920765D01*
X107435703Y-86949790D01*
X107472431Y-87005185D01*
X107518904Y-87148217D01*
X107615375Y-87337550D01*
X107654728Y-87391716D01*
X108287037Y-86759408D01*
X108304075Y-86822993D01*
G37*
%TD.AperFunction*%
%TA.AperFunction,Conductor*%
G36*
X109885270Y-87391717D02*
G01*
X109885270Y-87391716D01*
X109924622Y-87337554D01*
X110021095Y-87148217D01*
X110086755Y-86946134D01*
X110096056Y-86887412D01*
X110125985Y-86824277D01*
X110185296Y-86787346D01*
X110255159Y-86788342D01*
X110313392Y-86826952D01*
X110340147Y-86882616D01*
X110347947Y-86921830D01*
X110347950Y-86921839D01*
X110423364Y-87103907D01*
X110423371Y-87103920D01*
X110532860Y-87267781D01*
X110532863Y-87267785D01*
X110672214Y-87407136D01*
X110672218Y-87407139D01*
X110814782Y-87502398D01*
X110859587Y-87556010D01*
X110868294Y-87625335D01*
X110838139Y-87688363D01*
X110778696Y-87725082D01*
X110745891Y-87729500D01*
X109567308Y-87729500D01*
X109500269Y-87709815D01*
X109479627Y-87693181D01*
X108899408Y-87112962D01*
X108962993Y-87095925D01*
X109077007Y-87030099D01*
X109170099Y-86937007D01*
X109235925Y-86822993D01*
X109252962Y-86759408D01*
X109885270Y-87391717D01*
G37*
%TD.AperFunction*%
%TA.AperFunction,Conductor*%
G36*
X110855703Y-71662474D02*
G01*
X110862181Y-71668506D01*
X111023181Y-71829506D01*
X111056666Y-71890829D01*
X111059500Y-71917187D01*
X111059500Y-85567973D01*
X111039815Y-85635012D01*
X110987011Y-85680767D01*
X110982952Y-85682534D01*
X110836092Y-85743364D01*
X110836079Y-85743371D01*
X110672218Y-85852860D01*
X110672214Y-85852863D01*
X110532863Y-85992214D01*
X110532860Y-85992218D01*
X110423371Y-86156079D01*
X110423364Y-86156092D01*
X110347950Y-86338160D01*
X110347948Y-86338167D01*
X110340147Y-86377384D01*
X110307761Y-86439294D01*
X110247044Y-86473867D01*
X110177275Y-86470126D01*
X110120604Y-86429258D01*
X110096056Y-86372587D01*
X110086755Y-86313865D01*
X110021095Y-86111782D01*
X109924624Y-85922449D01*
X109885270Y-85868282D01*
X109885269Y-85868282D01*
X109252962Y-86500590D01*
X109235925Y-86437007D01*
X109170099Y-86322993D01*
X109077007Y-86229901D01*
X108962993Y-86164075D01*
X108899408Y-86147037D01*
X109531716Y-85514728D01*
X109477550Y-85475375D01*
X109288217Y-85378904D01*
X109086129Y-85313242D01*
X108876246Y-85280000D01*
X108663754Y-85280000D01*
X108453872Y-85313242D01*
X108453869Y-85313242D01*
X108251782Y-85378904D01*
X108100325Y-85456076D01*
X108031656Y-85468972D01*
X107966915Y-85442696D01*
X107926658Y-85385589D01*
X107923666Y-85315784D01*
X107956347Y-85257911D01*
X110524455Y-82689803D01*
X110524458Y-82689802D01*
X110541896Y-82672364D01*
X110541897Y-82672364D01*
X110612364Y-82601897D01*
X110650222Y-82510500D01*
X110650501Y-82509827D01*
X110650501Y-82410172D01*
X110650500Y-82410169D01*
X110650500Y-71756187D01*
X110670185Y-71689148D01*
X110722989Y-71643393D01*
X110792147Y-71633449D01*
X110855703Y-71662474D01*
G37*
%TD.AperFunction*%
%TA.AperFunction,Conductor*%
G36*
X118743181Y-82479627D02*
G01*
X118776666Y-82540950D01*
X118779500Y-82567308D01*
X118779500Y-83745891D01*
X118759815Y-83812930D01*
X118707011Y-83858685D01*
X118637853Y-83868629D01*
X118574297Y-83839604D01*
X118552398Y-83814782D01*
X118457139Y-83672218D01*
X118457136Y-83672214D01*
X118317785Y-83532863D01*
X118317781Y-83532860D01*
X118153920Y-83423371D01*
X118153907Y-83423364D01*
X117971839Y-83347950D01*
X117971830Y-83347947D01*
X117932616Y-83340147D01*
X117870705Y-83307761D01*
X117836132Y-83247045D01*
X117839873Y-83177275D01*
X117880740Y-83120604D01*
X117937412Y-83096056D01*
X117996134Y-83086755D01*
X118198217Y-83021095D01*
X118387554Y-82924622D01*
X118441716Y-82885270D01*
X118441717Y-82885270D01*
X117809408Y-82252962D01*
X117872993Y-82235925D01*
X117987007Y-82170099D01*
X118080099Y-82077007D01*
X118145925Y-81962993D01*
X118162962Y-81899408D01*
X118743181Y-82479627D01*
G37*
%TD.AperFunction*%
%TA.AperFunction,Conductor*%
G36*
X99404075Y-81962993D02*
G01*
X99469901Y-82077007D01*
X99562993Y-82170099D01*
X99677007Y-82235925D01*
X99740590Y-82252962D01*
X99108282Y-82885269D01*
X99108282Y-82885270D01*
X99162449Y-82924624D01*
X99351782Y-83021095D01*
X99553865Y-83086755D01*
X99612587Y-83096056D01*
X99675722Y-83125985D01*
X99712654Y-83185297D01*
X99711656Y-83255159D01*
X99673047Y-83313392D01*
X99617384Y-83340147D01*
X99578167Y-83347948D01*
X99578160Y-83347950D01*
X99396092Y-83423364D01*
X99396079Y-83423371D01*
X99232218Y-83532860D01*
X99232214Y-83532863D01*
X99092863Y-83672214D01*
X99092860Y-83672218D01*
X99007602Y-83799816D01*
X98953990Y-83844621D01*
X98884665Y-83853328D01*
X98821637Y-83823173D01*
X98784918Y-83763730D01*
X98780500Y-83730925D01*
X98780500Y-82557308D01*
X98800185Y-82490269D01*
X98816819Y-82469627D01*
X99387037Y-81899408D01*
X99404075Y-81962993D01*
G37*
%TD.AperFunction*%
%TA.AperFunction,Conductor*%
G36*
X103075138Y-76901634D02*
G01*
X103119485Y-76930135D01*
X103604176Y-77414825D01*
X103604179Y-77414829D01*
X103611247Y-77421897D01*
X103681714Y-77492364D01*
X103773783Y-77530500D01*
X103781953Y-77533884D01*
X103836356Y-77577725D01*
X103858421Y-77644019D01*
X103858500Y-77648445D01*
X103858500Y-79915876D01*
X103838815Y-79982915D01*
X103822181Y-80003557D01*
X101242091Y-82583646D01*
X101180768Y-82617131D01*
X101111076Y-82612147D01*
X101055143Y-82570275D01*
X101030726Y-82504811D01*
X101043926Y-82439669D01*
X101121094Y-82288219D01*
X101186757Y-82086130D01*
X101186757Y-82086127D01*
X101220000Y-81876246D01*
X101220000Y-81663753D01*
X101186757Y-81453872D01*
X101186757Y-81453869D01*
X101121095Y-81251782D01*
X101024624Y-81062449D01*
X100985270Y-81008282D01*
X100985269Y-81008282D01*
X100352962Y-81640590D01*
X100335925Y-81577007D01*
X100270099Y-81462993D01*
X100177007Y-81369901D01*
X100062993Y-81304075D01*
X99999409Y-81287037D01*
X100631716Y-80654728D01*
X100577550Y-80615375D01*
X100388217Y-80518904D01*
X100186128Y-80453242D01*
X100127411Y-80443942D01*
X100064276Y-80414012D01*
X100027345Y-80354701D01*
X100028343Y-80284838D01*
X100066953Y-80226606D01*
X100122615Y-80199852D01*
X100161835Y-80192051D01*
X100343914Y-80116632D01*
X100507782Y-80007139D01*
X100647139Y-79867782D01*
X100756632Y-79703914D01*
X100832051Y-79521835D01*
X100870500Y-79328541D01*
X100870500Y-79131459D01*
X100870500Y-79131456D01*
X100862244Y-79089952D01*
X100868471Y-79020360D01*
X100896178Y-78978081D01*
X102944125Y-76930133D01*
X103005446Y-76896650D01*
X103075138Y-76901634D01*
G37*
%TD.AperFunction*%
%TA.AperFunction,Conductor*%
G36*
X115152703Y-77057410D02*
G01*
X115159181Y-77063442D01*
X116751903Y-78656164D01*
X116785388Y-78717487D01*
X116780404Y-78787179D01*
X116778783Y-78791297D01*
X116717950Y-78938160D01*
X116717947Y-78938170D01*
X116679500Y-79131456D01*
X116679500Y-79131459D01*
X116679500Y-79328541D01*
X116679500Y-79328543D01*
X116679499Y-79328543D01*
X116717947Y-79521829D01*
X116717950Y-79521839D01*
X116793364Y-79703907D01*
X116793371Y-79703920D01*
X116902860Y-79867781D01*
X116902863Y-79867785D01*
X117042214Y-80007136D01*
X117042218Y-80007139D01*
X117206079Y-80116628D01*
X117206092Y-80116635D01*
X117388160Y-80192049D01*
X117388165Y-80192051D01*
X117408491Y-80196094D01*
X117427381Y-80199852D01*
X117489292Y-80232237D01*
X117523866Y-80292952D01*
X117520127Y-80362722D01*
X117479261Y-80419394D01*
X117422589Y-80443942D01*
X117363870Y-80453242D01*
X117363869Y-80453242D01*
X117161782Y-80518904D01*
X116972439Y-80615380D01*
X116918282Y-80654727D01*
X116918282Y-80654728D01*
X117550591Y-81287037D01*
X117487007Y-81304075D01*
X117372993Y-81369901D01*
X117279901Y-81462993D01*
X117214075Y-81577007D01*
X117197037Y-81640591D01*
X116564728Y-81008282D01*
X116564727Y-81008282D01*
X116525380Y-81062439D01*
X116428904Y-81251782D01*
X116363242Y-81453869D01*
X116363242Y-81453872D01*
X116330000Y-81663753D01*
X116330000Y-81876246D01*
X116363242Y-82086127D01*
X116363242Y-82086130D01*
X116428904Y-82288217D01*
X116506075Y-82439672D01*
X116518971Y-82508341D01*
X116492695Y-82573082D01*
X116435588Y-82613339D01*
X116365783Y-82616331D01*
X116307909Y-82583648D01*
X114983819Y-81259558D01*
X114950334Y-81198235D01*
X114947500Y-81171877D01*
X114947500Y-77151123D01*
X114967185Y-77084084D01*
X115019989Y-77038329D01*
X115089147Y-77028385D01*
X115152703Y-77057410D01*
G37*
%TD.AperFunction*%
%TA.AperFunction,Conductor*%
G36*
X98985703Y-79715361D02*
G01*
X99007602Y-79740183D01*
X99092860Y-79867782D01*
X99232214Y-80007136D01*
X99232218Y-80007139D01*
X99396079Y-80116628D01*
X99396092Y-80116635D01*
X99578160Y-80192049D01*
X99578165Y-80192051D01*
X99598491Y-80196094D01*
X99617381Y-80199852D01*
X99679292Y-80232237D01*
X99713866Y-80292952D01*
X99710127Y-80362722D01*
X99669261Y-80419394D01*
X99612589Y-80443942D01*
X99553870Y-80453242D01*
X99553869Y-80453242D01*
X99351782Y-80518904D01*
X99162439Y-80615380D01*
X99108282Y-80654727D01*
X99108282Y-80654728D01*
X99740591Y-81287037D01*
X99677007Y-81304075D01*
X99562993Y-81369901D01*
X99469901Y-81462993D01*
X99404075Y-81577007D01*
X99387037Y-81640591D01*
X98816819Y-81070373D01*
X98783334Y-81009050D01*
X98780500Y-80982692D01*
X98780500Y-79809074D01*
X98800185Y-79742035D01*
X98852989Y-79696280D01*
X98922147Y-79686336D01*
X98985703Y-79715361D01*
G37*
%TD.AperFunction*%
%TA.AperFunction,Conductor*%
G36*
X118738362Y-79701859D02*
G01*
X118775082Y-79761302D01*
X118779500Y-79794108D01*
X118779500Y-80972692D01*
X118759815Y-81039731D01*
X118743181Y-81060373D01*
X118162962Y-81640591D01*
X118145925Y-81577007D01*
X118080099Y-81462993D01*
X117987007Y-81369901D01*
X117872993Y-81304075D01*
X117809409Y-81287037D01*
X118441716Y-80654728D01*
X118387550Y-80615375D01*
X118198217Y-80518904D01*
X117996128Y-80453242D01*
X117937411Y-80443942D01*
X117874276Y-80414012D01*
X117837345Y-80354701D01*
X117838343Y-80284838D01*
X117876953Y-80226606D01*
X117932615Y-80199852D01*
X117971835Y-80192051D01*
X118153914Y-80116632D01*
X118317782Y-80007139D01*
X118457139Y-79867782D01*
X118528287Y-79761302D01*
X118552398Y-79725217D01*
X118606010Y-79680412D01*
X118675335Y-79671705D01*
X118738362Y-79701859D01*
G37*
%TD.AperFunction*%
%TA.AperFunction,Conductor*%
G36*
X110062795Y-72277636D02*
G01*
X110120810Y-72316572D01*
X110148565Y-72380693D01*
X110149500Y-72395894D01*
X110149500Y-79457716D01*
X110129815Y-79524755D01*
X110077011Y-79570510D01*
X110007853Y-79580454D01*
X109966433Y-79563843D01*
X109965714Y-79565315D01*
X109956483Y-79560802D01*
X109851393Y-79509427D01*
X109851391Y-79509426D01*
X109783261Y-79499500D01*
X109783260Y-79499500D01*
X109316740Y-79499500D01*
X109316739Y-79499500D01*
X109248608Y-79509426D01*
X109143516Y-79560802D01*
X109066970Y-79637348D01*
X109005646Y-79670832D01*
X108935955Y-79665848D01*
X108891608Y-79637347D01*
X108265226Y-79010965D01*
X108231741Y-78949642D01*
X108236725Y-78879950D01*
X108264942Y-78835887D01*
X108283813Y-78817016D01*
X108283910Y-78816795D01*
X108292035Y-78808618D01*
X108313118Y-78797017D01*
X108331749Y-78781788D01*
X108343174Y-78780478D01*
X108353250Y-78774935D01*
X108377257Y-78776574D01*
X108401165Y-78773835D01*
X108411484Y-78778910D01*
X108422957Y-78779694D01*
X108442265Y-78794051D01*
X108463861Y-78804673D01*
X108467769Y-78809183D01*
X108468062Y-78808891D01*
X108476187Y-78817016D01*
X108552984Y-78893813D01*
X108652338Y-78937682D01*
X108676627Y-78940500D01*
X109043372Y-78940499D01*
X109067662Y-78937682D01*
X109167016Y-78893813D01*
X109243813Y-78817016D01*
X109287682Y-78717662D01*
X109290500Y-78693373D01*
X109290499Y-78266628D01*
X109287682Y-78242338D01*
X109263028Y-78186503D01*
X109253957Y-78117228D01*
X109269077Y-78074418D01*
X109309796Y-78003891D01*
X109309797Y-78003890D01*
X109309797Y-78003888D01*
X109309799Y-78003886D01*
X109340500Y-77889309D01*
X109340500Y-77770691D01*
X109309799Y-77656114D01*
X109250489Y-77553387D01*
X109166613Y-77469511D01*
X109063886Y-77410201D01*
X108949309Y-77379500D01*
X108949302Y-77379498D01*
X108944118Y-77378816D01*
X108880224Y-77350545D01*
X108841757Y-77292218D01*
X108840930Y-77222353D01*
X108872628Y-77168200D01*
X108923813Y-77117016D01*
X108967682Y-77017662D01*
X108970500Y-76993373D01*
X108970499Y-76626628D01*
X108967682Y-76602338D01*
X108923813Y-76502984D01*
X108847016Y-76426187D01*
X108836532Y-76421558D01*
X108747663Y-76382318D01*
X108723374Y-76379500D01*
X108723373Y-76379500D01*
X108485123Y-76379500D01*
X108418084Y-76359815D01*
X108397442Y-76343181D01*
X108291897Y-76237636D01*
X108199829Y-76199500D01*
X108199828Y-76199500D01*
X108024499Y-76199500D01*
X107957460Y-76179815D01*
X107911705Y-76127011D01*
X107900499Y-76075500D01*
X107900499Y-75968482D01*
X107899235Y-75960500D01*
X107885646Y-75874696D01*
X107828050Y-75761658D01*
X107828046Y-75761654D01*
X107828045Y-75761652D01*
X107779574Y-75713181D01*
X107746089Y-75651858D01*
X107751073Y-75582166D01*
X107792945Y-75526233D01*
X107858409Y-75501816D01*
X107867255Y-75501500D01*
X107948826Y-75501500D01*
X107948828Y-75501500D01*
X108040897Y-75463364D01*
X108397442Y-75106817D01*
X108458765Y-75073333D01*
X108485123Y-75070499D01*
X108723366Y-75070499D01*
X108723372Y-75070499D01*
X108747662Y-75067682D01*
X108847016Y-75023813D01*
X108923813Y-74947016D01*
X108967682Y-74847662D01*
X108970500Y-74823373D01*
X108970499Y-74456628D01*
X108967682Y-74432338D01*
X108923813Y-74332984D01*
X108847016Y-74256187D01*
X108838891Y-74248062D01*
X108841883Y-74245069D01*
X108811788Y-74208251D01*
X108803835Y-74138835D01*
X108834673Y-74076139D01*
X108839183Y-74072230D01*
X108838891Y-74071938D01*
X108859373Y-74051456D01*
X108923813Y-73987016D01*
X108967682Y-73887662D01*
X108970500Y-73863373D01*
X108970499Y-73712030D01*
X108990183Y-73644993D01*
X109042987Y-73599238D01*
X109084778Y-73588414D01*
X109100909Y-73587145D01*
X109256196Y-73542030D01*
X109395374Y-73459721D01*
X109395383Y-73459714D01*
X109509714Y-73345383D01*
X109509721Y-73345374D01*
X109592031Y-73206195D01*
X109634504Y-73060000D01*
X108954000Y-73060000D01*
X108886961Y-73040315D01*
X108841206Y-72987511D01*
X108830000Y-72936000D01*
X108830000Y-72684000D01*
X108849685Y-72616961D01*
X108902489Y-72571206D01*
X108954000Y-72560000D01*
X109634504Y-72560000D01*
X109599378Y-72439093D01*
X109599578Y-72369224D01*
X109637521Y-72310554D01*
X109701159Y-72281711D01*
X109718446Y-72280499D01*
X109963372Y-72280499D01*
X109987662Y-72277682D01*
X109987672Y-72277677D01*
X109992939Y-72276245D01*
X110062795Y-72277636D01*
G37*
%TD.AperFunction*%
%TA.AperFunction,Conductor*%
G36*
X98985703Y-67015361D02*
G01*
X99007602Y-67040183D01*
X99092860Y-67167782D01*
X99232214Y-67307136D01*
X99232218Y-67307139D01*
X99396079Y-67416628D01*
X99396092Y-67416635D01*
X99565087Y-67486634D01*
X99578165Y-67492051D01*
X99578169Y-67492051D01*
X99578170Y-67492052D01*
X99771456Y-67530500D01*
X99771459Y-67530500D01*
X99968543Y-67530500D01*
X100098582Y-67504632D01*
X100161835Y-67492051D01*
X100282518Y-67442063D01*
X100308703Y-67431217D01*
X100378172Y-67423748D01*
X100440651Y-67455023D01*
X100443836Y-67458097D01*
X100893181Y-67907441D01*
X100926666Y-67968764D01*
X100929500Y-67995122D01*
X100929500Y-69359829D01*
X100955834Y-69423405D01*
X100967636Y-69451897D01*
X101038103Y-69522364D01*
X101130172Y-69560500D01*
X101130174Y-69560500D01*
X103928500Y-69560500D01*
X103995539Y-69580185D01*
X104041294Y-69632989D01*
X104052500Y-69684500D01*
X104052500Y-71144877D01*
X104032815Y-71211916D01*
X104016181Y-71232558D01*
X103925558Y-71323181D01*
X103864235Y-71356666D01*
X103837877Y-71359500D01*
X100932026Y-71359500D01*
X100864987Y-71339815D01*
X100819232Y-71287011D01*
X100817465Y-71282952D01*
X100756635Y-71136091D01*
X100756628Y-71136079D01*
X100647139Y-70972218D01*
X100647136Y-70972214D01*
X100507785Y-70832863D01*
X100507781Y-70832860D01*
X100343920Y-70723371D01*
X100343907Y-70723364D01*
X100161839Y-70647950D01*
X100161829Y-70647947D01*
X99968543Y-70609500D01*
X99968541Y-70609500D01*
X99771459Y-70609500D01*
X99771457Y-70609500D01*
X99578170Y-70647947D01*
X99578160Y-70647950D01*
X99396092Y-70723364D01*
X99396079Y-70723371D01*
X99232218Y-70832860D01*
X99232214Y-70832863D01*
X99092863Y-70972214D01*
X99092860Y-70972218D01*
X99007602Y-71099816D01*
X98953990Y-71144621D01*
X98884665Y-71153328D01*
X98821637Y-71123173D01*
X98784918Y-71063730D01*
X98780500Y-71030925D01*
X98780500Y-67109074D01*
X98800185Y-67042035D01*
X98852989Y-66996280D01*
X98922147Y-66986336D01*
X98985703Y-67015361D01*
G37*
%TD.AperFunction*%
%TA.AperFunction,Conductor*%
G36*
X116637155Y-66786132D02*
G01*
X116657134Y-66786846D01*
X116669993Y-66795774D01*
X116685013Y-66800185D01*
X116698103Y-66815292D01*
X116714526Y-66826695D01*
X116729087Y-66851049D01*
X116730768Y-66852989D01*
X116732162Y-66856193D01*
X116732213Y-66856277D01*
X116732332Y-66856559D01*
X116793368Y-67003914D01*
X116796533Y-67008650D01*
X116796534Y-67008653D01*
X116902860Y-67167781D01*
X116902863Y-67167785D01*
X117042214Y-67307136D01*
X117042218Y-67307139D01*
X117206079Y-67416628D01*
X117206092Y-67416635D01*
X117375087Y-67486634D01*
X117388165Y-67492051D01*
X117388169Y-67492051D01*
X117388170Y-67492052D01*
X117581456Y-67530500D01*
X117581459Y-67530500D01*
X117778543Y-67530500D01*
X117908582Y-67504632D01*
X117971835Y-67492051D01*
X118153914Y-67416632D01*
X118317782Y-67307139D01*
X118457139Y-67167782D01*
X118530340Y-67058229D01*
X118552398Y-67025217D01*
X118606010Y-66980412D01*
X118675335Y-66971705D01*
X118738362Y-67001859D01*
X118775082Y-67061302D01*
X118779500Y-67094108D01*
X118779500Y-71045891D01*
X118759815Y-71112930D01*
X118707011Y-71158685D01*
X118637853Y-71168629D01*
X118574297Y-71139604D01*
X118552398Y-71114782D01*
X118457139Y-70972218D01*
X118457136Y-70972214D01*
X118317785Y-70832863D01*
X118317781Y-70832860D01*
X118153920Y-70723371D01*
X118153907Y-70723364D01*
X117971839Y-70647950D01*
X117971829Y-70647947D01*
X117778543Y-70609500D01*
X117778541Y-70609500D01*
X117581459Y-70609500D01*
X117581457Y-70609500D01*
X117388170Y-70647947D01*
X117388160Y-70647950D01*
X117241297Y-70708783D01*
X117171828Y-70716252D01*
X117109349Y-70684977D01*
X117106164Y-70681903D01*
X116636819Y-70212558D01*
X116603334Y-70151235D01*
X116600500Y-70124877D01*
X116600500Y-68290173D01*
X116600499Y-68290170D01*
X116598565Y-68285500D01*
X116562364Y-68198103D01*
X116491897Y-68127636D01*
X116399829Y-68089500D01*
X116399828Y-68089500D01*
X114678616Y-68089500D01*
X114611577Y-68069815D01*
X114565822Y-68017011D01*
X114555878Y-67947853D01*
X114557291Y-67941027D01*
X114557681Y-67937663D01*
X114557682Y-67937662D01*
X114560500Y-67913373D01*
X114560499Y-67486628D01*
X114557682Y-67462338D01*
X114513813Y-67362984D01*
X114437016Y-67286187D01*
X114378279Y-67260252D01*
X114337663Y-67242318D01*
X114313374Y-67239500D01*
X114313373Y-67239500D01*
X114300002Y-67239500D01*
X114232963Y-67219815D01*
X114187208Y-67167011D01*
X114177264Y-67097853D01*
X114206289Y-67034297D01*
X114212321Y-67027819D01*
X114231488Y-67008653D01*
X114423322Y-66816819D01*
X114484645Y-66783334D01*
X114511003Y-66780500D01*
X116617974Y-66780500D01*
X116637155Y-66786132D01*
G37*
%TD.AperFunction*%
%TA.AperFunction,Conductor*%
G36*
X106571539Y-68000185D02*
G01*
X106617294Y-68052989D01*
X106628500Y-68104500D01*
X106628500Y-68680829D01*
X106649785Y-68732215D01*
X106666636Y-68772897D01*
X106737103Y-68843364D01*
X106829172Y-68881500D01*
X106928828Y-68881500D01*
X108232259Y-68881500D01*
X108299298Y-68901185D01*
X108345053Y-68953989D01*
X108352032Y-68973402D01*
X108360201Y-69003888D01*
X108419511Y-69106615D01*
X108503387Y-69190491D01*
X108606114Y-69249801D01*
X108637593Y-69258235D01*
X108697253Y-69294599D01*
X108727783Y-69357446D01*
X108729500Y-69378010D01*
X108729500Y-69455500D01*
X108709815Y-69522539D01*
X108657011Y-69568294D01*
X108605500Y-69579500D01*
X108510252Y-69579500D01*
X108455938Y-69590303D01*
X108386346Y-69584074D01*
X108331169Y-69541210D01*
X108316394Y-69514175D01*
X108313922Y-69507908D01*
X108313921Y-69507906D01*
X108222564Y-69387435D01*
X108102095Y-69296079D01*
X107961443Y-69240613D01*
X107873054Y-69230000D01*
X107686946Y-69230000D01*
X107598556Y-69240613D01*
X107457904Y-69296079D01*
X107337435Y-69387435D01*
X107246077Y-69507908D01*
X107243604Y-69514179D01*
X107200696Y-69569322D01*
X107134787Y-69592513D01*
X107104061Y-69590303D01*
X107049748Y-69579500D01*
X106910252Y-69579500D01*
X106910247Y-69579500D01*
X106851770Y-69591131D01*
X106851768Y-69591132D01*
X106848887Y-69593058D01*
X106841655Y-69595322D01*
X106840487Y-69595806D01*
X106840443Y-69595701D01*
X106782209Y-69613933D01*
X106714829Y-69595446D01*
X106711113Y-69593058D01*
X106708231Y-69591132D01*
X106708229Y-69591131D01*
X106649752Y-69579500D01*
X106649748Y-69579500D01*
X106510252Y-69579500D01*
X106510247Y-69579500D01*
X106451770Y-69591131D01*
X106451768Y-69591132D01*
X106448887Y-69593058D01*
X106441655Y-69595322D01*
X106440487Y-69595806D01*
X106440443Y-69595701D01*
X106382209Y-69613933D01*
X106314829Y-69595446D01*
X106311113Y-69593058D01*
X106308231Y-69591132D01*
X106308229Y-69591131D01*
X106249752Y-69579500D01*
X106249748Y-69579500D01*
X106110252Y-69579500D01*
X106067879Y-69587928D01*
X105998287Y-69581699D01*
X105943110Y-69538836D01*
X105919867Y-69472945D01*
X105922072Y-69442117D01*
X105930500Y-69399749D01*
X105930500Y-69260249D01*
X105930499Y-69260247D01*
X105918868Y-69201770D01*
X105918867Y-69201768D01*
X105916945Y-69198892D01*
X105914681Y-69191664D01*
X105914194Y-69190487D01*
X105914299Y-69190443D01*
X105896066Y-69132215D01*
X105914550Y-69064835D01*
X105916945Y-69061108D01*
X105918867Y-69058231D01*
X105918868Y-69058229D01*
X105927552Y-69014568D01*
X105930500Y-68999748D01*
X105930500Y-68860252D01*
X105930500Y-68860249D01*
X105930499Y-68860247D01*
X105918868Y-68801770D01*
X105918867Y-68801768D01*
X105916945Y-68798892D01*
X105914681Y-68791664D01*
X105914194Y-68790487D01*
X105914299Y-68790443D01*
X105896066Y-68732215D01*
X105914550Y-68664835D01*
X105916945Y-68661108D01*
X105918867Y-68658231D01*
X105918868Y-68658229D01*
X105930499Y-68599752D01*
X105930500Y-68599750D01*
X105930500Y-68460249D01*
X105930499Y-68460247D01*
X105918868Y-68401770D01*
X105918867Y-68401768D01*
X105916945Y-68398892D01*
X105914681Y-68391664D01*
X105914194Y-68390487D01*
X105914299Y-68390443D01*
X105896066Y-68332215D01*
X105897469Y-68311271D01*
X105901631Y-68284024D01*
X105918867Y-68258231D01*
X105930500Y-68199748D01*
X105930500Y-68095084D01*
X105931923Y-68085771D01*
X105942888Y-68062309D01*
X105950185Y-68037461D01*
X105957440Y-68031173D01*
X105961507Y-68022474D01*
X105983419Y-68008663D01*
X106002989Y-67991706D01*
X106014189Y-67989269D01*
X106020616Y-67985219D01*
X106032332Y-67985322D01*
X106054500Y-67980500D01*
X106504500Y-67980500D01*
X106571539Y-68000185D01*
G37*
%TD.AperFunction*%
%TA.AperFunction,Conductor*%
G36*
X102844669Y-67870185D02*
G01*
X102890424Y-67922989D01*
X102900368Y-67992147D01*
X102891064Y-68024587D01*
X102852318Y-68112335D01*
X102852318Y-68112337D01*
X102849500Y-68136625D01*
X102849500Y-68563365D01*
X102849502Y-68563388D01*
X102850294Y-68570215D01*
X102838464Y-68639076D01*
X102791282Y-68690609D01*
X102727120Y-68708500D01*
X101905500Y-68708500D01*
X101838461Y-68688815D01*
X101792706Y-68636011D01*
X101781500Y-68584500D01*
X101781500Y-67974500D01*
X101801185Y-67907461D01*
X101853989Y-67861706D01*
X101905500Y-67850500D01*
X102777630Y-67850500D01*
X102844669Y-67870185D01*
G37*
%TD.AperFunction*%
%TA.AperFunction,Conductor*%
G36*
X107997064Y-63851354D02*
G01*
X108017055Y-63851712D01*
X108036091Y-63859458D01*
X108042718Y-63862819D01*
X108051769Y-63868867D01*
X108056495Y-63869807D01*
X108056497Y-63869808D01*
X108110247Y-63880499D01*
X108110250Y-63880500D01*
X108247846Y-63880500D01*
X108314885Y-63900185D01*
X108360640Y-63952989D01*
X108362406Y-63957046D01*
X108367634Y-63969668D01*
X108367635Y-63969670D01*
X108367636Y-63969671D01*
X108769862Y-64371897D01*
X108840329Y-64442364D01*
X108932398Y-64480500D01*
X109742163Y-64480500D01*
X109809202Y-64500185D01*
X109829844Y-64516819D01*
X109903514Y-64590489D01*
X110006241Y-64649799D01*
X110120818Y-64680500D01*
X110120821Y-64680500D01*
X110225004Y-64680500D01*
X110292043Y-64700185D01*
X110312685Y-64716819D01*
X110394181Y-64798315D01*
X110427666Y-64859638D01*
X110430500Y-64885996D01*
X110430500Y-68285500D01*
X110410815Y-68352539D01*
X110358011Y-68398294D01*
X110306500Y-68409500D01*
X109330170Y-68409500D01*
X109263531Y-68437103D01*
X109238103Y-68447636D01*
X109238102Y-68447636D01*
X109226820Y-68452310D01*
X109225315Y-68448676D01*
X109179734Y-68462929D01*
X109112362Y-68444417D01*
X109089890Y-68426629D01*
X109081897Y-68418636D01*
X108989829Y-68380500D01*
X108989828Y-68380500D01*
X108843034Y-68380500D01*
X108839309Y-68379502D01*
X108720691Y-68379502D01*
X108716966Y-68380500D01*
X107253500Y-68380500D01*
X107186461Y-68360815D01*
X107140706Y-68308011D01*
X107129500Y-68256500D01*
X107129500Y-64949173D01*
X107129499Y-64949170D01*
X107105494Y-64891217D01*
X107091364Y-64857103D01*
X107020897Y-64786636D01*
X106862350Y-64628089D01*
X106828865Y-64566766D01*
X106833849Y-64497074D01*
X106842645Y-64478407D01*
X106882396Y-64409557D01*
X106887572Y-64400592D01*
X106918273Y-64286015D01*
X106918273Y-64167397D01*
X106887572Y-64052820D01*
X106887570Y-64052817D01*
X106887569Y-64052812D01*
X106887211Y-64051947D01*
X106887126Y-64051158D01*
X106885468Y-64044970D01*
X106886433Y-64044711D01*
X106879745Y-63982478D01*
X106911023Y-63920000D01*
X106971114Y-63884350D01*
X106978239Y-63882754D01*
X106989899Y-63880500D01*
X107049748Y-63880500D01*
X107108231Y-63868867D01*
X107131905Y-63853047D01*
X107156465Y-63848300D01*
X107167350Y-63849333D01*
X107177785Y-63846066D01*
X107201519Y-63852577D01*
X107226022Y-63854903D01*
X107234621Y-63861657D01*
X107245165Y-63864550D01*
X107248892Y-63866945D01*
X107251768Y-63868867D01*
X107251770Y-63868868D01*
X107310247Y-63880499D01*
X107310250Y-63880500D01*
X107310252Y-63880500D01*
X107449750Y-63880500D01*
X107449751Y-63880499D01*
X107464568Y-63877552D01*
X107508229Y-63868868D01*
X107508231Y-63868867D01*
X107511108Y-63866945D01*
X107518335Y-63864681D01*
X107519513Y-63864194D01*
X107519556Y-63864299D01*
X107577785Y-63846066D01*
X107645165Y-63864550D01*
X107648892Y-63866945D01*
X107651768Y-63868867D01*
X107651770Y-63868868D01*
X107710247Y-63880499D01*
X107710250Y-63880500D01*
X107710252Y-63880500D01*
X107849750Y-63880500D01*
X107849751Y-63880499D01*
X107864568Y-63877552D01*
X107908229Y-63868868D01*
X107908231Y-63868867D01*
X107911108Y-63866945D01*
X107918335Y-63864681D01*
X107919513Y-63864194D01*
X107919556Y-63864299D01*
X107930186Y-63860970D01*
X107947196Y-63850464D01*
X107962847Y-63850743D01*
X107977785Y-63846066D01*
X107997064Y-63851354D01*
G37*
%TD.AperFunction*%
%TA.AperFunction,Conductor*%
G36*
X105001816Y-62097185D02*
G01*
X105022458Y-62113819D01*
X105893181Y-62984542D01*
X105926666Y-63045865D01*
X105929500Y-63072223D01*
X105929500Y-63699752D01*
X105935777Y-63731309D01*
X105929550Y-63800901D01*
X105886686Y-63856078D01*
X105820796Y-63879322D01*
X105814160Y-63879500D01*
X105497622Y-63879500D01*
X105430583Y-63859815D01*
X105409941Y-63843181D01*
X105066818Y-63500058D01*
X105033333Y-63438735D01*
X105030499Y-63412377D01*
X105030499Y-63106634D01*
X105030499Y-63106628D01*
X105027682Y-63082338D01*
X104983813Y-62982984D01*
X104907016Y-62906187D01*
X104859596Y-62885249D01*
X104807663Y-62862318D01*
X104783374Y-62859500D01*
X104422472Y-62859500D01*
X104355433Y-62839815D01*
X104315740Y-62798621D01*
X104289720Y-62754625D01*
X104289714Y-62754616D01*
X104175383Y-62640285D01*
X104175374Y-62640278D01*
X104036193Y-62557967D01*
X104036190Y-62557965D01*
X103890001Y-62515493D01*
X103890000Y-62515494D01*
X103890000Y-63853808D01*
X103870315Y-63920847D01*
X103853681Y-63941489D01*
X103816512Y-63978657D01*
X103816510Y-63978660D01*
X103778226Y-64044970D01*
X103757200Y-64081387D01*
X103726499Y-64195964D01*
X103726499Y-64195966D01*
X103726499Y-64266143D01*
X103706814Y-64333182D01*
X103654010Y-64378937D01*
X103624136Y-64388241D01*
X103613403Y-64390143D01*
X103567690Y-64390143D01*
X103478411Y-64414065D01*
X103473137Y-64415000D01*
X103443524Y-64411723D01*
X103413744Y-64411014D01*
X103409175Y-64407921D01*
X103403691Y-64407315D01*
X103380550Y-64388547D01*
X103355881Y-64371851D01*
X103353709Y-64366779D01*
X103349425Y-64363305D01*
X103340105Y-64335011D01*
X103328377Y-64307623D01*
X103327779Y-64297590D01*
X103327566Y-64296943D01*
X103327708Y-64296393D01*
X103327500Y-64292902D01*
X103327500Y-64233390D01*
X103347185Y-64166351D01*
X103377048Y-64134229D01*
X103390000Y-64124504D01*
X103390000Y-62508909D01*
X103359389Y-62467895D01*
X103352336Y-62411545D01*
X103353361Y-62401953D01*
X103375500Y-62319332D01*
X103375500Y-62200714D01*
X103375055Y-62199053D01*
X103376203Y-62188317D01*
X103387129Y-62161894D01*
X103395185Y-62134461D01*
X103400310Y-62130019D01*
X103402903Y-62123751D01*
X103426380Y-62107429D01*
X103447989Y-62088706D01*
X103455739Y-62087019D01*
X103460272Y-62083869D01*
X103472216Y-62083435D01*
X103499500Y-62077500D01*
X104934777Y-62077500D01*
X105001816Y-62097185D01*
G37*
%TD.AperFunction*%
%TA.AperFunction,Conductor*%
G36*
X114149465Y-62700185D02*
G01*
X114170106Y-62716818D01*
X114214180Y-62760891D01*
X114247666Y-62822214D01*
X114250500Y-62848573D01*
X114250500Y-63251427D01*
X114230815Y-63318466D01*
X114214181Y-63339108D01*
X113310108Y-64243181D01*
X113248785Y-64276666D01*
X113222427Y-64279500D01*
X112929500Y-64279500D01*
X112862461Y-64259815D01*
X112816706Y-64207011D01*
X112805500Y-64155500D01*
X112805500Y-64060249D01*
X112805499Y-64060247D01*
X112793868Y-64001770D01*
X112793867Y-64001769D01*
X112749552Y-63935447D01*
X112682912Y-63890920D01*
X112638107Y-63837308D01*
X112629400Y-63767983D01*
X112659555Y-63704955D01*
X112664103Y-63700156D01*
X112817441Y-63546817D01*
X112878764Y-63513333D01*
X112905122Y-63510499D01*
X113143366Y-63510499D01*
X113143372Y-63510499D01*
X113167662Y-63507682D01*
X113267016Y-63463813D01*
X113343813Y-63387016D01*
X113387682Y-63287662D01*
X113390500Y-63263373D01*
X113390499Y-62836628D01*
X113388430Y-62818787D01*
X113400259Y-62749926D01*
X113447440Y-62698392D01*
X113511604Y-62680500D01*
X114082426Y-62680500D01*
X114149465Y-62700185D01*
G37*
%TD.AperFunction*%
%TA.AperFunction,Conductor*%
G36*
X118738362Y-54301859D02*
G01*
X118775082Y-54361302D01*
X118779500Y-54394108D01*
X118779500Y-58345891D01*
X118759815Y-58412930D01*
X118707011Y-58458685D01*
X118637853Y-58468629D01*
X118574297Y-58439604D01*
X118552398Y-58414782D01*
X118457139Y-58272218D01*
X118457136Y-58272214D01*
X118317785Y-58132863D01*
X118317781Y-58132860D01*
X118153920Y-58023371D01*
X118153907Y-58023364D01*
X117971839Y-57947950D01*
X117971829Y-57947947D01*
X117778543Y-57909500D01*
X117778541Y-57909500D01*
X117581459Y-57909500D01*
X117581457Y-57909500D01*
X117388170Y-57947947D01*
X117388160Y-57947950D01*
X117206092Y-58023364D01*
X117206079Y-58023371D01*
X117042218Y-58132860D01*
X117042214Y-58132863D01*
X116902863Y-58272214D01*
X116902860Y-58272218D01*
X116793371Y-58436079D01*
X116793364Y-58436092D01*
X116717950Y-58618160D01*
X116717947Y-58618170D01*
X116679500Y-58811456D01*
X116679500Y-58811459D01*
X116679500Y-59008541D01*
X116679500Y-59008543D01*
X116679499Y-59008543D01*
X116717947Y-59201829D01*
X116717950Y-59201839D01*
X116778782Y-59348702D01*
X116786251Y-59418171D01*
X116754975Y-59480650D01*
X116751902Y-59483835D01*
X115763103Y-60472636D01*
X115692637Y-60543101D01*
X115692636Y-60543102D01*
X115654500Y-60635170D01*
X115654500Y-61704160D01*
X115634815Y-61771199D01*
X115582011Y-61816954D01*
X115512853Y-61826898D01*
X115449297Y-61797873D01*
X115442819Y-61791841D01*
X114815615Y-61164636D01*
X114723547Y-61126500D01*
X114723546Y-61126500D01*
X114318500Y-61126500D01*
X114251461Y-61106815D01*
X114205706Y-61054011D01*
X114194500Y-61002500D01*
X114194500Y-57721122D01*
X114214185Y-57654083D01*
X114230819Y-57633441D01*
X115630913Y-56233347D01*
X117106165Y-54758094D01*
X117167486Y-54724611D01*
X117237178Y-54729595D01*
X117241260Y-54731201D01*
X117388165Y-54792051D01*
X117388169Y-54792051D01*
X117388170Y-54792052D01*
X117581456Y-54830500D01*
X117581459Y-54830500D01*
X117778543Y-54830500D01*
X117932803Y-54799815D01*
X117971835Y-54792051D01*
X118136734Y-54723748D01*
X118153907Y-54716635D01*
X118153907Y-54716634D01*
X118153914Y-54716632D01*
X118317782Y-54607139D01*
X118457139Y-54467782D01*
X118528287Y-54361302D01*
X118552398Y-54325217D01*
X118606010Y-54280412D01*
X118675335Y-54271705D01*
X118738362Y-54301859D01*
G37*
%TD.AperFunction*%
%TA.AperFunction,Conductor*%
G36*
X118720662Y-39580782D02*
G01*
X118767355Y-39632759D01*
X118779500Y-39686280D01*
X118779500Y-40565891D01*
X118759815Y-40632930D01*
X118707011Y-40678685D01*
X118637853Y-40688629D01*
X118574297Y-40659604D01*
X118552398Y-40634782D01*
X118457139Y-40492218D01*
X118457136Y-40492214D01*
X118317785Y-40352863D01*
X118317781Y-40352860D01*
X118153920Y-40243371D01*
X118153907Y-40243364D01*
X117971839Y-40167950D01*
X117971829Y-40167947D01*
X117778543Y-40129500D01*
X117778541Y-40129500D01*
X117581459Y-40129500D01*
X117581457Y-40129500D01*
X117388170Y-40167947D01*
X117388160Y-40167950D01*
X117206092Y-40243364D01*
X117206079Y-40243371D01*
X117042218Y-40352860D01*
X117042214Y-40352863D01*
X116902863Y-40492214D01*
X116902860Y-40492218D01*
X116793371Y-40656079D01*
X116793364Y-40656092D01*
X116717950Y-40838160D01*
X116717947Y-40838170D01*
X116679500Y-41031456D01*
X116679500Y-41031459D01*
X116679500Y-41228541D01*
X116679500Y-41228543D01*
X116679499Y-41228543D01*
X116717947Y-41421829D01*
X116717950Y-41421839D01*
X116778782Y-41568702D01*
X116786251Y-41638171D01*
X116754975Y-41700650D01*
X116751902Y-41703835D01*
X113215949Y-45239787D01*
X113154626Y-45273272D01*
X113084934Y-45268288D01*
X113029001Y-45226416D01*
X113010766Y-45184632D01*
X113008912Y-45185171D01*
X112962030Y-45023803D01*
X112879721Y-44884625D01*
X112879714Y-44884616D01*
X112765383Y-44770285D01*
X112765374Y-44770278D01*
X112626193Y-44687967D01*
X112626190Y-44687965D01*
X112480001Y-44645493D01*
X112480000Y-44645494D01*
X112480000Y-46254503D01*
X112481905Y-46253951D01*
X112551774Y-46254150D01*
X112610444Y-46292092D01*
X112639288Y-46355730D01*
X112640500Y-46373027D01*
X112640500Y-60285763D01*
X112620815Y-60352802D01*
X112568011Y-60398557D01*
X112537937Y-60403872D01*
X112530000Y-60411210D01*
X112530000Y-61066000D01*
X112510315Y-61133039D01*
X112457511Y-61178794D01*
X112406000Y-61190000D01*
X112154000Y-61190000D01*
X112086961Y-61170315D01*
X112041206Y-61117511D01*
X112030000Y-61066000D01*
X112030000Y-60758006D01*
X112046612Y-60696006D01*
X112099799Y-60603886D01*
X112130500Y-60489309D01*
X112130500Y-60451691D01*
X112150185Y-60384652D01*
X112160503Y-60371847D01*
X112163809Y-60367019D01*
X112163813Y-60367016D01*
X112207682Y-60267662D01*
X112210500Y-60243373D01*
X112210499Y-59816628D01*
X112207682Y-59792338D01*
X112163813Y-59692984D01*
X112087016Y-59616187D01*
X112022531Y-59587714D01*
X111987663Y-59572318D01*
X111963374Y-59569500D01*
X111602472Y-59569500D01*
X111535433Y-59549815D01*
X111495740Y-59508621D01*
X111469720Y-59464625D01*
X111469714Y-59464616D01*
X111355383Y-59350285D01*
X111355374Y-59350278D01*
X111216195Y-59267968D01*
X111216190Y-59267966D01*
X111098520Y-59233780D01*
X111039634Y-59196174D01*
X111010428Y-59132702D01*
X111020174Y-59063515D01*
X111045427Y-59027031D01*
X111242111Y-58830348D01*
X111280247Y-58738279D01*
X111280247Y-58638624D01*
X111280247Y-46271721D01*
X111242111Y-46179652D01*
X111184639Y-46122180D01*
X111151154Y-46060857D01*
X111156138Y-45991165D01*
X111198010Y-45935232D01*
X111263474Y-45910815D01*
X111272306Y-45910499D01*
X111447527Y-45910499D01*
X111514566Y-45930184D01*
X111554259Y-45971378D01*
X111580278Y-46015374D01*
X111580285Y-46015383D01*
X111694616Y-46129714D01*
X111694625Y-46129721D01*
X111833804Y-46212031D01*
X111980000Y-46254504D01*
X111980000Y-44645494D01*
X111979998Y-44645493D01*
X111833802Y-44687968D01*
X111832245Y-44688642D01*
X111830920Y-44688805D01*
X111826313Y-44690144D01*
X111826097Y-44689400D01*
X111762902Y-44697200D01*
X111699939Y-44666909D01*
X111663349Y-44607387D01*
X111661384Y-44550647D01*
X111670500Y-44504821D01*
X111670500Y-43025180D01*
X111670046Y-43020571D01*
X111683065Y-42951925D01*
X111731130Y-42901215D01*
X111761350Y-42888644D01*
X111882135Y-42856281D01*
X112013365Y-42780515D01*
X112120515Y-42673365D01*
X112196281Y-42542135D01*
X112235500Y-42395766D01*
X112235500Y-42244234D01*
X112196281Y-42097865D01*
X112120515Y-41966635D01*
X112013365Y-41859485D01*
X111937598Y-41815740D01*
X111882134Y-41783718D01*
X111882135Y-41783718D01*
X111862764Y-41778528D01*
X111803104Y-41742162D01*
X111772576Y-41679314D01*
X111780873Y-41609939D01*
X111807176Y-41571076D01*
X113320434Y-40057819D01*
X113381757Y-40024334D01*
X113408115Y-40021500D01*
X116548826Y-40021500D01*
X116548828Y-40021500D01*
X116640897Y-39983364D01*
X116997442Y-39626819D01*
X117058765Y-39593334D01*
X117085123Y-39590500D01*
X118544822Y-39590500D01*
X118588717Y-39581768D01*
X118588717Y-39581767D01*
X118588722Y-39581767D01*
X118588726Y-39581764D01*
X118600002Y-39577094D01*
X118600695Y-39578768D01*
X118653281Y-39562300D01*
X118720662Y-39580782D01*
G37*
%TD.AperFunction*%
%TA.AperFunction,Conductor*%
G36*
X105063834Y-60332940D02*
G01*
X105119767Y-60374812D01*
X105144184Y-60440277D01*
X105144500Y-60449122D01*
X105144500Y-60744212D01*
X105124815Y-60811251D01*
X105072011Y-60857006D01*
X105002853Y-60866950D01*
X104939297Y-60837925D01*
X104909323Y-60799127D01*
X104811757Y-60601602D01*
X104807749Y-60578694D01*
X104799364Y-60557003D01*
X104801841Y-60544923D01*
X104799717Y-60532778D01*
X104808729Y-60511341D01*
X104813403Y-60488558D01*
X104824776Y-60473175D01*
X104826797Y-60468369D01*
X104829909Y-60466232D01*
X104835244Y-60459016D01*
X104932823Y-60361437D01*
X104994143Y-60327956D01*
X105063834Y-60332940D01*
G37*
%TD.AperFunction*%
%TA.AperFunction,Conductor*%
G36*
X104232630Y-48689474D02*
G01*
X104245359Y-48690609D01*
X104263384Y-48704601D01*
X104283861Y-48714673D01*
X104287769Y-48719183D01*
X104288062Y-48718891D01*
X104296187Y-48727016D01*
X104372984Y-48803813D01*
X104472338Y-48847682D01*
X104496627Y-48850500D01*
X104734875Y-48850499D01*
X104801915Y-48870183D01*
X104822557Y-48886818D01*
X105363181Y-49427442D01*
X105396666Y-49488765D01*
X105399500Y-49515123D01*
X105399500Y-49733260D01*
X105409426Y-49801391D01*
X105460803Y-49906485D01*
X105543514Y-49989196D01*
X105543515Y-49989196D01*
X105543517Y-49989198D01*
X105648607Y-50040573D01*
X105682673Y-50045536D01*
X105716739Y-50050500D01*
X105716740Y-50050500D01*
X107383261Y-50050500D01*
X107458622Y-50039520D01*
X107527799Y-50049333D01*
X107580689Y-50094989D01*
X107600500Y-50161991D01*
X107600500Y-52681843D01*
X107580815Y-52748882D01*
X107528011Y-52794637D01*
X107465280Y-52805334D01*
X107406574Y-52800000D01*
X106800000Y-52800000D01*
X106800000Y-53450000D01*
X107476500Y-53450000D01*
X107543539Y-53469685D01*
X107589294Y-53522489D01*
X107600500Y-53574000D01*
X107600500Y-53826000D01*
X107580815Y-53893039D01*
X107528011Y-53938794D01*
X107476500Y-53950000D01*
X106800000Y-53950000D01*
X106800000Y-54599999D01*
X107406581Y-54599999D01*
X107465280Y-54594666D01*
X107533826Y-54608204D01*
X107584171Y-54656651D01*
X107600500Y-54718157D01*
X107600500Y-55936326D01*
X107580815Y-56003365D01*
X107564181Y-56024007D01*
X106560661Y-57027526D01*
X106560662Y-57027527D01*
X106507636Y-57080553D01*
X106469500Y-57172620D01*
X106469500Y-57705861D01*
X106449815Y-57772900D01*
X106397011Y-57818655D01*
X106327853Y-57828599D01*
X106282379Y-57812593D01*
X106156193Y-57737967D01*
X106156190Y-57737965D01*
X106010001Y-57695493D01*
X106010000Y-57695494D01*
X106010000Y-58376000D01*
X105990315Y-58443039D01*
X105937511Y-58488794D01*
X105886000Y-58500000D01*
X105760000Y-58500000D01*
X105760000Y-58626000D01*
X105740315Y-58693039D01*
X105687511Y-58738794D01*
X105636000Y-58750000D01*
X104981210Y-58750000D01*
X104982855Y-58770916D01*
X104983806Y-58776125D01*
X104976481Y-58845609D01*
X104932752Y-58900103D01*
X104909276Y-58912953D01*
X104852105Y-58936634D01*
X104852101Y-58936637D01*
X104781636Y-59007102D01*
X104743500Y-59099170D01*
X104743500Y-59223025D01*
X104723815Y-59290064D01*
X104671011Y-59335819D01*
X104601853Y-59345763D01*
X104538297Y-59316738D01*
X104516399Y-59291918D01*
X104515160Y-59290064D01*
X104511065Y-59283935D01*
X104482843Y-59265078D01*
X104440609Y-59236857D01*
X104378484Y-59224500D01*
X104378480Y-59224500D01*
X104100123Y-59224500D01*
X104033084Y-59204815D01*
X104012442Y-59188181D01*
X104006819Y-59182558D01*
X103973334Y-59121235D01*
X103970500Y-59094877D01*
X103970500Y-58249999D01*
X104981209Y-58249999D01*
X104981210Y-58250000D01*
X105510000Y-58250000D01*
X105510000Y-57695494D01*
X105509998Y-57695493D01*
X105363809Y-57737965D01*
X105363806Y-57737967D01*
X105224625Y-57820278D01*
X105224616Y-57820285D01*
X105110285Y-57934616D01*
X105110278Y-57934625D01*
X105027968Y-58073804D01*
X105027966Y-58073809D01*
X104982855Y-58229081D01*
X104982854Y-58229087D01*
X104981209Y-58249999D01*
X103970500Y-58249999D01*
X103970500Y-53956582D01*
X105050001Y-53956582D01*
X105056408Y-54027102D01*
X105056409Y-54027107D01*
X105106981Y-54189396D01*
X105194927Y-54334877D01*
X105315122Y-54455072D01*
X105460604Y-54543019D01*
X105460603Y-54543019D01*
X105622894Y-54593590D01*
X105622893Y-54593590D01*
X105693427Y-54599999D01*
X106299999Y-54599999D01*
X106300000Y-54599998D01*
X106300000Y-53950000D01*
X105050001Y-53950000D01*
X105050001Y-53956582D01*
X103970500Y-53956582D01*
X103970500Y-53443427D01*
X105050000Y-53443427D01*
X105050000Y-53450000D01*
X106300000Y-53450000D01*
X106300000Y-52800000D01*
X105693417Y-52800000D01*
X105622897Y-52806408D01*
X105622892Y-52806409D01*
X105460603Y-52856981D01*
X105315122Y-52944927D01*
X105194927Y-53065122D01*
X105106980Y-53210604D01*
X105056409Y-53372893D01*
X105050000Y-53443427D01*
X103970500Y-53443427D01*
X103970500Y-48907888D01*
X103990185Y-48840849D01*
X104008365Y-48818687D01*
X104021032Y-48806454D01*
X104027016Y-48803813D01*
X104103813Y-48727016D01*
X104104194Y-48726152D01*
X104113865Y-48716814D01*
X104134082Y-48706229D01*
X104151749Y-48691788D01*
X104164443Y-48690333D01*
X104175765Y-48684406D01*
X104198496Y-48686432D01*
X104221165Y-48683835D01*
X104232630Y-48689474D01*
G37*
%TD.AperFunction*%
%TA.AperFunction,Conductor*%
G36*
X109463971Y-45757663D02*
G01*
X109500464Y-45782923D01*
X110292928Y-46575387D01*
X110326413Y-46636710D01*
X110329247Y-46663068D01*
X110329247Y-58346931D01*
X110309562Y-58413970D01*
X110292928Y-58434612D01*
X110122180Y-58605360D01*
X110060857Y-58638845D01*
X109991165Y-58633861D01*
X109935232Y-58591989D01*
X109910815Y-58526525D01*
X109910499Y-58517679D01*
X109910499Y-58466634D01*
X109910499Y-58466628D01*
X109907682Y-58442338D01*
X109863813Y-58342984D01*
X109787016Y-58266187D01*
X109750354Y-58249999D01*
X109687663Y-58222318D01*
X109663373Y-58219500D01*
X109236634Y-58219500D01*
X109236611Y-58219502D01*
X109212340Y-58222317D01*
X109212337Y-58222318D01*
X109112984Y-58266186D01*
X109112983Y-58266187D01*
X109077681Y-58301490D01*
X109016358Y-58334975D01*
X108946666Y-58329991D01*
X108902319Y-58301490D01*
X108867016Y-58266187D01*
X108767663Y-58222318D01*
X108743373Y-58219500D01*
X108316634Y-58219500D01*
X108316611Y-58219502D01*
X108292340Y-58222317D01*
X108292339Y-58222317D01*
X108244584Y-58243403D01*
X108175306Y-58252474D01*
X108112121Y-58222650D01*
X108075091Y-58163400D01*
X108070499Y-58129968D01*
X108070499Y-58046634D01*
X108070499Y-58046628D01*
X108067682Y-58022338D01*
X108023813Y-57922984D01*
X107947016Y-57846187D01*
X107907183Y-57828599D01*
X107847663Y-57802318D01*
X107823373Y-57799500D01*
X107396634Y-57799500D01*
X107396611Y-57799502D01*
X107372340Y-57802317D01*
X107372337Y-57802318D01*
X107272984Y-57846186D01*
X107272983Y-57846187D01*
X107188062Y-57931109D01*
X107187023Y-57930070D01*
X107142672Y-57966273D01*
X107073251Y-57974179D01*
X107010577Y-57943298D01*
X106974547Y-57883434D01*
X106970500Y-57852013D01*
X106970500Y-57377571D01*
X106990185Y-57310532D01*
X107006814Y-57289894D01*
X107992895Y-56303814D01*
X107992897Y-56303814D01*
X108063364Y-56233347D01*
X108079160Y-56195210D01*
X108101501Y-56141277D01*
X108101501Y-56041622D01*
X108101501Y-56031633D01*
X108101500Y-56031619D01*
X108101500Y-48237409D01*
X108121185Y-48170370D01*
X108163499Y-48130022D01*
X108163884Y-48129799D01*
X108163886Y-48129799D01*
X108266613Y-48070489D01*
X108350489Y-47986613D01*
X108409799Y-47883886D01*
X108440500Y-47769309D01*
X108440500Y-47650691D01*
X108409799Y-47536114D01*
X108350489Y-47433387D01*
X108266613Y-47349511D01*
X108163886Y-47290201D01*
X108090384Y-47270506D01*
X108030726Y-47234142D01*
X108009045Y-47200818D01*
X108007585Y-47197512D01*
X108007585Y-47197509D01*
X107962206Y-47094735D01*
X107882765Y-47015294D01*
X107819000Y-46987139D01*
X107779992Y-46969915D01*
X107754865Y-46967000D01*
X107365143Y-46967000D01*
X107365117Y-46967002D01*
X107340012Y-46969913D01*
X107340008Y-46969915D01*
X107237235Y-47015293D01*
X107157794Y-47094734D01*
X107112415Y-47197506D01*
X107112413Y-47197514D01*
X107109724Y-47220691D01*
X107082443Y-47285015D01*
X107024717Y-47324377D01*
X106954873Y-47326282D01*
X106898870Y-47294078D01*
X106684473Y-47079680D01*
X106650988Y-47018357D01*
X106655972Y-46948665D01*
X106697844Y-46892732D01*
X106763308Y-46868315D01*
X106772154Y-46867999D01*
X106804856Y-46867999D01*
X106804864Y-46867999D01*
X106804879Y-46867997D01*
X106804882Y-46867997D01*
X106829987Y-46865086D01*
X106829988Y-46865085D01*
X106829991Y-46865085D01*
X106932765Y-46819706D01*
X107012206Y-46740265D01*
X107021413Y-46719413D01*
X107066499Y-46666037D01*
X107133286Y-46645510D01*
X107134847Y-46645500D01*
X108272962Y-46645500D01*
X108340001Y-46665185D01*
X108376062Y-46700607D01*
X108379399Y-46705601D01*
X108462260Y-46760966D01*
X108462263Y-46760966D01*
X108462264Y-46760967D01*
X108535321Y-46775499D01*
X108535324Y-46775500D01*
X108535326Y-46775500D01*
X108784676Y-46775500D01*
X108784677Y-46775499D01*
X108857740Y-46760966D01*
X108940601Y-46705601D01*
X108995966Y-46622740D01*
X109010500Y-46549674D01*
X109010500Y-46244730D01*
X109030185Y-46177691D01*
X109071380Y-46137997D01*
X109085377Y-46129719D01*
X109085383Y-46129714D01*
X109199714Y-46015383D01*
X109199721Y-46015374D01*
X109282031Y-45876195D01*
X109293706Y-45836010D01*
X109331312Y-45777124D01*
X109394784Y-45747917D01*
X109463971Y-45757663D01*
G37*
%TD.AperFunction*%
%TA.AperFunction,Conductor*%
G36*
X98985703Y-54315361D02*
G01*
X99007602Y-54340183D01*
X99092860Y-54467782D01*
X99232214Y-54607136D01*
X99232218Y-54607139D01*
X99396079Y-54716628D01*
X99396092Y-54716635D01*
X99578160Y-54792049D01*
X99578165Y-54792051D01*
X99578169Y-54792051D01*
X99578170Y-54792052D01*
X99771456Y-54830500D01*
X99771459Y-54830500D01*
X99968543Y-54830500D01*
X100122803Y-54799815D01*
X100161835Y-54792051D01*
X100270572Y-54747011D01*
X100308703Y-54731217D01*
X100378172Y-54723748D01*
X100440651Y-54755023D01*
X100443836Y-54758097D01*
X100684181Y-54998442D01*
X100717666Y-55059765D01*
X100720500Y-55086123D01*
X100720500Y-58046216D01*
X100700815Y-58113255D01*
X100648011Y-58159010D01*
X100578853Y-58168954D01*
X100515297Y-58139929D01*
X100508819Y-58133897D01*
X100507785Y-58132863D01*
X100507781Y-58132860D01*
X100343920Y-58023371D01*
X100343907Y-58023364D01*
X100161839Y-57947950D01*
X100161829Y-57947947D01*
X99968543Y-57909500D01*
X99968541Y-57909500D01*
X99771459Y-57909500D01*
X99771457Y-57909500D01*
X99578170Y-57947947D01*
X99578160Y-57947950D01*
X99396092Y-58023364D01*
X99396079Y-58023371D01*
X99232218Y-58132860D01*
X99232214Y-58132863D01*
X99092863Y-58272214D01*
X99092860Y-58272218D01*
X99007602Y-58399816D01*
X98953990Y-58444621D01*
X98884665Y-58453328D01*
X98821637Y-58423173D01*
X98784918Y-58363730D01*
X98780500Y-58330925D01*
X98780500Y-54409074D01*
X98800185Y-54342035D01*
X98852989Y-54296280D01*
X98922147Y-54286336D01*
X98985703Y-54315361D01*
G37*
%TD.AperFunction*%
%TA.AperFunction,Conductor*%
G36*
X103513956Y-37750185D02*
G01*
X103559711Y-37802989D01*
X103569655Y-37872147D01*
X103561478Y-37901952D01*
X103488430Y-38078306D01*
X103488427Y-38078318D01*
X103450000Y-38271504D01*
X103450000Y-38420000D01*
X104150000Y-38420000D01*
X104150000Y-38920000D01*
X103450000Y-38920000D01*
X103450000Y-39068495D01*
X103488427Y-39261681D01*
X103488430Y-39261693D01*
X103563807Y-39443671D01*
X103563814Y-39443684D01*
X103673248Y-39607462D01*
X103673251Y-39607466D01*
X103812533Y-39746748D01*
X103812537Y-39746751D01*
X103976315Y-39856185D01*
X103976328Y-39856192D01*
X104158308Y-39931569D01*
X104200000Y-39939862D01*
X104200000Y-39136988D01*
X104209940Y-39154205D01*
X104265795Y-39210060D01*
X104334204Y-39249556D01*
X104410504Y-39270000D01*
X104489496Y-39270000D01*
X104565796Y-39249556D01*
X104634205Y-39210060D01*
X104690060Y-39154205D01*
X104700000Y-39136988D01*
X104700000Y-39939862D01*
X104741690Y-39931569D01*
X104741692Y-39931569D01*
X104923671Y-39856192D01*
X104923684Y-39856185D01*
X105087462Y-39746751D01*
X105087466Y-39746748D01*
X105226748Y-39607466D01*
X105226751Y-39607462D01*
X105336185Y-39443684D01*
X105336192Y-39443671D01*
X105411569Y-39261693D01*
X105411572Y-39261681D01*
X105449999Y-39068495D01*
X105450000Y-39068492D01*
X105450000Y-38920000D01*
X104750000Y-38920000D01*
X104750000Y-38420000D01*
X105450000Y-38420000D01*
X105450000Y-38271508D01*
X105449999Y-38271504D01*
X105411572Y-38078318D01*
X105411569Y-38078306D01*
X105338522Y-37901952D01*
X105331053Y-37832483D01*
X105362329Y-37770004D01*
X105422418Y-37734352D01*
X105453083Y-37730500D01*
X116555500Y-37730500D01*
X116622539Y-37750185D01*
X116668294Y-37802989D01*
X116679500Y-37854500D01*
X116679500Y-39184877D01*
X116659815Y-39251916D01*
X116643181Y-39272558D01*
X116431558Y-39484181D01*
X116370235Y-39517666D01*
X116343877Y-39520500D01*
X113203162Y-39520500D01*
X113111094Y-39558636D01*
X111019549Y-41650181D01*
X110958226Y-41683666D01*
X110931868Y-41686500D01*
X107173170Y-41686500D01*
X107081102Y-41724636D01*
X107081101Y-41724637D01*
X107010635Y-41795104D01*
X106629769Y-42175969D01*
X106568446Y-42209454D01*
X106498754Y-42204470D01*
X106442821Y-42162598D01*
X106422315Y-42120386D01*
X106416281Y-42097865D01*
X106412924Y-42092051D01*
X106376865Y-42029595D01*
X106340515Y-41966635D01*
X106233365Y-41859485D01*
X106167750Y-41821602D01*
X106102136Y-41783719D01*
X106028950Y-41764109D01*
X105955766Y-41744500D01*
X105804234Y-41744500D01*
X105657863Y-41783719D01*
X105526635Y-41859485D01*
X105520189Y-41864432D01*
X105518099Y-41861709D01*
X105470217Y-41887466D01*
X105400558Y-41882043D01*
X105344888Y-41839821D01*
X105339299Y-41830976D01*
X105226751Y-41662537D01*
X105226748Y-41662533D01*
X105087466Y-41523251D01*
X105087462Y-41523248D01*
X104923684Y-41413814D01*
X104923671Y-41413807D01*
X104741691Y-41338429D01*
X104741683Y-41338427D01*
X104700000Y-41330135D01*
X104700000Y-42133011D01*
X104690060Y-42115795D01*
X104634205Y-42059940D01*
X104565796Y-42020444D01*
X104489496Y-42000000D01*
X104410504Y-42000000D01*
X104334204Y-42020444D01*
X104265795Y-42059940D01*
X104209940Y-42115795D01*
X104200000Y-42133011D01*
X104200000Y-41330136D01*
X104199999Y-41330135D01*
X104158316Y-41338427D01*
X104158308Y-41338429D01*
X103976328Y-41413807D01*
X103976315Y-41413814D01*
X103812537Y-41523248D01*
X103812533Y-41523251D01*
X103673251Y-41662533D01*
X103673248Y-41662537D01*
X103563814Y-41826315D01*
X103563807Y-41826328D01*
X103488430Y-42008306D01*
X103488427Y-42008318D01*
X103450000Y-42201504D01*
X103450000Y-42600000D01*
X104150000Y-42600000D01*
X104150000Y-43100000D01*
X103450000Y-43100000D01*
X103450000Y-43498495D01*
X103488427Y-43691681D01*
X103488430Y-43691693D01*
X103563807Y-43873671D01*
X103563814Y-43873684D01*
X103673248Y-44037462D01*
X103673251Y-44037466D01*
X103812533Y-44176748D01*
X103812537Y-44176751D01*
X103976315Y-44286185D01*
X103976328Y-44286192D01*
X104158308Y-44361569D01*
X104200000Y-44369862D01*
X104200000Y-43566988D01*
X104209940Y-43584205D01*
X104265795Y-43640060D01*
X104334204Y-43679556D01*
X104410504Y-43700000D01*
X104489496Y-43700000D01*
X104565796Y-43679556D01*
X104634205Y-43640060D01*
X104690060Y-43584205D01*
X104729556Y-43515796D01*
X104729769Y-43515000D01*
X105396000Y-43515000D01*
X105463039Y-43534685D01*
X105508794Y-43587489D01*
X105520000Y-43639000D01*
X105520000Y-43765000D01*
X105646000Y-43765000D01*
X105713039Y-43784685D01*
X105758794Y-43837489D01*
X105770000Y-43889000D01*
X105770000Y-44990000D01*
X105867828Y-44990000D01*
X105867839Y-44989999D01*
X105932242Y-44983074D01*
X106001002Y-44995478D01*
X106052140Y-45043087D01*
X106069500Y-45106363D01*
X106069500Y-45739829D01*
X106107636Y-45831897D01*
X106123181Y-45847442D01*
X106156666Y-45908765D01*
X106159500Y-45935123D01*
X106159500Y-46255344D01*
X106139815Y-46322383D01*
X106087011Y-46368138D01*
X106017853Y-46378082D01*
X105954297Y-46349057D01*
X105947819Y-46343025D01*
X105932432Y-46327638D01*
X105932430Y-46327637D01*
X105932429Y-46327636D01*
X105878497Y-46305296D01*
X105840361Y-46289500D01*
X105840360Y-46289500D01*
X105059828Y-46289500D01*
X104967888Y-46289500D01*
X104900849Y-46269815D01*
X104876231Y-46249016D01*
X104865871Y-46237647D01*
X104863813Y-46232984D01*
X104839158Y-46208329D01*
X104837220Y-46206202D01*
X104823130Y-46177282D01*
X104807711Y-46149044D01*
X104807923Y-46146069D01*
X104806618Y-46143390D01*
X104810400Y-46111442D01*
X104812695Y-46079352D01*
X104814538Y-46076483D01*
X104814832Y-46074005D01*
X104820749Y-46066821D01*
X104830396Y-46051812D01*
X104828815Y-46050756D01*
X104835599Y-46040601D01*
X104835601Y-46040601D01*
X104890966Y-45957740D01*
X104905500Y-45884674D01*
X104905500Y-45635326D01*
X104905500Y-45635323D01*
X104905499Y-45635321D01*
X104890967Y-45562264D01*
X104890966Y-45562260D01*
X104851616Y-45503368D01*
X104835601Y-45479399D01*
X104765951Y-45432861D01*
X104752739Y-45424033D01*
X104752735Y-45424032D01*
X104679677Y-45409500D01*
X104679674Y-45409500D01*
X104640218Y-45409500D01*
X104573179Y-45389815D01*
X104541842Y-45360987D01*
X104442924Y-45232075D01*
X104317586Y-45135899D01*
X104171631Y-45075444D01*
X104085000Y-45064038D01*
X104085000Y-46132809D01*
X104065315Y-46199848D01*
X104048681Y-46220490D01*
X104036187Y-46232983D01*
X103992318Y-46332335D01*
X103992318Y-46332337D01*
X103989500Y-46356625D01*
X103989500Y-46723365D01*
X103989502Y-46723388D01*
X103992317Y-46747659D01*
X103992318Y-46747662D01*
X104036186Y-46847015D01*
X104121109Y-46931938D01*
X104118122Y-46934924D01*
X104148252Y-46971845D01*
X104156147Y-47041267D01*
X104125256Y-47103937D01*
X104120824Y-47107777D01*
X104121109Y-47108062D01*
X104036187Y-47192983D01*
X103992318Y-47292335D01*
X103992318Y-47292337D01*
X103989500Y-47316625D01*
X103989500Y-47554876D01*
X103969815Y-47621915D01*
X103953181Y-47642557D01*
X103702556Y-47893181D01*
X103641233Y-47926666D01*
X103614877Y-47929500D01*
X103536635Y-47929500D01*
X103536611Y-47929502D01*
X103512340Y-47932317D01*
X103512337Y-47932318D01*
X103412984Y-47976186D01*
X103336187Y-48052983D01*
X103292318Y-48152335D01*
X103292318Y-48152337D01*
X103289500Y-48176625D01*
X103289500Y-48603365D01*
X103289502Y-48603388D01*
X103292317Y-48627659D01*
X103292318Y-48627662D01*
X103336186Y-48727015D01*
X103336187Y-48727016D01*
X103412984Y-48803813D01*
X103412989Y-48803815D01*
X103415574Y-48805586D01*
X103419205Y-48810034D01*
X103421109Y-48811938D01*
X103420916Y-48812130D01*
X103459758Y-48859711D01*
X103469500Y-48907888D01*
X103469500Y-56477168D01*
X103449815Y-56544207D01*
X103397011Y-56589962D01*
X103327853Y-56599906D01*
X103313407Y-56596943D01*
X103286328Y-56589687D01*
X103229309Y-56574409D01*
X103110691Y-56574409D01*
X103025593Y-56597211D01*
X102955743Y-56595548D01*
X102897881Y-56556385D01*
X102870377Y-56492157D01*
X102869500Y-56477436D01*
X102869500Y-55763922D01*
X102889185Y-55696883D01*
X102931500Y-55656535D01*
X102976613Y-55630489D01*
X103060489Y-55546613D01*
X103119799Y-55443886D01*
X103150500Y-55329309D01*
X103150500Y-55210691D01*
X103119799Y-55096114D01*
X103060489Y-54993387D01*
X102976613Y-54909511D01*
X102873886Y-54850201D01*
X102759309Y-54819500D01*
X102715768Y-54819500D01*
X102648729Y-54799815D01*
X102602974Y-54747011D01*
X102593030Y-54677853D01*
X102608381Y-54633499D01*
X102623600Y-54607139D01*
X102642799Y-54573886D01*
X102673500Y-54459309D01*
X102673500Y-54340691D01*
X102642799Y-54226114D01*
X102583489Y-54123387D01*
X102499613Y-54039511D01*
X102396886Y-53980201D01*
X102282309Y-53949500D01*
X102163691Y-53949500D01*
X102079593Y-53972034D01*
X102009743Y-53970371D01*
X101951881Y-53931208D01*
X101924377Y-53866980D01*
X101923500Y-53852259D01*
X101923500Y-50503173D01*
X101923499Y-50503170D01*
X101885364Y-50411103D01*
X101814897Y-50340636D01*
X100798097Y-49323836D01*
X100764612Y-49262513D01*
X100769596Y-49192821D01*
X100771217Y-49188703D01*
X100832049Y-49041839D01*
X100832051Y-49041835D01*
X100868278Y-48859711D01*
X100870500Y-48848543D01*
X100870500Y-48651456D01*
X100832052Y-48458170D01*
X100832051Y-48458169D01*
X100832051Y-48458165D01*
X100763774Y-48293328D01*
X100756635Y-48276092D01*
X100756628Y-48276079D01*
X100647139Y-48112218D01*
X100647136Y-48112214D01*
X100507785Y-47972863D01*
X100507781Y-47972860D01*
X100343920Y-47863371D01*
X100343907Y-47863364D01*
X100161839Y-47787950D01*
X100161829Y-47787947D01*
X99968543Y-47749500D01*
X99968541Y-47749500D01*
X99771459Y-47749500D01*
X99771457Y-47749500D01*
X99578170Y-47787947D01*
X99578160Y-47787950D01*
X99396092Y-47863364D01*
X99396079Y-47863371D01*
X99232218Y-47972860D01*
X99232214Y-47972863D01*
X99092863Y-48112214D01*
X99092860Y-48112218D01*
X99007602Y-48239816D01*
X98953990Y-48284621D01*
X98884665Y-48293328D01*
X98821637Y-48263173D01*
X98784918Y-48203730D01*
X98780500Y-48170925D01*
X98780500Y-46789074D01*
X98800185Y-46722035D01*
X98852989Y-46676280D01*
X98922147Y-46666336D01*
X98985703Y-46695361D01*
X99007602Y-46720183D01*
X99092860Y-46847782D01*
X99232214Y-46987136D01*
X99232218Y-46987139D01*
X99396079Y-47096628D01*
X99396092Y-47096635D01*
X99578160Y-47172049D01*
X99578165Y-47172051D01*
X99578169Y-47172051D01*
X99578170Y-47172052D01*
X99771456Y-47210500D01*
X99771459Y-47210500D01*
X99968543Y-47210500D01*
X100098582Y-47184632D01*
X100161835Y-47172051D01*
X100317007Y-47107777D01*
X100343907Y-47096635D01*
X100343907Y-47096634D01*
X100343914Y-47096632D01*
X100507782Y-46987139D01*
X100647139Y-46847782D01*
X100756632Y-46683914D01*
X100832051Y-46501835D01*
X100857673Y-46373027D01*
X100870500Y-46308543D01*
X100870500Y-46111456D01*
X100840373Y-45960001D01*
X103162988Y-45960001D01*
X103170442Y-46016627D01*
X103170444Y-46016633D01*
X103230899Y-46162585D01*
X103327075Y-46287924D01*
X103452413Y-46384100D01*
X103598365Y-46444554D01*
X103598369Y-46444555D01*
X103685000Y-46455961D01*
X103685000Y-45960000D01*
X103162990Y-45960000D01*
X103162988Y-45960001D01*
X100840373Y-45960001D01*
X100837324Y-45944673D01*
X100837324Y-45944672D01*
X100832052Y-45918172D01*
X100832051Y-45918165D01*
X100828876Y-45910499D01*
X100756635Y-45736092D01*
X100756625Y-45736074D01*
X100711413Y-45668409D01*
X100711412Y-45668408D01*
X100647139Y-45572218D01*
X100647136Y-45572214D01*
X100634922Y-45560000D01*
X103162987Y-45560000D01*
X103685000Y-45560000D01*
X103685000Y-45064038D01*
X103598369Y-45075444D01*
X103598365Y-45075445D01*
X103452413Y-45135899D01*
X103327075Y-45232075D01*
X103230899Y-45357413D01*
X103170444Y-45503368D01*
X103162987Y-45560000D01*
X100634922Y-45560000D01*
X100507785Y-45432863D01*
X100507781Y-45432860D01*
X100343920Y-45323371D01*
X100343907Y-45323364D01*
X100161839Y-45247950D01*
X100161830Y-45247947D01*
X100122616Y-45240147D01*
X100060705Y-45207761D01*
X100026132Y-45147045D01*
X100029873Y-45077275D01*
X100070740Y-45020604D01*
X100127412Y-44996056D01*
X100186134Y-44986755D01*
X100388217Y-44921095D01*
X100577554Y-44824622D01*
X100631716Y-44785270D01*
X100631717Y-44785270D01*
X99999408Y-44152962D01*
X100062993Y-44135925D01*
X100177007Y-44070099D01*
X100270099Y-43977007D01*
X100335925Y-43862993D01*
X100352962Y-43799408D01*
X100985270Y-44431717D01*
X100985270Y-44431716D01*
X101018295Y-44386262D01*
X104700000Y-44386262D01*
X104713999Y-44406813D01*
X104720000Y-44444923D01*
X104720000Y-44537844D01*
X104726401Y-44597372D01*
X104726403Y-44597379D01*
X104776645Y-44732086D01*
X104776649Y-44732093D01*
X104862809Y-44847187D01*
X104862812Y-44847190D01*
X104977906Y-44933350D01*
X104977913Y-44933354D01*
X105112620Y-44983596D01*
X105112627Y-44983598D01*
X105172155Y-44989999D01*
X105172172Y-44990000D01*
X105270000Y-44990000D01*
X105270000Y-44015000D01*
X104700000Y-44015000D01*
X104700000Y-44386262D01*
X101018295Y-44386262D01*
X101024622Y-44377554D01*
X101121095Y-44188217D01*
X101186757Y-43986130D01*
X101186757Y-43986127D01*
X101220000Y-43776246D01*
X101220000Y-43563753D01*
X101186757Y-43353872D01*
X101186757Y-43353869D01*
X101121094Y-43151780D01*
X101097225Y-43104934D01*
X101097224Y-43104933D01*
X101024624Y-42962449D01*
X100985270Y-42908282D01*
X100985269Y-42908282D01*
X100352962Y-43540590D01*
X100335925Y-43477007D01*
X100270099Y-43362993D01*
X100177007Y-43269901D01*
X100062993Y-43204075D01*
X99999409Y-43187037D01*
X100631716Y-42554728D01*
X100577550Y-42515375D01*
X100388217Y-42418904D01*
X100186128Y-42353242D01*
X100127411Y-42343942D01*
X100064276Y-42314012D01*
X100027345Y-42254701D01*
X100028343Y-42184838D01*
X100066953Y-42126606D01*
X100112155Y-42102410D01*
X100117330Y-42100903D01*
X100161835Y-42092051D01*
X100343914Y-42016632D01*
X100507782Y-41907139D01*
X100647139Y-41767782D01*
X100756632Y-41603914D01*
X100832051Y-41421835D01*
X100850291Y-41330136D01*
X100870500Y-41228543D01*
X100870500Y-41031456D01*
X100832052Y-40838170D01*
X100832051Y-40838169D01*
X100832051Y-40838165D01*
X100763774Y-40673328D01*
X100756635Y-40656092D01*
X100756628Y-40656079D01*
X100647139Y-40492218D01*
X100647136Y-40492214D01*
X100507785Y-40352863D01*
X100507781Y-40352860D01*
X100343920Y-40243371D01*
X100343907Y-40243364D01*
X100161839Y-40167950D01*
X100161829Y-40167947D01*
X99968543Y-40129500D01*
X99968541Y-40129500D01*
X99771459Y-40129500D01*
X99771457Y-40129500D01*
X99578170Y-40167947D01*
X99578160Y-40167950D01*
X99396092Y-40243364D01*
X99396079Y-40243371D01*
X99232218Y-40352860D01*
X99232214Y-40352863D01*
X99092863Y-40492214D01*
X99092860Y-40492218D01*
X99007602Y-40619816D01*
X98953990Y-40664621D01*
X98884665Y-40673328D01*
X98821637Y-40643173D01*
X98784918Y-40583730D01*
X98780500Y-40550925D01*
X98780500Y-39692465D01*
X98800185Y-39625426D01*
X98852989Y-39579671D01*
X98922147Y-39569727D01*
X98951957Y-39577906D01*
X98961276Y-39581765D01*
X98961278Y-39581767D01*
X98972253Y-39583950D01*
X99005177Y-39590500D01*
X99005180Y-39590500D01*
X100734822Y-39590500D01*
X100778717Y-39581768D01*
X100778717Y-39581767D01*
X100778722Y-39581767D01*
X100828504Y-39548504D01*
X100861767Y-39498722D01*
X100870500Y-39454820D01*
X100870500Y-37854500D01*
X100890185Y-37787461D01*
X100942989Y-37741706D01*
X100994500Y-37730500D01*
X103446917Y-37730500D01*
X103513956Y-37750185D01*
G37*
%TD.AperFunction*%
%TA.AperFunction,Conductor*%
G36*
X105702448Y-46810185D02*
G01*
X105723090Y-46826819D01*
X106886097Y-47989825D01*
X106886100Y-47989829D01*
X106893168Y-47996897D01*
X106963635Y-48067364D01*
X107032953Y-48096076D01*
X107087357Y-48139917D01*
X107109422Y-48206211D01*
X107109501Y-48210637D01*
X107109501Y-48487356D01*
X107109502Y-48487382D01*
X107112413Y-48512487D01*
X107112415Y-48512491D01*
X107157793Y-48615264D01*
X107157794Y-48615265D01*
X107237235Y-48694706D01*
X107276552Y-48712066D01*
X107329928Y-48757152D01*
X107350455Y-48823938D01*
X107331617Y-48891220D01*
X107279393Y-48937637D01*
X107226465Y-48949500D01*
X105716739Y-48949500D01*
X105670966Y-48956169D01*
X105601789Y-48946356D01*
X105565407Y-48921146D01*
X105146818Y-48502557D01*
X105113333Y-48441234D01*
X105110499Y-48414876D01*
X105110499Y-48176634D01*
X105110499Y-48176628D01*
X105107682Y-48152338D01*
X105063813Y-48052984D01*
X104987016Y-47976187D01*
X104987015Y-47976186D01*
X104934838Y-47953148D01*
X104881461Y-47908062D01*
X104860934Y-47841276D01*
X104871489Y-47789631D01*
X104907682Y-47707662D01*
X104910500Y-47683373D01*
X104910499Y-47316628D01*
X104907682Y-47292338D01*
X104863813Y-47192984D01*
X104787016Y-47116187D01*
X104778891Y-47108062D01*
X104781780Y-47105172D01*
X104768690Y-47095745D01*
X104763502Y-47082581D01*
X104751788Y-47068251D01*
X104749301Y-47046548D01*
X104743072Y-47030742D01*
X104745872Y-47016620D01*
X104743835Y-46998835D01*
X104753159Y-46979877D01*
X104756664Y-46962207D01*
X104772374Y-46940812D01*
X104774673Y-46936139D01*
X104776814Y-46933865D01*
X104786152Y-46924194D01*
X104787016Y-46923813D01*
X104863813Y-46847016D01*
X104866454Y-46841032D01*
X104878687Y-46828365D01*
X104900380Y-46816022D01*
X104919711Y-46800242D01*
X104932749Y-46797605D01*
X104939415Y-46793813D01*
X104948957Y-46794327D01*
X104967888Y-46790500D01*
X105635409Y-46790500D01*
X105702448Y-46810185D01*
G37*
%TD.AperFunction*%
%TA.AperFunction,Conductor*%
G36*
X116438925Y-42827848D02*
G01*
X116494858Y-42869720D01*
X116519275Y-42935184D01*
X116506076Y-43000325D01*
X116428904Y-43151782D01*
X116363242Y-43353869D01*
X116363242Y-43353872D01*
X116330000Y-43563753D01*
X116330000Y-43776246D01*
X116363242Y-43986127D01*
X116363242Y-43986130D01*
X116428904Y-44188217D01*
X116525375Y-44377550D01*
X116564728Y-44431716D01*
X117197037Y-43799408D01*
X117214075Y-43862993D01*
X117279901Y-43977007D01*
X117372993Y-44070099D01*
X117487007Y-44135925D01*
X117550590Y-44152962D01*
X116918282Y-44785269D01*
X116918282Y-44785270D01*
X116972449Y-44824624D01*
X117161782Y-44921095D01*
X117363865Y-44986755D01*
X117422587Y-44996056D01*
X117485722Y-45025985D01*
X117522654Y-45085297D01*
X117521656Y-45155159D01*
X117483047Y-45213392D01*
X117427384Y-45240147D01*
X117388167Y-45247948D01*
X117388160Y-45247950D01*
X117206092Y-45323364D01*
X117206079Y-45323371D01*
X117042218Y-45432860D01*
X117042214Y-45432863D01*
X116902863Y-45572214D01*
X116902860Y-45572218D01*
X116793371Y-45736079D01*
X116793364Y-45736091D01*
X116753682Y-45831897D01*
X116735334Y-45876195D01*
X116732535Y-45882952D01*
X116688695Y-45937356D01*
X116622401Y-45959421D01*
X116617974Y-45959500D01*
X113802170Y-45959500D01*
X113710102Y-45997636D01*
X113710101Y-45997637D01*
X113353181Y-46354558D01*
X113291858Y-46388043D01*
X113222166Y-46383059D01*
X113166233Y-46341187D01*
X113141816Y-46275723D01*
X113141500Y-46266877D01*
X113141500Y-46074122D01*
X113161185Y-46007083D01*
X113177819Y-45986441D01*
X114732544Y-44431716D01*
X116307912Y-42856347D01*
X116369233Y-42822864D01*
X116438925Y-42827848D01*
G37*
%TD.AperFunction*%
%TA.AperFunction,Conductor*%
G36*
X118743181Y-44379627D02*
G01*
X118776666Y-44440950D01*
X118779500Y-44467308D01*
X118779500Y-45645891D01*
X118759815Y-45712930D01*
X118707011Y-45758685D01*
X118637853Y-45768629D01*
X118574297Y-45739604D01*
X118552398Y-45714782D01*
X118457139Y-45572218D01*
X118457136Y-45572214D01*
X118317785Y-45432863D01*
X118317781Y-45432860D01*
X118153920Y-45323371D01*
X118153907Y-45323364D01*
X117971839Y-45247950D01*
X117971830Y-45247947D01*
X117932616Y-45240147D01*
X117870705Y-45207761D01*
X117836132Y-45147045D01*
X117839873Y-45077275D01*
X117880740Y-45020604D01*
X117937412Y-44996056D01*
X117996134Y-44986755D01*
X118198217Y-44921095D01*
X118387554Y-44824622D01*
X118441716Y-44785270D01*
X118441717Y-44785270D01*
X117809408Y-44152962D01*
X117872993Y-44135925D01*
X117987007Y-44070099D01*
X118080099Y-43977007D01*
X118145925Y-43862993D01*
X118162962Y-43799408D01*
X118743181Y-44379627D01*
G37*
%TD.AperFunction*%
%TA.AperFunction,Conductor*%
G36*
X99404075Y-43862993D02*
G01*
X99469901Y-43977007D01*
X99562993Y-44070099D01*
X99677007Y-44135925D01*
X99740590Y-44152962D01*
X99108282Y-44785269D01*
X99108282Y-44785270D01*
X99162449Y-44824624D01*
X99351782Y-44921095D01*
X99553865Y-44986755D01*
X99612587Y-44996056D01*
X99675722Y-45025985D01*
X99712654Y-45085297D01*
X99711656Y-45155159D01*
X99673047Y-45213392D01*
X99617384Y-45240147D01*
X99578167Y-45247948D01*
X99578160Y-45247950D01*
X99396092Y-45323364D01*
X99396079Y-45323371D01*
X99232218Y-45432860D01*
X99232214Y-45432863D01*
X99092863Y-45572214D01*
X99092860Y-45572218D01*
X99007602Y-45699816D01*
X98953990Y-45744621D01*
X98884665Y-45753328D01*
X98821637Y-45723173D01*
X98784918Y-45663730D01*
X98780500Y-45630925D01*
X98780500Y-44457308D01*
X98800185Y-44390269D01*
X98816819Y-44369627D01*
X99387037Y-43799408D01*
X99404075Y-43862993D01*
G37*
%TD.AperFunction*%
%TA.AperFunction,Conductor*%
G36*
X98985703Y-41615361D02*
G01*
X99007602Y-41640183D01*
X99092860Y-41767782D01*
X99232214Y-41907136D01*
X99232218Y-41907139D01*
X99396079Y-42016628D01*
X99396092Y-42016635D01*
X99573696Y-42090200D01*
X99578165Y-42092051D01*
X99598491Y-42096094D01*
X99617381Y-42099852D01*
X99679292Y-42132237D01*
X99713866Y-42192952D01*
X99710127Y-42262722D01*
X99669261Y-42319394D01*
X99612589Y-42343942D01*
X99553870Y-42353242D01*
X99553869Y-42353242D01*
X99351782Y-42418904D01*
X99162439Y-42515380D01*
X99108282Y-42554727D01*
X99108282Y-42554728D01*
X99740591Y-43187037D01*
X99677007Y-43204075D01*
X99562993Y-43269901D01*
X99469901Y-43362993D01*
X99404075Y-43477007D01*
X99387037Y-43540591D01*
X98816819Y-42970373D01*
X98783334Y-42909050D01*
X98780500Y-42882692D01*
X98780500Y-41709074D01*
X98800185Y-41642035D01*
X98852989Y-41596280D01*
X98922147Y-41586336D01*
X98985703Y-41615361D01*
G37*
%TD.AperFunction*%
%TA.AperFunction,Conductor*%
G36*
X118738362Y-41601859D02*
G01*
X118775082Y-41661302D01*
X118779500Y-41694108D01*
X118779500Y-42872692D01*
X118759815Y-42939731D01*
X118743181Y-42960373D01*
X118162962Y-43540591D01*
X118145925Y-43477007D01*
X118080099Y-43362993D01*
X117987007Y-43269901D01*
X117872993Y-43204075D01*
X117809408Y-43187037D01*
X118441716Y-42554728D01*
X118387550Y-42515375D01*
X118198217Y-42418904D01*
X117996128Y-42353242D01*
X117937411Y-42343942D01*
X117874276Y-42314012D01*
X117837345Y-42254701D01*
X117838343Y-42184838D01*
X117876953Y-42126606D01*
X117932615Y-42099852D01*
X117971835Y-42092051D01*
X118153914Y-42016632D01*
X118317782Y-41907139D01*
X118457139Y-41767782D01*
X118511450Y-41686500D01*
X118552398Y-41625217D01*
X118606010Y-41580412D01*
X118675335Y-41571705D01*
X118738362Y-41601859D01*
G37*
%TD.AperFunction*%
%TD*%
M02*
