%TF.GenerationSoftware,KiCad,Pcbnew,9.99.0-4247-g42f93c0d15*%
%TF.CreationDate,2026-05-03T12:37:44-04:00*%
%TF.ProjectId,devboard,64657662-6f61-4726-942e-6b696361645f,rev?*%
%TF.SameCoordinates,Original*%
%TF.FileFunction,Copper,L2,Bot*%
%TF.FilePolarity,Positive*%
%FSLAX46Y46*%
G04 Gerber Fmt 4.6, Leading zero omitted, Abs format (unit mm)*
G04 Created by KiCad (PCBNEW 9.99.0-4247-g42f93c0d15) date 2026-05-03 12:37:44*
%MOMM*%
%LPD*%
G01*
G04 APERTURE LIST*
%TA.AperFunction,ComponentPad*%
%ADD10R,1.700000X1.700000*%
%TD*%
%TA.AperFunction,ComponentPad*%
%ADD11C,1.700000*%
%TD*%
%TA.AperFunction,HeatsinkPad*%
%ADD12O,1.000000X2.100000*%
%TD*%
%TA.AperFunction,HeatsinkPad*%
%ADD13O,1.000000X1.600000*%
%TD*%
%TA.AperFunction,ViaPad*%
%ADD14C,0.600000*%
%TD*%
%TA.AperFunction,Conductor*%
%ADD15C,0.200000*%
%TD*%
G04 APERTURE END LIST*
D10*
%TO.P,J2,1,Pin_1_1*%
%TO.N,GPIO0*%
X99870000Y-38590000D03*
D11*
%TO.P,J2,2,Pin_2_2*%
%TO.N,GPIO1*%
X99870000Y-41130000D03*
%TO.P,J2,3,Pin_3_3*%
%TO.N,GND*%
X99870000Y-43670000D03*
%TO.P,J2,4,Pin_4_4*%
%TO.N,GPIO2*%
X99870000Y-46210000D03*
%TO.P,J2,5,Pin_5_5*%
%TO.N,GPIO3*%
X99870000Y-48750000D03*
%TO.P,J2,6,Pin_6_6*%
%TO.N,GPIO4*%
X99870000Y-51290000D03*
%TO.P,J2,7,Pin_7_7*%
%TO.N,GPIO5*%
X99870000Y-53830000D03*
%TO.P,J2,8,Pin_8_8*%
%TO.N,GND*%
X99870000Y-56370000D03*
%TO.P,J2,9,Pin_9_9*%
%TO.N,GPIO6*%
X99870000Y-58910000D03*
%TO.P,J2,10,Pin_10_10*%
%TO.N,GPIO7*%
X99870000Y-61450000D03*
%TO.P,J2,11,Pin_11_11*%
%TO.N,GPIO8*%
X99870000Y-63990000D03*
%TO.P,J2,12,Pin_12_12*%
%TO.N,GPIO9*%
X99870000Y-66530000D03*
%TO.P,J2,13,Pin_13_13*%
%TO.N,GND*%
X99870000Y-69070000D03*
%TO.P,J2,14,Pin_14_14*%
%TO.N,GPIO10*%
X99870000Y-71610000D03*
%TO.P,J2,15,Pin_15_15*%
%TO.N,GPIO11*%
X99870000Y-74150000D03*
%TO.P,J2,16,Pin_16_16*%
%TO.N,GPIO12*%
X99870000Y-76690000D03*
%TO.P,J2,17,Pin_17_17*%
%TO.N,GPIO13*%
X99870000Y-79230000D03*
%TO.P,J2,18,Pin_18_18*%
%TO.N,GND*%
X99870000Y-81770000D03*
%TO.P,J2,19,Pin_19_19*%
%TO.N,GPIO14*%
X99870000Y-84310000D03*
%TO.P,J2,20,Pin_20_20*%
%TO.N,GPIO15*%
X99870000Y-86850000D03*
%TD*%
D12*
%TO.P,J1,S1,SHIELD_S1*%
%TO.N,GND*%
X113090000Y-42850000D03*
D13*
X113090000Y-38670000D03*
D12*
X104450000Y-42850000D03*
D13*
X104450000Y-38670000D03*
%TD*%
D10*
%TO.P,J4,1,Pin_1_1*%
%TO.N,SWCLK*%
X106230000Y-86630000D03*
D11*
%TO.P,J4,2,Pin_2_2*%
%TO.N,GND*%
X108770000Y-86630000D03*
%TO.P,J4,3,Pin_3_3*%
%TO.N,SWD*%
X111310000Y-86630000D03*
%TD*%
D10*
%TO.P,J3,1,Pin_1_1*%
%TO.N,VBUS*%
X117680000Y-38590000D03*
D11*
%TO.P,J3,2,Pin_2_2*%
%TO.N,GPIO29_ADC3*%
X117680000Y-41130000D03*
%TO.P,J3,3,Pin_3_3*%
%TO.N,GND*%
X117680000Y-43670000D03*
%TO.P,J3,4,Pin_4_4*%
%TO.N,GPIO28_ADC2*%
X117680000Y-46210000D03*
%TO.P,J3,5,Pin_5_5*%
%TO.N,+3V3*%
X117680000Y-48750000D03*
%TO.P,J3,6,Pin_6_6*%
%TO.N,GPIO27_ADC1*%
X117680000Y-51290000D03*
%TO.P,J3,7,Pin_7_7*%
%TO.N,GPIO26_ADC0*%
X117680000Y-53830000D03*
%TO.P,J3,8,Pin_8_8*%
%TO.N,GND*%
X117680000Y-56370000D03*
%TO.P,J3,9,Pin_9_9*%
%TO.N,GPIO24*%
X117680000Y-58910000D03*
%TO.P,J3,10,Pin_10_10*%
%TO.N,GPIO23*%
X117680000Y-61450000D03*
%TO.P,J3,11,Pin_11_11*%
%TO.N,RUN*%
X117680000Y-63990000D03*
%TO.P,J3,12,Pin_12_12*%
%TO.N,GPIO22*%
X117680000Y-66530000D03*
%TO.P,J3,13,Pin_13_13*%
%TO.N,GND*%
X117680000Y-69070000D03*
%TO.P,J3,14,Pin_14_14*%
%TO.N,GPIO21*%
X117680000Y-71610000D03*
%TO.P,J3,15,Pin_15_15*%
%TO.N,GPIO20*%
X117680000Y-74150000D03*
%TO.P,J3,16,Pin_16_16*%
%TO.N,GPIO19*%
X117680000Y-76690000D03*
%TO.P,J3,17,Pin_17_17*%
%TO.N,GPIO18*%
X117680000Y-79230000D03*
%TO.P,J3,18,Pin_18_18*%
%TO.N,GND*%
X117680000Y-81770000D03*
%TO.P,J3,19,Pin_19_19*%
%TO.N,GPIO17*%
X117680000Y-84310000D03*
%TO.P,J3,20,Pin_20_20*%
%TO.N,GPIO16*%
X117680000Y-86850000D03*
%TD*%
D14*
%TO.N,GND*%
X108938909Y-79261091D03*
X105350000Y-80650000D03*
%TO.N,GPIO25*%
X108890000Y-77830000D03*
X111332713Y-67034271D03*
%TO.N,GND*%
X107780141Y-69421425D03*
X104270000Y-58925000D03*
X108830000Y-72810000D03*
X104845001Y-60872818D03*
X113650388Y-63440001D03*
X104726999Y-62377000D03*
X108780000Y-66730000D03*
X109018909Y-47961091D03*
X107170000Y-74130000D03*
X102081000Y-68409000D03*
X112280000Y-61190000D03*
X105586357Y-47113643D03*
%TO.N,+3V3*%
X107990000Y-47710000D03*
X111281000Y-67820000D03*
X108560000Y-59410000D03*
X109180000Y-62928384D03*
X106467773Y-64226706D03*
X107010000Y-59110000D03*
X111107236Y-64116523D03*
X108780000Y-68830002D03*
%TO.N,+1V1*%
X111680000Y-60430000D03*
X110180127Y-64230000D03*
%TO.N,GPIO0*%
X102362473Y-59121879D03*
X104176999Y-64255273D03*
X103170000Y-57024909D03*
%TO.N,GPIO1*%
X102223000Y-58384961D03*
X103626999Y-64840643D03*
X102700000Y-55270000D03*
%TO.N,GPIO2*%
X102925000Y-62260023D03*
X102223000Y-54400000D03*
X102223000Y-57634958D03*
%TO.N,RUN*%
X110478870Y-69345739D03*
%TD*%
%TO.N,GND*%
D15*
X108938909Y-79261091D02*
X107550000Y-80650000D01*
X107550000Y-80650000D02*
X105350000Y-80650000D01*
%TO.N,GPIO25*%
X109510000Y-77830000D02*
X108890000Y-77830000D01*
X112070000Y-75270000D02*
X109510000Y-77830000D01*
X111332713Y-67034271D02*
X112070000Y-67771558D01*
X112070000Y-67771558D02*
X112070000Y-75270000D01*
%TO.N,GND*%
X105586357Y-47113643D02*
X104450000Y-45977286D01*
X113650388Y-63440001D02*
X112280000Y-62069613D01*
X102081000Y-68409000D02*
X101420000Y-69070000D01*
X104845001Y-60495767D02*
X108970768Y-56370000D01*
X107780141Y-67729859D02*
X108780000Y-66730000D01*
X112280000Y-62069613D02*
X112280000Y-61190000D01*
X104726999Y-62377000D02*
X104726999Y-60990820D01*
X102870000Y-59950000D02*
X103792818Y-60872818D01*
X103792818Y-60872818D02*
X104845001Y-60872818D01*
X104450000Y-45977286D02*
X104450000Y-42850000D01*
X102913473Y-57546199D02*
X102913473Y-59906527D01*
X107170000Y-74130000D02*
X107510000Y-74130000D01*
X101420000Y-69070000D02*
X99870000Y-69070000D01*
X104845001Y-60872818D02*
X104845001Y-60495767D01*
X101737274Y-56370000D02*
X102913473Y-57546199D01*
X107780141Y-69421425D02*
X107780141Y-67729859D01*
X104726999Y-60990820D02*
X104845001Y-60872818D01*
X108127818Y-47070000D02*
X105630000Y-47070000D01*
X109018909Y-47961091D02*
X108127818Y-47070000D01*
X102913473Y-59906527D02*
X102870000Y-59950000D01*
X108970768Y-56370000D02*
X117680000Y-56370000D01*
X104270000Y-58925000D02*
X104270000Y-60297817D01*
X107510000Y-74130000D02*
X108830000Y-72810000D01*
X104270000Y-60297817D02*
X104845001Y-60872818D01*
X105630000Y-47070000D02*
X105586357Y-47113643D01*
X99870000Y-56370000D02*
X101737274Y-56370000D01*
%TO.N,+3V3*%
X107881678Y-64226706D02*
X106467773Y-64226706D01*
X109180000Y-62928384D02*
X107881678Y-64226706D01*
X109180000Y-64079816D02*
X109931184Y-64831000D01*
X111281000Y-67820000D02*
X110270998Y-68830002D01*
X108560000Y-62308384D02*
X108560000Y-59410000D01*
X109070000Y-48780000D02*
X109100000Y-48750000D01*
X109931184Y-64831000D02*
X110429070Y-64831000D01*
X110270998Y-68830002D02*
X108780000Y-68830002D01*
X107010000Y-59110000D02*
X108260000Y-59110000D01*
X109060000Y-48780000D02*
X107990000Y-47710000D01*
X110429070Y-64831000D02*
X111107236Y-64152834D01*
X108260000Y-59110000D02*
X108560000Y-59410000D01*
X109180000Y-62928384D02*
X109180000Y-64079816D01*
X109180000Y-62928384D02*
X108560000Y-62308384D01*
X109100000Y-48750000D02*
X117680000Y-48750000D01*
X111107236Y-64152834D02*
X111107236Y-64116523D01*
X109060000Y-48780000D02*
X109070000Y-48780000D01*
%TO.N,+1V1*%
X110180127Y-61736996D02*
X111388562Y-60528562D01*
X111388562Y-60528562D02*
X111487123Y-60430000D01*
X110180127Y-64230000D02*
X110180127Y-61736996D01*
X111487124Y-60430000D02*
X111680000Y-60430000D01*
X111388562Y-60528562D02*
X111487124Y-60430000D01*
%TO.N,GPIO0*%
X101673000Y-52574380D02*
X103251000Y-54152379D01*
X103977999Y-62037401D02*
X103298620Y-61358023D01*
X104176999Y-64255273D02*
X104176999Y-62236402D01*
X103298620Y-61358023D02*
X103045388Y-61358023D01*
X99870000Y-38590000D02*
X101673000Y-40393000D01*
X103251000Y-56943909D02*
X103170000Y-57024909D01*
X103251000Y-54152379D02*
X103251000Y-56943909D01*
X104176999Y-62236402D02*
X103977999Y-62037401D01*
X101673000Y-59811352D02*
X102362473Y-59121879D01*
X103045388Y-61358023D02*
X101673000Y-59985635D01*
X101673000Y-40393000D02*
X101673000Y-52574380D01*
X101673000Y-59985635D02*
X101673000Y-59811352D01*
%TO.N,GPIO1*%
X102900000Y-61709023D02*
X101322000Y-60131023D01*
X101322000Y-42582000D02*
X99870000Y-41130000D01*
X101322000Y-60131023D02*
X101322000Y-59285961D01*
X103153232Y-61709023D02*
X102900000Y-61709023D01*
X101370232Y-52768000D02*
X101322000Y-52768000D01*
X103626999Y-64840643D02*
X103626999Y-62182790D01*
X102774000Y-54171768D02*
X101370232Y-52768000D01*
X101322000Y-59285961D02*
X102223000Y-58384961D01*
X103626999Y-62182790D02*
X103153232Y-61709023D01*
X101322000Y-52768000D02*
X101322000Y-42582000D01*
X102774000Y-55196000D02*
X102774000Y-54171768D01*
X102700000Y-55270000D02*
X102774000Y-55196000D01*
%TO.N,GPIO2*%
X100930000Y-53330000D02*
X100927050Y-53330000D01*
X100971000Y-47311000D02*
X100971000Y-53289000D01*
X100927050Y-53330000D02*
X101997050Y-54400000D01*
X100971000Y-58857729D02*
X102193771Y-57634958D01*
X101997050Y-54400000D02*
X102223000Y-54400000D01*
X102925000Y-62260023D02*
X100971000Y-60306023D01*
X102193771Y-57634958D02*
X102223000Y-57634958D01*
X100971000Y-53289000D02*
X100930000Y-53330000D01*
X100971000Y-60306023D02*
X100971000Y-58857729D01*
X99870000Y-46210000D02*
X100971000Y-47311000D01*
%TO.N,RUN*%
X117680000Y-63990000D02*
X112245120Y-63990000D01*
X108551768Y-69381002D02*
X110443607Y-69381002D01*
X108229000Y-69058234D02*
X108551768Y-69381002D01*
X112245120Y-63990000D02*
X109610000Y-66625120D01*
X109610000Y-66625120D02*
X109610000Y-67760000D01*
X109610000Y-67760000D02*
X109070770Y-67760000D01*
X110443607Y-69381002D02*
X110478870Y-69345739D01*
X108229000Y-68601770D02*
X108229000Y-69058234D01*
X109070770Y-67760000D02*
X108229000Y-68601770D01*
%TD*%
%TA.AperFunction,Conductor*%
%TO.N,GND*%
G36*
X103513956Y-37750185D02*
G01*
X103559711Y-37802989D01*
X103569655Y-37872147D01*
X103561478Y-37901952D01*
X103488430Y-38078306D01*
X103488427Y-38078318D01*
X103450000Y-38271504D01*
X103450000Y-38420000D01*
X104150000Y-38420000D01*
X104150000Y-38920000D01*
X103450000Y-38920000D01*
X103450000Y-39068495D01*
X103488427Y-39261681D01*
X103488430Y-39261693D01*
X103563807Y-39443671D01*
X103563814Y-39443684D01*
X103673248Y-39607462D01*
X103673251Y-39607466D01*
X103812533Y-39746748D01*
X103812537Y-39746751D01*
X103976315Y-39856185D01*
X103976328Y-39856192D01*
X104158308Y-39931569D01*
X104200000Y-39939862D01*
X104200000Y-39136988D01*
X104209940Y-39154205D01*
X104265795Y-39210060D01*
X104334204Y-39249556D01*
X104410504Y-39270000D01*
X104489496Y-39270000D01*
X104565796Y-39249556D01*
X104634205Y-39210060D01*
X104690060Y-39154205D01*
X104700000Y-39136988D01*
X104700000Y-39939862D01*
X104741690Y-39931569D01*
X104741692Y-39931569D01*
X104923671Y-39856192D01*
X104923684Y-39856185D01*
X105087462Y-39746751D01*
X105087466Y-39746748D01*
X105226748Y-39607466D01*
X105226751Y-39607462D01*
X105336185Y-39443684D01*
X105336192Y-39443671D01*
X105411569Y-39261693D01*
X105411572Y-39261681D01*
X105449999Y-39068495D01*
X105450000Y-39068492D01*
X105450000Y-38920000D01*
X104750000Y-38920000D01*
X104750000Y-38420000D01*
X105450000Y-38420000D01*
X105450000Y-38271508D01*
X105449999Y-38271504D01*
X105411572Y-38078318D01*
X105411569Y-38078306D01*
X105338522Y-37901952D01*
X105331053Y-37832483D01*
X105362329Y-37770004D01*
X105422418Y-37734352D01*
X105453083Y-37730500D01*
X116555500Y-37730500D01*
X116622539Y-37750185D01*
X116668294Y-37802989D01*
X116679500Y-37854500D01*
X116679500Y-39454820D01*
X116679500Y-39454822D01*
X116679499Y-39454822D01*
X116688231Y-39498717D01*
X116688232Y-39498721D01*
X116688233Y-39498722D01*
X116721496Y-39548504D01*
X116771278Y-39581767D01*
X116771281Y-39581767D01*
X116771282Y-39581768D01*
X116815177Y-39590500D01*
X116815180Y-39590500D01*
X118544822Y-39590500D01*
X118588717Y-39581768D01*
X118588717Y-39581767D01*
X118588722Y-39581767D01*
X118588726Y-39581764D01*
X118600002Y-39577094D01*
X118600695Y-39578768D01*
X118653281Y-39562300D01*
X118720662Y-39580782D01*
X118767355Y-39632759D01*
X118779500Y-39686280D01*
X118779500Y-40565891D01*
X118759815Y-40632930D01*
X118707011Y-40678685D01*
X118637853Y-40688629D01*
X118574297Y-40659604D01*
X118552398Y-40634782D01*
X118457139Y-40492218D01*
X118457136Y-40492214D01*
X118317785Y-40352863D01*
X118317781Y-40352860D01*
X118153920Y-40243371D01*
X118153907Y-40243364D01*
X117971839Y-40167950D01*
X117971829Y-40167947D01*
X117778543Y-40129500D01*
X117778541Y-40129500D01*
X117581459Y-40129500D01*
X117581457Y-40129500D01*
X117388170Y-40167947D01*
X117388160Y-40167950D01*
X117206092Y-40243364D01*
X117206079Y-40243371D01*
X117042218Y-40352860D01*
X117042214Y-40352863D01*
X116902863Y-40492214D01*
X116902860Y-40492218D01*
X116793371Y-40656079D01*
X116793364Y-40656092D01*
X116717950Y-40838160D01*
X116717947Y-40838170D01*
X116679500Y-41031456D01*
X116679500Y-41031459D01*
X116679500Y-41228541D01*
X116679500Y-41228543D01*
X116679499Y-41228543D01*
X116717947Y-41421829D01*
X116717950Y-41421839D01*
X116793364Y-41603907D01*
X116793371Y-41603920D01*
X116902860Y-41767781D01*
X116902863Y-41767785D01*
X117042214Y-41907136D01*
X117042218Y-41907139D01*
X117206079Y-42016628D01*
X117206092Y-42016635D01*
X117388160Y-42092049D01*
X117388165Y-42092051D01*
X117408491Y-42096094D01*
X117427381Y-42099852D01*
X117489292Y-42132237D01*
X117523866Y-42192952D01*
X117520127Y-42262722D01*
X117479261Y-42319394D01*
X117422589Y-42343942D01*
X117363870Y-42353242D01*
X117363869Y-42353242D01*
X117161782Y-42418904D01*
X116972439Y-42515380D01*
X116918282Y-42554727D01*
X116918282Y-42554728D01*
X117550591Y-43187037D01*
X117487007Y-43204075D01*
X117372993Y-43269901D01*
X117279901Y-43362993D01*
X117214075Y-43477007D01*
X117197037Y-43540591D01*
X116564728Y-42908282D01*
X116564727Y-42908282D01*
X116525380Y-42962439D01*
X116428904Y-43151782D01*
X116363242Y-43353869D01*
X116363242Y-43353872D01*
X116330000Y-43563753D01*
X116330000Y-43776246D01*
X116363242Y-43986127D01*
X116363242Y-43986130D01*
X116428904Y-44188217D01*
X116525375Y-44377550D01*
X116564728Y-44431716D01*
X117197037Y-43799408D01*
X117214075Y-43862993D01*
X117279901Y-43977007D01*
X117372993Y-44070099D01*
X117487007Y-44135925D01*
X117550590Y-44152962D01*
X116918282Y-44785269D01*
X116918282Y-44785270D01*
X116972449Y-44824624D01*
X117161782Y-44921095D01*
X117363865Y-44986755D01*
X117422587Y-44996056D01*
X117485722Y-45025985D01*
X117522654Y-45085297D01*
X117521656Y-45155159D01*
X117483047Y-45213392D01*
X117427384Y-45240147D01*
X117388167Y-45247948D01*
X117388160Y-45247950D01*
X117206092Y-45323364D01*
X117206079Y-45323371D01*
X117042218Y-45432860D01*
X117042214Y-45432863D01*
X116902863Y-45572214D01*
X116902860Y-45572218D01*
X116793371Y-45736079D01*
X116793364Y-45736092D01*
X116717950Y-45918160D01*
X116717947Y-45918170D01*
X116679500Y-46111456D01*
X116679500Y-46111459D01*
X116679500Y-46308541D01*
X116679500Y-46308543D01*
X116679499Y-46308543D01*
X116717947Y-46501829D01*
X116717950Y-46501839D01*
X116793364Y-46683907D01*
X116793371Y-46683920D01*
X116902860Y-46847781D01*
X116902863Y-46847785D01*
X117042214Y-46987136D01*
X117042218Y-46987139D01*
X117206079Y-47096628D01*
X117206092Y-47096635D01*
X117388160Y-47172049D01*
X117388165Y-47172051D01*
X117388169Y-47172051D01*
X117388170Y-47172052D01*
X117581456Y-47210500D01*
X117581459Y-47210500D01*
X117778543Y-47210500D01*
X117908582Y-47184632D01*
X117971835Y-47172051D01*
X118153914Y-47096632D01*
X118317782Y-46987139D01*
X118457139Y-46847782D01*
X118528287Y-46741302D01*
X118552398Y-46705217D01*
X118606010Y-46660412D01*
X118675335Y-46651705D01*
X118738362Y-46681859D01*
X118775082Y-46741302D01*
X118779500Y-46774108D01*
X118779500Y-48185891D01*
X118759815Y-48252930D01*
X118707011Y-48298685D01*
X118637853Y-48308629D01*
X118574297Y-48279604D01*
X118552398Y-48254782D01*
X118457139Y-48112218D01*
X118457136Y-48112214D01*
X118317785Y-47972863D01*
X118317781Y-47972860D01*
X118153920Y-47863371D01*
X118153907Y-47863364D01*
X117971839Y-47787950D01*
X117971829Y-47787947D01*
X117778543Y-47749500D01*
X117778541Y-47749500D01*
X117581459Y-47749500D01*
X117581457Y-47749500D01*
X117388170Y-47787947D01*
X117388160Y-47787950D01*
X117206092Y-47863364D01*
X117206079Y-47863371D01*
X117042218Y-47972860D01*
X117042214Y-47972863D01*
X116902863Y-48112214D01*
X116902860Y-48112218D01*
X116793371Y-48276079D01*
X116793364Y-48276091D01*
X116732535Y-48422952D01*
X116688695Y-48477356D01*
X116622401Y-48499421D01*
X116617974Y-48499500D01*
X109185122Y-48499500D01*
X109118083Y-48479815D01*
X109097441Y-48463181D01*
X108476819Y-47842558D01*
X108443334Y-47781235D01*
X108440500Y-47754877D01*
X108440500Y-47650693D01*
X108440500Y-47650691D01*
X108409799Y-47536114D01*
X108350489Y-47433387D01*
X108266613Y-47349511D01*
X108163886Y-47290201D01*
X108049309Y-47259500D01*
X107930691Y-47259500D01*
X107816114Y-47290201D01*
X107816112Y-47290201D01*
X107816112Y-47290202D01*
X107713387Y-47349511D01*
X107713384Y-47349513D01*
X107629513Y-47433384D01*
X107629511Y-47433387D01*
X107570201Y-47536114D01*
X107539500Y-47650691D01*
X107539500Y-47769309D01*
X107570201Y-47883886D01*
X107629511Y-47986613D01*
X107713387Y-48070489D01*
X107816114Y-48129799D01*
X107930691Y-48160500D01*
X107930694Y-48160500D01*
X108034877Y-48160500D01*
X108101916Y-48180185D01*
X108122558Y-48196819D01*
X108847635Y-48921895D01*
X108847636Y-48921897D01*
X108918103Y-48992364D01*
X108956240Y-49008160D01*
X109010173Y-49030501D01*
X109010174Y-49030501D01*
X109104690Y-49030501D01*
X109109828Y-49030501D01*
X109109830Y-49030500D01*
X109119828Y-49030500D01*
X109174033Y-49008047D01*
X109178720Y-49006530D01*
X109187871Y-49006277D01*
X109216919Y-49000500D01*
X116617974Y-49000500D01*
X116685013Y-49020185D01*
X116730768Y-49072989D01*
X116732535Y-49077048D01*
X116793364Y-49223908D01*
X116793371Y-49223920D01*
X116902860Y-49387781D01*
X116902863Y-49387785D01*
X117042214Y-49527136D01*
X117042218Y-49527139D01*
X117206079Y-49636628D01*
X117206092Y-49636635D01*
X117388160Y-49712049D01*
X117388165Y-49712051D01*
X117388169Y-49712051D01*
X117388170Y-49712052D01*
X117581456Y-49750500D01*
X117581459Y-49750500D01*
X117778543Y-49750500D01*
X117908582Y-49724632D01*
X117971835Y-49712051D01*
X118153914Y-49636632D01*
X118317782Y-49527139D01*
X118457139Y-49387782D01*
X118540424Y-49263137D01*
X118552398Y-49245217D01*
X118606010Y-49200412D01*
X118675335Y-49191705D01*
X118738362Y-49221859D01*
X118775082Y-49281302D01*
X118779500Y-49314108D01*
X118779500Y-50725891D01*
X118759815Y-50792930D01*
X118707011Y-50838685D01*
X118637853Y-50848629D01*
X118574297Y-50819604D01*
X118552398Y-50794782D01*
X118457139Y-50652218D01*
X118457136Y-50652214D01*
X118317785Y-50512863D01*
X118317781Y-50512860D01*
X118153920Y-50403371D01*
X118153907Y-50403364D01*
X117971839Y-50327950D01*
X117971829Y-50327947D01*
X117778543Y-50289500D01*
X117778541Y-50289500D01*
X117581459Y-50289500D01*
X117581457Y-50289500D01*
X117388170Y-50327947D01*
X117388160Y-50327950D01*
X117206092Y-50403364D01*
X117206079Y-50403371D01*
X117042218Y-50512860D01*
X117042214Y-50512863D01*
X116902863Y-50652214D01*
X116902860Y-50652218D01*
X116793371Y-50816079D01*
X116793364Y-50816092D01*
X116717950Y-50998160D01*
X116717947Y-50998170D01*
X116679500Y-51191456D01*
X116679500Y-51191459D01*
X116679500Y-51388541D01*
X116679500Y-51388543D01*
X116679499Y-51388543D01*
X116717947Y-51581829D01*
X116717950Y-51581839D01*
X116793364Y-51763907D01*
X116793371Y-51763920D01*
X116902860Y-51927781D01*
X116902863Y-51927785D01*
X117042214Y-52067136D01*
X117042218Y-52067139D01*
X117206079Y-52176628D01*
X117206092Y-52176635D01*
X117388160Y-52252049D01*
X117388165Y-52252051D01*
X117388169Y-52252051D01*
X117388170Y-52252052D01*
X117581456Y-52290500D01*
X117581459Y-52290500D01*
X117778543Y-52290500D01*
X117908582Y-52264632D01*
X117971835Y-52252051D01*
X118153914Y-52176632D01*
X118317782Y-52067139D01*
X118457139Y-51927782D01*
X118530500Y-51817989D01*
X118552398Y-51785217D01*
X118606010Y-51740412D01*
X118675335Y-51731705D01*
X118738362Y-51761859D01*
X118775082Y-51821302D01*
X118779500Y-51854108D01*
X118779500Y-53265891D01*
X118759815Y-53332930D01*
X118707011Y-53378685D01*
X118637853Y-53388629D01*
X118574297Y-53359604D01*
X118552398Y-53334782D01*
X118457139Y-53192218D01*
X118457136Y-53192214D01*
X118317785Y-53052863D01*
X118317781Y-53052860D01*
X118153920Y-52943371D01*
X118153907Y-52943364D01*
X117971839Y-52867950D01*
X117971829Y-52867947D01*
X117778543Y-52829500D01*
X117778541Y-52829500D01*
X117581459Y-52829500D01*
X117581457Y-52829500D01*
X117388170Y-52867947D01*
X117388160Y-52867950D01*
X117206092Y-52943364D01*
X117206079Y-52943371D01*
X117042218Y-53052860D01*
X117042214Y-53052863D01*
X116902863Y-53192214D01*
X116902860Y-53192218D01*
X116793371Y-53356079D01*
X116793364Y-53356092D01*
X116717950Y-53538160D01*
X116717947Y-53538170D01*
X116679500Y-53731456D01*
X116679500Y-53731459D01*
X116679500Y-53928541D01*
X116679500Y-53928543D01*
X116679499Y-53928543D01*
X116717947Y-54121829D01*
X116717950Y-54121839D01*
X116793364Y-54303907D01*
X116793371Y-54303920D01*
X116902860Y-54467781D01*
X116902863Y-54467785D01*
X117042214Y-54607136D01*
X117042218Y-54607139D01*
X117206079Y-54716628D01*
X117206092Y-54716635D01*
X117388160Y-54792049D01*
X117388165Y-54792051D01*
X117388169Y-54792051D01*
X117388170Y-54792052D01*
X117581456Y-54830500D01*
X117581459Y-54830500D01*
X117778543Y-54830500D01*
X117908582Y-54804632D01*
X117971835Y-54792051D01*
X118153914Y-54716632D01*
X118317782Y-54607139D01*
X118457139Y-54467782D01*
X118528287Y-54361302D01*
X118552398Y-54325217D01*
X118606010Y-54280412D01*
X118675335Y-54271705D01*
X118738362Y-54301859D01*
X118775082Y-54361302D01*
X118779500Y-54394108D01*
X118779500Y-58345891D01*
X118759815Y-58412930D01*
X118707011Y-58458685D01*
X118637853Y-58468629D01*
X118574297Y-58439604D01*
X118552398Y-58414782D01*
X118457139Y-58272218D01*
X118457136Y-58272214D01*
X118317785Y-58132863D01*
X118317781Y-58132860D01*
X118153920Y-58023371D01*
X118153907Y-58023364D01*
X117971839Y-57947950D01*
X117971829Y-57947947D01*
X117778543Y-57909500D01*
X117778541Y-57909500D01*
X117581459Y-57909500D01*
X117581457Y-57909500D01*
X117388170Y-57947947D01*
X117388160Y-57947950D01*
X117206092Y-58023364D01*
X117206079Y-58023371D01*
X117042218Y-58132860D01*
X117042214Y-58132863D01*
X116902863Y-58272214D01*
X116902860Y-58272218D01*
X116793371Y-58436079D01*
X116793364Y-58436092D01*
X116717950Y-58618160D01*
X116717947Y-58618170D01*
X116679500Y-58811456D01*
X116679500Y-58811459D01*
X116679500Y-59008541D01*
X116679500Y-59008543D01*
X116679499Y-59008543D01*
X116717947Y-59201829D01*
X116717950Y-59201839D01*
X116793364Y-59383907D01*
X116793371Y-59383920D01*
X116902860Y-59547781D01*
X116902863Y-59547785D01*
X117042214Y-59687136D01*
X117042218Y-59687139D01*
X117206079Y-59796628D01*
X117206092Y-59796635D01*
X117388160Y-59872049D01*
X117388165Y-59872051D01*
X117388169Y-59872051D01*
X117388170Y-59872052D01*
X117581456Y-59910500D01*
X117581459Y-59910500D01*
X117778543Y-59910500D01*
X117908582Y-59884632D01*
X117971835Y-59872051D01*
X118153914Y-59796632D01*
X118317782Y-59687139D01*
X118457139Y-59547782D01*
X118506366Y-59474108D01*
X118552398Y-59405217D01*
X118606010Y-59360412D01*
X118675335Y-59351705D01*
X118738362Y-59381859D01*
X118775082Y-59441302D01*
X118779500Y-59474108D01*
X118779500Y-60885891D01*
X118759815Y-60952930D01*
X118707011Y-60998685D01*
X118637853Y-61008629D01*
X118574297Y-60979604D01*
X118552398Y-60954782D01*
X118457139Y-60812218D01*
X118457136Y-60812214D01*
X118317785Y-60672863D01*
X118317781Y-60672860D01*
X118153920Y-60563371D01*
X118153907Y-60563364D01*
X117971839Y-60487950D01*
X117971829Y-60487947D01*
X117778543Y-60449500D01*
X117778541Y-60449500D01*
X117581459Y-60449500D01*
X117581457Y-60449500D01*
X117388170Y-60487947D01*
X117388160Y-60487950D01*
X117206092Y-60563364D01*
X117206079Y-60563371D01*
X117042218Y-60672860D01*
X117042214Y-60672863D01*
X116902863Y-60812214D01*
X116902860Y-60812218D01*
X116793371Y-60976079D01*
X116793364Y-60976092D01*
X116717950Y-61158160D01*
X116717947Y-61158170D01*
X116679500Y-61351456D01*
X116679500Y-61351459D01*
X116679500Y-61548541D01*
X116679500Y-61548543D01*
X116679499Y-61548543D01*
X116717947Y-61741829D01*
X116717950Y-61741839D01*
X116793364Y-61923907D01*
X116793371Y-61923920D01*
X116902860Y-62087781D01*
X116902863Y-62087785D01*
X117042214Y-62227136D01*
X117042218Y-62227139D01*
X117206079Y-62336628D01*
X117206092Y-62336635D01*
X117388160Y-62412049D01*
X117388165Y-62412051D01*
X117388169Y-62412051D01*
X117388170Y-62412052D01*
X117581456Y-62450500D01*
X117581459Y-62450500D01*
X117778543Y-62450500D01*
X117908582Y-62424632D01*
X117971835Y-62412051D01*
X118153914Y-62336632D01*
X118317782Y-62227139D01*
X118457139Y-62087782D01*
X118528287Y-61981302D01*
X118552398Y-61945217D01*
X118606010Y-61900412D01*
X118675335Y-61891705D01*
X118738362Y-61921859D01*
X118775082Y-61981302D01*
X118779500Y-62014108D01*
X118779500Y-63425891D01*
X118759815Y-63492930D01*
X118707011Y-63538685D01*
X118637853Y-63548629D01*
X118574297Y-63519604D01*
X118552398Y-63494782D01*
X118457139Y-63352218D01*
X118457136Y-63352214D01*
X118317785Y-63212863D01*
X118317781Y-63212860D01*
X118153920Y-63103371D01*
X118153907Y-63103364D01*
X117971839Y-63027950D01*
X117971829Y-63027947D01*
X117778543Y-62989500D01*
X117778541Y-62989500D01*
X117581459Y-62989500D01*
X117581457Y-62989500D01*
X117388170Y-63027947D01*
X117388160Y-63027950D01*
X117206092Y-63103364D01*
X117206079Y-63103371D01*
X117042218Y-63212860D01*
X117042214Y-63212863D01*
X116902863Y-63352214D01*
X116902860Y-63352218D01*
X116793371Y-63516079D01*
X116793364Y-63516091D01*
X116732535Y-63662952D01*
X116688695Y-63717356D01*
X116622401Y-63739421D01*
X116617974Y-63739500D01*
X112195290Y-63739500D01*
X112103222Y-63777636D01*
X111765797Y-64115061D01*
X111704474Y-64148546D01*
X111634782Y-64143562D01*
X111578849Y-64101690D01*
X111558341Y-64059474D01*
X111557736Y-64057216D01*
X111557736Y-64057214D01*
X111527035Y-63942637D01*
X111467725Y-63839910D01*
X111383849Y-63756034D01*
X111281122Y-63696724D01*
X111166545Y-63666023D01*
X111047927Y-63666023D01*
X110933350Y-63696724D01*
X110933348Y-63696724D01*
X110933348Y-63696725D01*
X110830623Y-63756034D01*
X110830620Y-63756036D01*
X110746749Y-63839907D01*
X110746745Y-63839913D01*
X110710560Y-63902585D01*
X110659992Y-63950800D01*
X110591385Y-63964021D01*
X110526520Y-63938052D01*
X110515492Y-63928263D01*
X110466945Y-63879715D01*
X110433461Y-63818392D01*
X110430627Y-63792035D01*
X110430627Y-61892118D01*
X110450312Y-61825079D01*
X110466946Y-61804437D01*
X110919927Y-61351456D01*
X111388827Y-60882556D01*
X111450148Y-60849073D01*
X111508595Y-60850463D01*
X111620691Y-60880500D01*
X111620694Y-60880500D01*
X111739306Y-60880500D01*
X111739309Y-60880500D01*
X111853886Y-60849799D01*
X111956613Y-60790489D01*
X112040489Y-60706613D01*
X112099799Y-60603886D01*
X112130500Y-60489309D01*
X112130500Y-60370691D01*
X112099799Y-60256114D01*
X112040489Y-60153387D01*
X111956613Y-60069511D01*
X111853886Y-60010201D01*
X111739309Y-59979500D01*
X111620691Y-59979500D01*
X111506114Y-60010201D01*
X111506112Y-60010201D01*
X111506112Y-60010202D01*
X111403387Y-60069511D01*
X111403384Y-60069513D01*
X111319513Y-60153384D01*
X111319511Y-60153387D01*
X111260200Y-60256114D01*
X111251761Y-60287609D01*
X111219668Y-60343193D01*
X110020788Y-61542072D01*
X110020789Y-61542073D01*
X109967763Y-61595099D01*
X109929627Y-61687166D01*
X109929627Y-63792035D01*
X109909942Y-63859074D01*
X109893309Y-63879716D01*
X109819638Y-63953387D01*
X109760325Y-64056118D01*
X109758190Y-64061274D01*
X109714350Y-64115678D01*
X109648056Y-64137743D01*
X109580356Y-64120464D01*
X109555948Y-64101503D01*
X109466819Y-64012374D01*
X109433334Y-63951051D01*
X109430500Y-63924693D01*
X109430500Y-63366348D01*
X109450185Y-63299309D01*
X109466819Y-63278667D01*
X109540489Y-63204997D01*
X109599799Y-63102270D01*
X109630500Y-62987693D01*
X109630500Y-62869075D01*
X109599799Y-62754498D01*
X109540489Y-62651771D01*
X109456613Y-62567895D01*
X109353886Y-62508585D01*
X109239309Y-62477884D01*
X109135123Y-62477884D01*
X109068084Y-62458199D01*
X109047442Y-62441565D01*
X108846819Y-62240942D01*
X108813334Y-62179619D01*
X108810500Y-62153261D01*
X108810500Y-59847964D01*
X108830185Y-59780925D01*
X108846819Y-59760283D01*
X108920489Y-59686613D01*
X108979799Y-59583886D01*
X109010500Y-59469309D01*
X109010500Y-59350691D01*
X108979799Y-59236114D01*
X108920489Y-59133387D01*
X108836613Y-59049511D01*
X108733886Y-58990201D01*
X108619309Y-58959500D01*
X108515123Y-58959500D01*
X108448084Y-58939815D01*
X108427442Y-58923181D01*
X108401897Y-58897636D01*
X108309829Y-58859500D01*
X108309828Y-58859500D01*
X107447964Y-58859500D01*
X107380925Y-58839815D01*
X107360283Y-58823181D01*
X107286615Y-58749513D01*
X107286613Y-58749511D01*
X107183886Y-58690201D01*
X107069309Y-58659500D01*
X106950691Y-58659500D01*
X106836114Y-58690201D01*
X106836112Y-58690201D01*
X106836112Y-58690202D01*
X106733387Y-58749511D01*
X106733384Y-58749513D01*
X106649513Y-58833384D01*
X106649511Y-58833387D01*
X106634435Y-58859500D01*
X106590201Y-58936114D01*
X106559500Y-59050691D01*
X106559500Y-59169309D01*
X106590201Y-59283886D01*
X106649511Y-59386613D01*
X106733387Y-59470489D01*
X106836114Y-59529799D01*
X106950691Y-59560500D01*
X106950694Y-59560500D01*
X107069306Y-59560500D01*
X107069309Y-59560500D01*
X107183886Y-59529799D01*
X107286613Y-59470489D01*
X107360283Y-59396819D01*
X107421606Y-59363334D01*
X107447964Y-59360500D01*
X107986430Y-59360500D01*
X108053469Y-59380185D01*
X108099224Y-59432989D01*
X108109369Y-59468311D01*
X108109500Y-59469306D01*
X108109500Y-59469309D01*
X108140201Y-59583886D01*
X108199511Y-59686613D01*
X108199513Y-59686615D01*
X108273181Y-59760283D01*
X108306666Y-59821606D01*
X108309500Y-59847964D01*
X108309500Y-62358213D01*
X108347636Y-62450281D01*
X108693181Y-62795826D01*
X108726666Y-62857149D01*
X108729500Y-62883507D01*
X108729500Y-62973261D01*
X108709815Y-63040300D01*
X108693181Y-63060942D01*
X107814236Y-63939887D01*
X107752913Y-63973372D01*
X107726555Y-63976206D01*
X106905737Y-63976206D01*
X106838698Y-63956521D01*
X106818056Y-63939887D01*
X106744388Y-63866219D01*
X106744386Y-63866217D01*
X106641659Y-63806907D01*
X106527082Y-63776206D01*
X106408464Y-63776206D01*
X106293887Y-63806907D01*
X106293885Y-63806907D01*
X106293885Y-63806908D01*
X106191160Y-63866217D01*
X106191157Y-63866219D01*
X106107286Y-63950090D01*
X106107284Y-63950093D01*
X106092208Y-63976206D01*
X106047974Y-64052820D01*
X106017273Y-64167397D01*
X106017273Y-64286015D01*
X106047974Y-64400592D01*
X106107284Y-64503319D01*
X106191160Y-64587195D01*
X106293887Y-64646505D01*
X106408464Y-64677206D01*
X106408467Y-64677206D01*
X106527079Y-64677206D01*
X106527082Y-64677206D01*
X106641659Y-64646505D01*
X106744386Y-64587195D01*
X106818056Y-64513525D01*
X106879379Y-64480040D01*
X106905737Y-64477206D01*
X107931504Y-64477206D01*
X107931506Y-64477206D01*
X108023575Y-64439070D01*
X108717819Y-63744824D01*
X108779142Y-63711340D01*
X108848833Y-63716324D01*
X108904767Y-63758195D01*
X108929184Y-63823660D01*
X108929500Y-63832506D01*
X108929500Y-64129645D01*
X108956970Y-64195964D01*
X108967636Y-64221713D01*
X109718819Y-64972895D01*
X109718820Y-64972897D01*
X109789287Y-65043364D01*
X109827424Y-65059160D01*
X109881357Y-65081501D01*
X109881358Y-65081501D01*
X109995446Y-65081501D01*
X109995454Y-65081500D01*
X110491111Y-65081500D01*
X110491111Y-65082849D01*
X110547597Y-65087901D01*
X110602776Y-65130760D01*
X110626025Y-65196649D01*
X110609961Y-65264647D01*
X110589884Y-65290974D01*
X109468103Y-66412756D01*
X109397637Y-66483221D01*
X109397636Y-66483222D01*
X109359500Y-66575290D01*
X109359500Y-67385500D01*
X109339815Y-67452539D01*
X109287011Y-67498294D01*
X109235500Y-67509500D01*
X109135040Y-67509500D01*
X109135032Y-67509499D01*
X109120598Y-67509499D01*
X109020943Y-67509499D01*
X108993037Y-67521057D01*
X108993038Y-67521058D01*
X108939139Y-67543384D01*
X108928871Y-67547637D01*
X108858406Y-67618103D01*
X108858405Y-67618104D01*
X108466009Y-68010500D01*
X108069662Y-68406846D01*
X108069661Y-68406846D01*
X108069662Y-68406847D01*
X108016636Y-68459873D01*
X107978500Y-68551940D01*
X107978500Y-69108063D01*
X108016636Y-69200131D01*
X108332333Y-69515827D01*
X108332336Y-69515831D01*
X108339404Y-69522899D01*
X108409871Y-69593366D01*
X108501940Y-69631502D01*
X108601596Y-69631502D01*
X110076169Y-69631502D01*
X110143208Y-69651187D01*
X110163850Y-69667821D01*
X110202257Y-69706228D01*
X110304984Y-69765538D01*
X110419561Y-69796239D01*
X110419564Y-69796239D01*
X110538176Y-69796239D01*
X110538179Y-69796239D01*
X110652756Y-69765538D01*
X110755483Y-69706228D01*
X110839359Y-69622352D01*
X110898669Y-69519625D01*
X110929370Y-69405048D01*
X110929370Y-69286430D01*
X110898669Y-69171853D01*
X110839359Y-69069126D01*
X110755483Y-68985250D01*
X110742093Y-68977519D01*
X110714447Y-68961557D01*
X110666232Y-68910989D01*
X110653011Y-68842382D01*
X110678980Y-68777518D01*
X110688760Y-68766498D01*
X111148440Y-68306819D01*
X111209763Y-68273334D01*
X111236121Y-68270500D01*
X111340306Y-68270500D01*
X111340309Y-68270500D01*
X111454886Y-68239799D01*
X111557613Y-68180489D01*
X111607819Y-68130283D01*
X111669142Y-68096798D01*
X111738834Y-68101782D01*
X111794767Y-68143654D01*
X111819184Y-68209118D01*
X111819500Y-68217964D01*
X111819500Y-75114877D01*
X111799815Y-75181916D01*
X111783181Y-75202558D01*
X109442558Y-77543181D01*
X109381235Y-77576666D01*
X109354877Y-77579500D01*
X109327964Y-77579500D01*
X109260925Y-77559815D01*
X109240283Y-77543181D01*
X109166615Y-77469513D01*
X109166613Y-77469511D01*
X109063886Y-77410201D01*
X108949309Y-77379500D01*
X108830691Y-77379500D01*
X108716114Y-77410201D01*
X108716112Y-77410201D01*
X108716112Y-77410202D01*
X108613387Y-77469511D01*
X108613384Y-77469513D01*
X108529513Y-77553384D01*
X108529511Y-77553387D01*
X108514435Y-77579500D01*
X108470201Y-77656114D01*
X108439500Y-77770691D01*
X108439500Y-77889309D01*
X108470201Y-78003886D01*
X108529511Y-78106613D01*
X108613387Y-78190489D01*
X108716114Y-78249799D01*
X108830691Y-78280500D01*
X108830694Y-78280500D01*
X108949306Y-78280500D01*
X108949309Y-78280500D01*
X109063886Y-78249799D01*
X109166613Y-78190489D01*
X109240283Y-78116819D01*
X109301606Y-78083334D01*
X109327964Y-78080500D01*
X109559826Y-78080500D01*
X109559828Y-78080500D01*
X109651897Y-78042364D01*
X112211895Y-75482364D01*
X112211897Y-75482364D01*
X112282364Y-75411897D01*
X112298160Y-75373760D01*
X112320501Y-75319827D01*
X112320501Y-75220172D01*
X112320501Y-75210183D01*
X112320500Y-75210169D01*
X112320500Y-67721731D01*
X112320499Y-67721728D01*
X112289178Y-67646112D01*
X112282364Y-67629661D01*
X112211897Y-67559194D01*
X111819532Y-67166829D01*
X111786047Y-67105506D01*
X111783213Y-67079148D01*
X111783213Y-66974964D01*
X111783213Y-66974962D01*
X111752512Y-66860385D01*
X111693202Y-66757658D01*
X111609326Y-66673782D01*
X111506599Y-66614472D01*
X111392022Y-66583771D01*
X111273404Y-66583771D01*
X111158827Y-66614472D01*
X111158825Y-66614472D01*
X111158825Y-66614473D01*
X111056100Y-66673782D01*
X111056097Y-66673784D01*
X110972226Y-66757655D01*
X110972224Y-66757658D01*
X110935175Y-66821829D01*
X110912914Y-66860385D01*
X110882213Y-66974962D01*
X110882213Y-67093580D01*
X110912914Y-67208157D01*
X110972224Y-67310884D01*
X110972226Y-67310886D01*
X110974938Y-67313598D01*
X110976494Y-67316448D01*
X110977171Y-67317330D01*
X110977033Y-67317435D01*
X111008423Y-67374921D01*
X111003439Y-67444613D01*
X110974938Y-67488960D01*
X110920513Y-67543384D01*
X110920511Y-67543387D01*
X110861201Y-67646114D01*
X110830500Y-67760691D01*
X110830500Y-67760693D01*
X110830500Y-67864877D01*
X110810815Y-67931916D01*
X110794181Y-67952558D01*
X110203556Y-68543183D01*
X110142233Y-68576668D01*
X110115875Y-68579502D01*
X109217964Y-68579502D01*
X109150925Y-68559817D01*
X109141554Y-68553163D01*
X109135621Y-68548521D01*
X109056613Y-68469513D01*
X108972767Y-68421104D01*
X108965906Y-68415736D01*
X108950436Y-68394125D01*
X108932100Y-68374894D01*
X108930416Y-68366157D01*
X108925237Y-68358922D01*
X108923906Y-68332378D01*
X108918878Y-68306287D01*
X108922184Y-68298027D01*
X108921739Y-68289140D01*
X108934969Y-68266093D01*
X108944846Y-68241422D01*
X108954622Y-68230408D01*
X109138211Y-68046818D01*
X109199534Y-68013334D01*
X109225892Y-68010500D01*
X109659826Y-68010500D01*
X109659828Y-68010500D01*
X109751897Y-67972364D01*
X109822364Y-67901897D01*
X109860500Y-67809828D01*
X109860500Y-66780243D01*
X109880185Y-66713204D01*
X109896819Y-66692562D01*
X112312562Y-64276819D01*
X112373885Y-64243334D01*
X112400243Y-64240500D01*
X116617974Y-64240500D01*
X116685013Y-64260185D01*
X116730768Y-64312989D01*
X116732535Y-64317048D01*
X116793364Y-64463908D01*
X116793371Y-64463920D01*
X116902860Y-64627781D01*
X116902863Y-64627785D01*
X117042214Y-64767136D01*
X117042218Y-64767139D01*
X117206079Y-64876628D01*
X117206092Y-64876635D01*
X117388160Y-64952049D01*
X117388165Y-64952051D01*
X117388169Y-64952051D01*
X117388170Y-64952052D01*
X117581456Y-64990500D01*
X117581459Y-64990500D01*
X117778543Y-64990500D01*
X117930978Y-64960178D01*
X117971835Y-64952051D01*
X118153914Y-64876632D01*
X118317782Y-64767139D01*
X118457139Y-64627782D01*
X118540301Y-64503321D01*
X118552398Y-64485217D01*
X118606010Y-64440412D01*
X118675335Y-64431705D01*
X118738362Y-64461859D01*
X118775082Y-64521302D01*
X118779500Y-64554108D01*
X118779500Y-65965891D01*
X118759815Y-66032930D01*
X118707011Y-66078685D01*
X118637853Y-66088629D01*
X118574297Y-66059604D01*
X118552398Y-66034782D01*
X118457139Y-65892218D01*
X118457136Y-65892214D01*
X118317785Y-65752863D01*
X118317781Y-65752860D01*
X118153920Y-65643371D01*
X118153907Y-65643364D01*
X117971839Y-65567950D01*
X117971829Y-65567947D01*
X117778543Y-65529500D01*
X117778541Y-65529500D01*
X117581459Y-65529500D01*
X117581457Y-65529500D01*
X117388170Y-65567947D01*
X117388160Y-65567950D01*
X117206092Y-65643364D01*
X117206079Y-65643371D01*
X117042218Y-65752860D01*
X117042214Y-65752863D01*
X116902863Y-65892214D01*
X116902860Y-65892218D01*
X116793371Y-66056079D01*
X116793364Y-66056092D01*
X116717950Y-66238160D01*
X116717947Y-66238170D01*
X116679500Y-66431456D01*
X116679500Y-66431459D01*
X116679500Y-66628541D01*
X116679500Y-66628543D01*
X116679499Y-66628543D01*
X116717947Y-66821829D01*
X116717950Y-66821839D01*
X116793364Y-67003907D01*
X116793371Y-67003920D01*
X116902860Y-67167781D01*
X116902863Y-67167785D01*
X117042214Y-67307136D01*
X117042218Y-67307139D01*
X117206079Y-67416628D01*
X117206092Y-67416635D01*
X117388160Y-67492049D01*
X117388165Y-67492051D01*
X117388169Y-67492051D01*
X117388170Y-67492052D01*
X117581456Y-67530500D01*
X117581459Y-67530500D01*
X117778543Y-67530500D01*
X117908582Y-67504632D01*
X117971835Y-67492051D01*
X118153914Y-67416632D01*
X118317782Y-67307139D01*
X118457139Y-67167782D01*
X118457776Y-67166829D01*
X118552398Y-67025217D01*
X118606010Y-66980412D01*
X118675335Y-66971705D01*
X118738362Y-67001859D01*
X118775082Y-67061302D01*
X118779500Y-67094108D01*
X118779500Y-71045891D01*
X118759815Y-71112930D01*
X118707011Y-71158685D01*
X118637853Y-71168629D01*
X118574297Y-71139604D01*
X118552398Y-71114782D01*
X118457139Y-70972218D01*
X118457136Y-70972214D01*
X118317785Y-70832863D01*
X118317781Y-70832860D01*
X118153920Y-70723371D01*
X118153907Y-70723364D01*
X117971839Y-70647950D01*
X117971829Y-70647947D01*
X117778543Y-70609500D01*
X117778541Y-70609500D01*
X117581459Y-70609500D01*
X117581457Y-70609500D01*
X117388170Y-70647947D01*
X117388160Y-70647950D01*
X117206092Y-70723364D01*
X117206079Y-70723371D01*
X117042218Y-70832860D01*
X117042214Y-70832863D01*
X116902863Y-70972214D01*
X116902860Y-70972218D01*
X116793371Y-71136079D01*
X116793364Y-71136092D01*
X116717950Y-71318160D01*
X116717947Y-71318170D01*
X116679500Y-71511456D01*
X116679500Y-71511459D01*
X116679500Y-71708541D01*
X116679500Y-71708543D01*
X116679499Y-71708543D01*
X116717947Y-71901829D01*
X116717950Y-71901839D01*
X116793364Y-72083907D01*
X116793371Y-72083920D01*
X116902860Y-72247781D01*
X116902863Y-72247785D01*
X117042214Y-72387136D01*
X117042218Y-72387139D01*
X117206079Y-72496628D01*
X117206092Y-72496635D01*
X117388160Y-72572049D01*
X117388165Y-72572051D01*
X117388169Y-72572051D01*
X117388170Y-72572052D01*
X117581456Y-72610500D01*
X117581459Y-72610500D01*
X117778543Y-72610500D01*
X117908582Y-72584632D01*
X117971835Y-72572051D01*
X118153914Y-72496632D01*
X118317782Y-72387139D01*
X118457139Y-72247782D01*
X118528287Y-72141302D01*
X118552398Y-72105217D01*
X118606010Y-72060412D01*
X118675335Y-72051705D01*
X118738362Y-72081859D01*
X118775082Y-72141302D01*
X118779500Y-72174108D01*
X118779500Y-73585891D01*
X118759815Y-73652930D01*
X118707011Y-73698685D01*
X118637853Y-73708629D01*
X118574297Y-73679604D01*
X118552398Y-73654782D01*
X118457139Y-73512218D01*
X118457136Y-73512214D01*
X118317785Y-73372863D01*
X118317781Y-73372860D01*
X118153920Y-73263371D01*
X118153907Y-73263364D01*
X117971839Y-73187950D01*
X117971829Y-73187947D01*
X117778543Y-73149500D01*
X117778541Y-73149500D01*
X117581459Y-73149500D01*
X117581457Y-73149500D01*
X117388170Y-73187947D01*
X117388160Y-73187950D01*
X117206092Y-73263364D01*
X117206079Y-73263371D01*
X117042218Y-73372860D01*
X117042214Y-73372863D01*
X116902863Y-73512214D01*
X116902860Y-73512218D01*
X116793371Y-73676079D01*
X116793364Y-73676092D01*
X116717950Y-73858160D01*
X116717947Y-73858170D01*
X116679500Y-74051456D01*
X116679500Y-74051459D01*
X116679500Y-74248541D01*
X116679500Y-74248543D01*
X116679499Y-74248543D01*
X116717947Y-74441829D01*
X116717950Y-74441839D01*
X116793364Y-74623907D01*
X116793371Y-74623920D01*
X116902860Y-74787781D01*
X116902863Y-74787785D01*
X117042214Y-74927136D01*
X117042218Y-74927139D01*
X117206079Y-75036628D01*
X117206092Y-75036635D01*
X117388160Y-75112049D01*
X117388165Y-75112051D01*
X117388169Y-75112051D01*
X117388170Y-75112052D01*
X117581456Y-75150500D01*
X117581459Y-75150500D01*
X117778543Y-75150500D01*
X117908582Y-75124632D01*
X117971835Y-75112051D01*
X118153914Y-75036632D01*
X118317782Y-74927139D01*
X118457139Y-74787782D01*
X118528287Y-74681302D01*
X118552398Y-74645217D01*
X118606010Y-74600412D01*
X118675335Y-74591705D01*
X118738362Y-74621859D01*
X118775082Y-74681302D01*
X118779500Y-74714108D01*
X118779500Y-76125891D01*
X118759815Y-76192930D01*
X118707011Y-76238685D01*
X118637853Y-76248629D01*
X118574297Y-76219604D01*
X118552398Y-76194782D01*
X118457139Y-76052218D01*
X118457136Y-76052214D01*
X118317785Y-75912863D01*
X118317781Y-75912860D01*
X118153920Y-75803371D01*
X118153907Y-75803364D01*
X117971839Y-75727950D01*
X117971829Y-75727947D01*
X117778543Y-75689500D01*
X117778541Y-75689500D01*
X117581459Y-75689500D01*
X117581457Y-75689500D01*
X117388170Y-75727947D01*
X117388160Y-75727950D01*
X117206092Y-75803364D01*
X117206079Y-75803371D01*
X117042218Y-75912860D01*
X117042214Y-75912863D01*
X116902863Y-76052214D01*
X116902860Y-76052218D01*
X116793371Y-76216079D01*
X116793364Y-76216092D01*
X116717950Y-76398160D01*
X116717947Y-76398170D01*
X116679500Y-76591456D01*
X116679500Y-76591459D01*
X116679500Y-76788541D01*
X116679500Y-76788543D01*
X116679499Y-76788543D01*
X116717947Y-76981829D01*
X116717950Y-76981839D01*
X116793364Y-77163907D01*
X116793371Y-77163920D01*
X116902860Y-77327781D01*
X116902863Y-77327785D01*
X117042214Y-77467136D01*
X117042218Y-77467139D01*
X117206079Y-77576628D01*
X117206092Y-77576635D01*
X117388160Y-77652049D01*
X117388165Y-77652051D01*
X117388169Y-77652051D01*
X117388170Y-77652052D01*
X117581456Y-77690500D01*
X117581459Y-77690500D01*
X117778543Y-77690500D01*
X117908582Y-77664632D01*
X117971835Y-77652051D01*
X118153914Y-77576632D01*
X118317782Y-77467139D01*
X118457139Y-77327782D01*
X118528287Y-77221302D01*
X118552398Y-77185217D01*
X118606010Y-77140412D01*
X118675335Y-77131705D01*
X118738362Y-77161859D01*
X118775082Y-77221302D01*
X118779500Y-77254108D01*
X118779500Y-78665891D01*
X118759815Y-78732930D01*
X118707011Y-78778685D01*
X118637853Y-78788629D01*
X118574297Y-78759604D01*
X118552398Y-78734782D01*
X118457139Y-78592218D01*
X118457136Y-78592214D01*
X118317785Y-78452863D01*
X118317781Y-78452860D01*
X118153920Y-78343371D01*
X118153907Y-78343364D01*
X117971839Y-78267950D01*
X117971829Y-78267947D01*
X117778543Y-78229500D01*
X117778541Y-78229500D01*
X117581459Y-78229500D01*
X117581457Y-78229500D01*
X117388170Y-78267947D01*
X117388160Y-78267950D01*
X117206092Y-78343364D01*
X117206079Y-78343371D01*
X117042218Y-78452860D01*
X117042214Y-78452863D01*
X116902863Y-78592214D01*
X116902860Y-78592218D01*
X116793371Y-78756079D01*
X116793364Y-78756092D01*
X116717950Y-78938160D01*
X116717947Y-78938170D01*
X116679500Y-79131456D01*
X116679500Y-79131459D01*
X116679500Y-79328541D01*
X116679500Y-79328543D01*
X116679499Y-79328543D01*
X116717947Y-79521829D01*
X116717950Y-79521839D01*
X116793364Y-79703907D01*
X116793371Y-79703920D01*
X116902860Y-79867781D01*
X116902863Y-79867785D01*
X117042214Y-80007136D01*
X117042218Y-80007139D01*
X117206079Y-80116628D01*
X117206092Y-80116635D01*
X117388160Y-80192049D01*
X117388165Y-80192051D01*
X117408491Y-80196094D01*
X117427381Y-80199852D01*
X117489292Y-80232237D01*
X117523866Y-80292952D01*
X117520127Y-80362722D01*
X117479261Y-80419394D01*
X117422589Y-80443942D01*
X117363870Y-80453242D01*
X117363869Y-80453242D01*
X117161782Y-80518904D01*
X116972439Y-80615380D01*
X116918282Y-80654727D01*
X116918282Y-80654728D01*
X117550591Y-81287037D01*
X117487007Y-81304075D01*
X117372993Y-81369901D01*
X117279901Y-81462993D01*
X117214075Y-81577007D01*
X117197037Y-81640591D01*
X116564728Y-81008282D01*
X116564727Y-81008282D01*
X116525380Y-81062439D01*
X116428904Y-81251782D01*
X116363242Y-81453869D01*
X116363242Y-81453872D01*
X116330000Y-81663753D01*
X116330000Y-81876246D01*
X116363242Y-82086127D01*
X116363242Y-82086130D01*
X116428904Y-82288217D01*
X116525375Y-82477550D01*
X116564728Y-82531716D01*
X117197037Y-81899408D01*
X117214075Y-81962993D01*
X117279901Y-82077007D01*
X117372993Y-82170099D01*
X117487007Y-82235925D01*
X117550590Y-82252962D01*
X116918282Y-82885269D01*
X116918282Y-82885270D01*
X116972449Y-82924624D01*
X117161782Y-83021095D01*
X117363865Y-83086755D01*
X117422587Y-83096056D01*
X117485722Y-83125985D01*
X117522654Y-83185297D01*
X117521656Y-83255159D01*
X117483047Y-83313392D01*
X117427384Y-83340147D01*
X117388167Y-83347948D01*
X117388160Y-83347950D01*
X117206092Y-83423364D01*
X117206079Y-83423371D01*
X117042218Y-83532860D01*
X117042214Y-83532863D01*
X116902863Y-83672214D01*
X116902860Y-83672218D01*
X116793371Y-83836079D01*
X116793364Y-83836092D01*
X116717950Y-84018160D01*
X116717947Y-84018170D01*
X116679500Y-84211456D01*
X116679500Y-84211459D01*
X116679500Y-84408541D01*
X116679500Y-84408543D01*
X116679499Y-84408543D01*
X116717947Y-84601829D01*
X116717950Y-84601839D01*
X116793364Y-84783907D01*
X116793371Y-84783920D01*
X116902860Y-84947781D01*
X116902863Y-84947785D01*
X117042214Y-85087136D01*
X117042218Y-85087139D01*
X117206079Y-85196628D01*
X117206092Y-85196635D01*
X117388160Y-85272049D01*
X117388165Y-85272051D01*
X117388169Y-85272051D01*
X117388170Y-85272052D01*
X117581456Y-85310500D01*
X117581459Y-85310500D01*
X117778543Y-85310500D01*
X117931873Y-85280000D01*
X117971835Y-85272051D01*
X118153914Y-85196632D01*
X118317782Y-85087139D01*
X118457139Y-84947782D01*
X118528287Y-84841302D01*
X118552398Y-84805217D01*
X118606010Y-84760412D01*
X118675335Y-84751705D01*
X118738362Y-84781859D01*
X118775082Y-84841302D01*
X118779500Y-84874108D01*
X118779500Y-86285891D01*
X118759815Y-86352930D01*
X118707011Y-86398685D01*
X118637853Y-86408629D01*
X118574297Y-86379604D01*
X118552398Y-86354782D01*
X118457139Y-86212218D01*
X118457136Y-86212214D01*
X118317785Y-86072863D01*
X118317781Y-86072860D01*
X118153920Y-85963371D01*
X118153907Y-85963364D01*
X117971839Y-85887950D01*
X117971829Y-85887947D01*
X117778543Y-85849500D01*
X117778541Y-85849500D01*
X117581459Y-85849500D01*
X117581457Y-85849500D01*
X117388170Y-85887947D01*
X117388160Y-85887950D01*
X117206092Y-85963364D01*
X117206079Y-85963371D01*
X117042218Y-86072860D01*
X117042214Y-86072863D01*
X116902863Y-86212214D01*
X116902860Y-86212218D01*
X116793371Y-86376079D01*
X116793364Y-86376092D01*
X116717950Y-86558160D01*
X116717947Y-86558170D01*
X116679500Y-86751456D01*
X116679500Y-86751459D01*
X116679500Y-86948541D01*
X116679500Y-86948543D01*
X116679499Y-86948543D01*
X116717947Y-87141829D01*
X116717950Y-87141839D01*
X116793364Y-87323907D01*
X116793371Y-87323920D01*
X116902860Y-87487781D01*
X116902863Y-87487785D01*
X116932897Y-87517819D01*
X116966382Y-87579142D01*
X116961398Y-87648834D01*
X116919526Y-87704767D01*
X116854062Y-87729184D01*
X116845216Y-87729500D01*
X111874109Y-87729500D01*
X111807070Y-87709815D01*
X111761315Y-87657011D01*
X111751371Y-87587853D01*
X111780396Y-87524297D01*
X111805218Y-87502398D01*
X111885653Y-87448651D01*
X111947782Y-87407139D01*
X112087139Y-87267782D01*
X112196632Y-87103914D01*
X112272051Y-86921835D01*
X112298803Y-86787346D01*
X112310500Y-86728543D01*
X112310500Y-86531456D01*
X112272052Y-86338170D01*
X112272051Y-86338167D01*
X112272051Y-86338165D01*
X112248178Y-86280529D01*
X112196635Y-86156092D01*
X112196628Y-86156079D01*
X112087139Y-85992218D01*
X112087136Y-85992214D01*
X111947785Y-85852863D01*
X111947781Y-85852860D01*
X111783920Y-85743371D01*
X111783907Y-85743364D01*
X111601839Y-85667950D01*
X111601829Y-85667947D01*
X111408543Y-85629500D01*
X111408541Y-85629500D01*
X111211459Y-85629500D01*
X111211457Y-85629500D01*
X111018170Y-85667947D01*
X111018160Y-85667950D01*
X110836092Y-85743364D01*
X110836079Y-85743371D01*
X110672218Y-85852860D01*
X110672214Y-85852863D01*
X110532863Y-85992214D01*
X110532860Y-85992218D01*
X110423371Y-86156079D01*
X110423364Y-86156092D01*
X110347950Y-86338160D01*
X110347948Y-86338167D01*
X110340147Y-86377384D01*
X110307761Y-86439294D01*
X110247044Y-86473867D01*
X110177275Y-86470126D01*
X110120604Y-86429258D01*
X110096056Y-86372587D01*
X110086755Y-86313865D01*
X110021095Y-86111782D01*
X109924624Y-85922449D01*
X109885270Y-85868282D01*
X109885269Y-85868282D01*
X109252962Y-86500590D01*
X109235925Y-86437007D01*
X109170099Y-86322993D01*
X109077007Y-86229901D01*
X108962993Y-86164075D01*
X108899409Y-86147037D01*
X109531716Y-85514728D01*
X109477550Y-85475375D01*
X109288217Y-85378904D01*
X109086129Y-85313242D01*
X108876246Y-85280000D01*
X108663754Y-85280000D01*
X108453872Y-85313242D01*
X108453869Y-85313242D01*
X108251782Y-85378904D01*
X108062439Y-85475380D01*
X108008282Y-85514727D01*
X108008282Y-85514728D01*
X108640591Y-86147037D01*
X108577007Y-86164075D01*
X108462993Y-86229901D01*
X108369901Y-86322993D01*
X108304075Y-86437007D01*
X108287037Y-86500591D01*
X107654728Y-85868282D01*
X107654727Y-85868282D01*
X107615380Y-85922439D01*
X107518904Y-86111782D01*
X107472431Y-86254814D01*
X107432994Y-86312489D01*
X107368635Y-86339688D01*
X107299789Y-86327773D01*
X107248313Y-86280529D01*
X107230500Y-86216496D01*
X107230500Y-85765177D01*
X107221768Y-85721282D01*
X107221767Y-85721281D01*
X107221767Y-85721278D01*
X107188504Y-85671496D01*
X107138722Y-85638233D01*
X107138721Y-85638232D01*
X107138720Y-85638232D01*
X107138717Y-85638231D01*
X107094822Y-85629500D01*
X107094820Y-85629500D01*
X105365180Y-85629500D01*
X105365178Y-85629500D01*
X105321282Y-85638231D01*
X105321275Y-85638234D01*
X105271496Y-85671495D01*
X105271495Y-85671496D01*
X105238234Y-85721275D01*
X105238231Y-85721282D01*
X105229500Y-85765177D01*
X105229500Y-85765180D01*
X105229500Y-87494820D01*
X105229500Y-87494822D01*
X105229499Y-87494822D01*
X105238231Y-87538717D01*
X105242906Y-87550002D01*
X105241232Y-87550695D01*
X105257699Y-87603292D01*
X105239212Y-87670671D01*
X105187231Y-87717359D01*
X105133719Y-87729500D01*
X100704784Y-87729500D01*
X100637745Y-87709815D01*
X100591990Y-87657011D01*
X100582046Y-87587853D01*
X100611071Y-87524297D01*
X100617103Y-87517819D01*
X100647136Y-87487785D01*
X100647139Y-87487782D01*
X100756632Y-87323914D01*
X100832051Y-87141835D01*
X100859233Y-87005185D01*
X100870500Y-86948543D01*
X100870500Y-86751456D01*
X100832052Y-86558170D01*
X100832051Y-86558169D01*
X100832051Y-86558165D01*
X100797134Y-86473867D01*
X100756635Y-86376092D01*
X100756628Y-86376079D01*
X100647139Y-86212218D01*
X100647136Y-86212214D01*
X100507785Y-86072863D01*
X100507781Y-86072860D01*
X100343920Y-85963371D01*
X100343907Y-85963364D01*
X100161839Y-85887950D01*
X100161829Y-85887947D01*
X99968543Y-85849500D01*
X99968541Y-85849500D01*
X99771459Y-85849500D01*
X99771457Y-85849500D01*
X99578170Y-85887947D01*
X99578160Y-85887950D01*
X99396092Y-85963364D01*
X99396079Y-85963371D01*
X99232218Y-86072860D01*
X99232214Y-86072863D01*
X99092863Y-86212214D01*
X99092860Y-86212218D01*
X99007602Y-86339816D01*
X98953990Y-86384621D01*
X98884665Y-86393328D01*
X98821637Y-86363173D01*
X98784918Y-86303730D01*
X98780500Y-86270925D01*
X98780500Y-84889074D01*
X98800185Y-84822035D01*
X98852989Y-84776280D01*
X98922147Y-84766336D01*
X98985703Y-84795361D01*
X99007602Y-84820183D01*
X99092860Y-84947782D01*
X99232214Y-85087136D01*
X99232218Y-85087139D01*
X99396079Y-85196628D01*
X99396092Y-85196635D01*
X99578160Y-85272049D01*
X99578165Y-85272051D01*
X99578169Y-85272051D01*
X99578170Y-85272052D01*
X99771456Y-85310500D01*
X99771459Y-85310500D01*
X99968543Y-85310500D01*
X100121873Y-85280000D01*
X100161835Y-85272051D01*
X100343914Y-85196632D01*
X100507782Y-85087139D01*
X100647139Y-84947782D01*
X100756632Y-84783914D01*
X100832051Y-84601835D01*
X100870500Y-84408541D01*
X100870500Y-84211459D01*
X100870500Y-84211456D01*
X100832052Y-84018170D01*
X100832051Y-84018169D01*
X100832051Y-84018165D01*
X100763774Y-83853328D01*
X100756635Y-83836092D01*
X100756628Y-83836079D01*
X100647139Y-83672218D01*
X100647136Y-83672214D01*
X100507785Y-83532863D01*
X100507781Y-83532860D01*
X100343920Y-83423371D01*
X100343907Y-83423364D01*
X100161839Y-83347950D01*
X100161830Y-83347947D01*
X100122616Y-83340147D01*
X100060705Y-83307761D01*
X100026132Y-83247045D01*
X100029873Y-83177275D01*
X100070740Y-83120604D01*
X100127412Y-83096056D01*
X100186134Y-83086755D01*
X100388217Y-83021095D01*
X100577554Y-82924622D01*
X100631716Y-82885270D01*
X100631717Y-82885270D01*
X99999408Y-82252962D01*
X100062993Y-82235925D01*
X100177007Y-82170099D01*
X100270099Y-82077007D01*
X100335925Y-81962993D01*
X100352962Y-81899408D01*
X100985270Y-82531717D01*
X100985270Y-82531716D01*
X101024622Y-82477554D01*
X101121095Y-82288217D01*
X101186757Y-82086130D01*
X101186757Y-82086127D01*
X101220000Y-81876246D01*
X101220000Y-81663753D01*
X101186757Y-81453872D01*
X101186757Y-81453869D01*
X101121095Y-81251782D01*
X101024624Y-81062449D01*
X100985270Y-81008282D01*
X100985269Y-81008282D01*
X100352962Y-81640590D01*
X100335925Y-81577007D01*
X100270099Y-81462993D01*
X100177007Y-81369901D01*
X100062993Y-81304075D01*
X99999409Y-81287037D01*
X100631716Y-80654728D01*
X100577550Y-80615375D01*
X100388217Y-80518904D01*
X100186128Y-80453242D01*
X100127411Y-80443942D01*
X100064276Y-80414012D01*
X100027345Y-80354701D01*
X100028343Y-80284838D01*
X100066953Y-80226606D01*
X100122615Y-80199852D01*
X100161835Y-80192051D01*
X100343914Y-80116632D01*
X100507782Y-80007139D01*
X100647139Y-79867782D01*
X100756632Y-79703914D01*
X100832051Y-79521835D01*
X100870500Y-79328541D01*
X100870500Y-79131459D01*
X100870500Y-79131456D01*
X100832052Y-78938170D01*
X100832051Y-78938169D01*
X100832051Y-78938165D01*
X100763774Y-78773328D01*
X100756635Y-78756092D01*
X100756628Y-78756079D01*
X100647139Y-78592218D01*
X100647136Y-78592214D01*
X100507785Y-78452863D01*
X100507781Y-78452860D01*
X100343920Y-78343371D01*
X100343907Y-78343364D01*
X100161839Y-78267950D01*
X100161829Y-78267947D01*
X99968543Y-78229500D01*
X99968541Y-78229500D01*
X99771459Y-78229500D01*
X99771457Y-78229500D01*
X99578170Y-78267947D01*
X99578160Y-78267950D01*
X99396092Y-78343364D01*
X99396079Y-78343371D01*
X99232218Y-78452860D01*
X99232214Y-78452863D01*
X99092863Y-78592214D01*
X99092860Y-78592218D01*
X99007602Y-78719816D01*
X98953990Y-78764621D01*
X98884665Y-78773328D01*
X98821637Y-78743173D01*
X98784918Y-78683730D01*
X98780500Y-78650925D01*
X98780500Y-77269074D01*
X98800185Y-77202035D01*
X98852989Y-77156280D01*
X98922147Y-77146336D01*
X98985703Y-77175361D01*
X99007602Y-77200183D01*
X99092860Y-77327782D01*
X99232214Y-77467136D01*
X99232218Y-77467139D01*
X99396079Y-77576628D01*
X99396092Y-77576635D01*
X99578160Y-77652049D01*
X99578165Y-77652051D01*
X99578169Y-77652051D01*
X99578170Y-77652052D01*
X99771456Y-77690500D01*
X99771459Y-77690500D01*
X99968543Y-77690500D01*
X100098582Y-77664632D01*
X100161835Y-77652051D01*
X100343914Y-77576632D01*
X100507782Y-77467139D01*
X100647139Y-77327782D01*
X100756632Y-77163914D01*
X100832051Y-76981835D01*
X100870500Y-76788541D01*
X100870500Y-76591459D01*
X100870500Y-76591456D01*
X100832052Y-76398170D01*
X100832051Y-76398169D01*
X100832051Y-76398165D01*
X100763774Y-76233328D01*
X100756635Y-76216092D01*
X100756628Y-76216079D01*
X100647139Y-76052218D01*
X100647136Y-76052214D01*
X100507785Y-75912863D01*
X100507781Y-75912860D01*
X100343920Y-75803371D01*
X100343907Y-75803364D01*
X100161839Y-75727950D01*
X100161829Y-75727947D01*
X99968543Y-75689500D01*
X99968541Y-75689500D01*
X99771459Y-75689500D01*
X99771457Y-75689500D01*
X99578170Y-75727947D01*
X99578160Y-75727950D01*
X99396092Y-75803364D01*
X99396079Y-75803371D01*
X99232218Y-75912860D01*
X99232214Y-75912863D01*
X99092863Y-76052214D01*
X99092860Y-76052218D01*
X99007602Y-76179816D01*
X98953990Y-76224621D01*
X98884665Y-76233328D01*
X98821637Y-76203173D01*
X98784918Y-76143730D01*
X98780500Y-76110925D01*
X98780500Y-74729074D01*
X98800185Y-74662035D01*
X98852989Y-74616280D01*
X98922147Y-74606336D01*
X98985703Y-74635361D01*
X99007602Y-74660183D01*
X99092860Y-74787782D01*
X99232214Y-74927136D01*
X99232218Y-74927139D01*
X99396079Y-75036628D01*
X99396092Y-75036635D01*
X99578160Y-75112049D01*
X99578165Y-75112051D01*
X99578169Y-75112051D01*
X99578170Y-75112052D01*
X99771456Y-75150500D01*
X99771459Y-75150500D01*
X99968543Y-75150500D01*
X100098582Y-75124632D01*
X100161835Y-75112051D01*
X100343914Y-75036632D01*
X100507782Y-74927139D01*
X100647139Y-74787782D01*
X100756632Y-74623914D01*
X100832051Y-74441835D01*
X100870500Y-74248541D01*
X100870500Y-74051459D01*
X100870500Y-74051456D01*
X100832052Y-73858170D01*
X100832051Y-73858169D01*
X100832051Y-73858165D01*
X100763774Y-73693328D01*
X100756635Y-73676092D01*
X100756628Y-73676079D01*
X100647139Y-73512218D01*
X100647136Y-73512214D01*
X100507785Y-73372863D01*
X100507781Y-73372860D01*
X100343920Y-73263371D01*
X100343907Y-73263364D01*
X100161839Y-73187950D01*
X100161829Y-73187947D01*
X99968543Y-73149500D01*
X99968541Y-73149500D01*
X99771459Y-73149500D01*
X99771457Y-73149500D01*
X99578170Y-73187947D01*
X99578160Y-73187950D01*
X99396092Y-73263364D01*
X99396079Y-73263371D01*
X99232218Y-73372860D01*
X99232214Y-73372863D01*
X99092863Y-73512214D01*
X99092860Y-73512218D01*
X99007602Y-73639816D01*
X98953990Y-73684621D01*
X98884665Y-73693328D01*
X98821637Y-73663173D01*
X98784918Y-73603730D01*
X98780500Y-73570925D01*
X98780500Y-72189074D01*
X98800185Y-72122035D01*
X98852989Y-72076280D01*
X98922147Y-72066336D01*
X98985703Y-72095361D01*
X99007602Y-72120183D01*
X99092860Y-72247782D01*
X99232214Y-72387136D01*
X99232218Y-72387139D01*
X99396079Y-72496628D01*
X99396092Y-72496635D01*
X99578160Y-72572049D01*
X99578165Y-72572051D01*
X99578169Y-72572051D01*
X99578170Y-72572052D01*
X99771456Y-72610500D01*
X99771459Y-72610500D01*
X99968543Y-72610500D01*
X100098582Y-72584632D01*
X100161835Y-72572051D01*
X100343914Y-72496632D01*
X100507782Y-72387139D01*
X100647139Y-72247782D01*
X100756632Y-72083914D01*
X100832051Y-71901835D01*
X100870500Y-71708541D01*
X100870500Y-71511459D01*
X100870500Y-71511456D01*
X100832052Y-71318170D01*
X100832051Y-71318169D01*
X100832051Y-71318165D01*
X100763774Y-71153328D01*
X100756635Y-71136092D01*
X100756628Y-71136079D01*
X100647139Y-70972218D01*
X100647136Y-70972214D01*
X100507785Y-70832863D01*
X100507781Y-70832860D01*
X100343920Y-70723371D01*
X100343907Y-70723364D01*
X100161839Y-70647950D01*
X100161829Y-70647947D01*
X99968543Y-70609500D01*
X99968541Y-70609500D01*
X99771459Y-70609500D01*
X99771457Y-70609500D01*
X99578170Y-70647947D01*
X99578160Y-70647950D01*
X99396092Y-70723364D01*
X99396079Y-70723371D01*
X99232218Y-70832860D01*
X99232214Y-70832863D01*
X99092863Y-70972214D01*
X99092860Y-70972218D01*
X99007602Y-71099816D01*
X98953990Y-71144621D01*
X98884665Y-71153328D01*
X98821637Y-71123173D01*
X98784918Y-71063730D01*
X98780500Y-71030925D01*
X98780500Y-67109074D01*
X98800185Y-67042035D01*
X98852989Y-66996280D01*
X98922147Y-66986336D01*
X98985703Y-67015361D01*
X99007602Y-67040183D01*
X99092860Y-67167782D01*
X99232214Y-67307136D01*
X99232218Y-67307139D01*
X99396079Y-67416628D01*
X99396092Y-67416635D01*
X99578160Y-67492049D01*
X99578165Y-67492051D01*
X99578169Y-67492051D01*
X99578170Y-67492052D01*
X99771456Y-67530500D01*
X99771459Y-67530500D01*
X99968543Y-67530500D01*
X100098582Y-67504632D01*
X100161835Y-67492051D01*
X100343914Y-67416632D01*
X100507782Y-67307139D01*
X100647139Y-67167782D01*
X100756632Y-67003914D01*
X100832051Y-66821835D01*
X100870500Y-66628541D01*
X100870500Y-66431459D01*
X100870500Y-66431456D01*
X100832052Y-66238170D01*
X100832051Y-66238169D01*
X100832051Y-66238165D01*
X100763774Y-66073328D01*
X100756635Y-66056092D01*
X100756628Y-66056079D01*
X100647139Y-65892218D01*
X100647136Y-65892214D01*
X100507785Y-65752863D01*
X100507781Y-65752860D01*
X100343920Y-65643371D01*
X100343907Y-65643364D01*
X100161839Y-65567950D01*
X100161829Y-65567947D01*
X99968543Y-65529500D01*
X99968541Y-65529500D01*
X99771459Y-65529500D01*
X99771457Y-65529500D01*
X99578170Y-65567947D01*
X99578160Y-65567950D01*
X99396092Y-65643364D01*
X99396079Y-65643371D01*
X99232218Y-65752860D01*
X99232214Y-65752863D01*
X99092863Y-65892214D01*
X99092860Y-65892218D01*
X99007602Y-66019816D01*
X98953990Y-66064621D01*
X98884665Y-66073328D01*
X98821637Y-66043173D01*
X98784918Y-65983730D01*
X98780500Y-65950925D01*
X98780500Y-64569074D01*
X98800185Y-64502035D01*
X98852989Y-64456280D01*
X98922147Y-64446336D01*
X98985703Y-64475361D01*
X99007602Y-64500183D01*
X99092860Y-64627782D01*
X99232214Y-64767136D01*
X99232218Y-64767139D01*
X99396079Y-64876628D01*
X99396092Y-64876635D01*
X99578160Y-64952049D01*
X99578165Y-64952051D01*
X99578169Y-64952051D01*
X99578170Y-64952052D01*
X99771456Y-64990500D01*
X99771459Y-64990500D01*
X99968543Y-64990500D01*
X100120978Y-64960178D01*
X100161835Y-64952051D01*
X100343914Y-64876632D01*
X100507782Y-64767139D01*
X100647139Y-64627782D01*
X100756632Y-64463914D01*
X100832051Y-64281835D01*
X100854814Y-64167399D01*
X100870500Y-64088543D01*
X100870500Y-63891456D01*
X100832052Y-63698170D01*
X100832051Y-63698169D01*
X100832051Y-63698165D01*
X100831454Y-63696724D01*
X100756635Y-63516092D01*
X100756628Y-63516079D01*
X100647139Y-63352218D01*
X100647136Y-63352214D01*
X100507785Y-63212863D01*
X100507781Y-63212860D01*
X100343920Y-63103371D01*
X100343907Y-63103364D01*
X100161839Y-63027950D01*
X100161829Y-63027947D01*
X99968543Y-62989500D01*
X99968541Y-62989500D01*
X99771459Y-62989500D01*
X99771457Y-62989500D01*
X99578170Y-63027947D01*
X99578160Y-63027950D01*
X99396092Y-63103364D01*
X99396079Y-63103371D01*
X99232218Y-63212860D01*
X99232214Y-63212863D01*
X99092863Y-63352214D01*
X99092860Y-63352218D01*
X99007602Y-63479816D01*
X98953990Y-63524621D01*
X98884665Y-63533328D01*
X98821637Y-63503173D01*
X98784918Y-63443730D01*
X98780500Y-63410925D01*
X98780500Y-62029074D01*
X98800185Y-61962035D01*
X98852989Y-61916280D01*
X98922147Y-61906336D01*
X98985703Y-61935361D01*
X99007602Y-61960183D01*
X99092860Y-62087782D01*
X99232214Y-62227136D01*
X99232218Y-62227139D01*
X99396079Y-62336628D01*
X99396092Y-62336635D01*
X99578160Y-62412049D01*
X99578165Y-62412051D01*
X99578169Y-62412051D01*
X99578170Y-62412052D01*
X99771456Y-62450500D01*
X99771459Y-62450500D01*
X99968543Y-62450500D01*
X100098582Y-62424632D01*
X100161835Y-62412051D01*
X100343914Y-62336632D01*
X100507782Y-62227139D01*
X100647139Y-62087782D01*
X100756632Y-61923914D01*
X100832051Y-61741835D01*
X100870500Y-61548541D01*
X100870500Y-61351459D01*
X100870500Y-61351456D01*
X100832052Y-61158170D01*
X100832051Y-61158169D01*
X100832051Y-61158165D01*
X100763774Y-60993328D01*
X100756635Y-60976092D01*
X100756628Y-60976079D01*
X100647139Y-60812218D01*
X100647136Y-60812214D01*
X100507785Y-60672863D01*
X100507781Y-60672860D01*
X100343920Y-60563371D01*
X100343907Y-60563364D01*
X100161839Y-60487950D01*
X100161829Y-60487947D01*
X99968543Y-60449500D01*
X99968541Y-60449500D01*
X99771459Y-60449500D01*
X99771457Y-60449500D01*
X99578170Y-60487947D01*
X99578160Y-60487950D01*
X99396092Y-60563364D01*
X99396079Y-60563371D01*
X99232218Y-60672860D01*
X99232214Y-60672863D01*
X99092863Y-60812214D01*
X99092860Y-60812218D01*
X99007602Y-60939816D01*
X98953990Y-60984621D01*
X98884665Y-60993328D01*
X98821637Y-60963173D01*
X98784918Y-60903730D01*
X98780500Y-60870925D01*
X98780500Y-59489074D01*
X98800185Y-59422035D01*
X98852989Y-59376280D01*
X98922147Y-59366336D01*
X98985703Y-59395361D01*
X99007602Y-59420183D01*
X99092860Y-59547782D01*
X99232214Y-59687136D01*
X99232218Y-59687139D01*
X99396079Y-59796628D01*
X99396092Y-59796635D01*
X99578160Y-59872049D01*
X99578165Y-59872051D01*
X99578169Y-59872051D01*
X99578170Y-59872052D01*
X99771456Y-59910500D01*
X99771459Y-59910500D01*
X99968543Y-59910500D01*
X100098582Y-59884632D01*
X100161835Y-59872051D01*
X100343914Y-59796632D01*
X100507782Y-59687139D01*
X100507785Y-59687136D01*
X100508819Y-59686103D01*
X100509493Y-59685734D01*
X100512492Y-59683274D01*
X100512958Y-59683842D01*
X100570142Y-59652618D01*
X100639834Y-59657602D01*
X100695767Y-59699474D01*
X100720184Y-59764938D01*
X100720500Y-59773784D01*
X100720500Y-60355852D01*
X100758636Y-60447920D01*
X102438181Y-62127465D01*
X102471666Y-62188788D01*
X102474500Y-62215146D01*
X102474500Y-62319332D01*
X102505201Y-62433909D01*
X102564511Y-62536636D01*
X102648387Y-62620512D01*
X102751114Y-62679822D01*
X102865691Y-62710523D01*
X102865694Y-62710523D01*
X102984306Y-62710523D01*
X102984309Y-62710523D01*
X103098886Y-62679822D01*
X103098888Y-62679820D01*
X103098890Y-62679820D01*
X103098891Y-62679819D01*
X103147471Y-62651771D01*
X103190498Y-62626928D01*
X103258397Y-62610455D01*
X103324425Y-62633307D01*
X103367616Y-62688227D01*
X103376499Y-62734315D01*
X103376499Y-64402678D01*
X103356814Y-64469717D01*
X103340181Y-64490359D01*
X103266510Y-64564030D01*
X103218893Y-64646505D01*
X103207200Y-64666757D01*
X103176499Y-64781334D01*
X103176499Y-64899952D01*
X103207200Y-65014529D01*
X103266510Y-65117256D01*
X103350386Y-65201132D01*
X103453113Y-65260442D01*
X103567690Y-65291143D01*
X103567693Y-65291143D01*
X103686305Y-65291143D01*
X103686308Y-65291143D01*
X103800885Y-65260442D01*
X103903612Y-65201132D01*
X103987488Y-65117256D01*
X104046798Y-65014529D01*
X104077499Y-64899952D01*
X104077499Y-64829773D01*
X104097184Y-64762734D01*
X104149988Y-64716979D01*
X104201499Y-64705773D01*
X104236305Y-64705773D01*
X104236308Y-64705773D01*
X104350885Y-64675072D01*
X104453612Y-64615762D01*
X104537488Y-64531886D01*
X104596798Y-64429159D01*
X104627499Y-64314582D01*
X104627499Y-64195964D01*
X104596798Y-64081387D01*
X104537488Y-63978660D01*
X104463817Y-63904989D01*
X104430333Y-63843665D01*
X104427499Y-63817308D01*
X104427499Y-62186575D01*
X104427498Y-62186572D01*
X104424618Y-62179619D01*
X104389363Y-62094505D01*
X104318896Y-62024038D01*
X104318895Y-62024037D01*
X104318893Y-62024034D01*
X104190363Y-61895504D01*
X103528425Y-61233568D01*
X103528423Y-61233565D01*
X103440517Y-61145659D01*
X103348449Y-61107523D01*
X103348448Y-61107523D01*
X103200510Y-61107523D01*
X103133471Y-61087838D01*
X103112829Y-61071204D01*
X102604989Y-60563364D01*
X102027797Y-59986171D01*
X101994314Y-59924851D01*
X101999298Y-59855159D01*
X102027797Y-59810814D01*
X102229914Y-59608698D01*
X102291237Y-59575213D01*
X102317595Y-59572379D01*
X102421779Y-59572379D01*
X102421782Y-59572379D01*
X102536359Y-59541678D01*
X102639086Y-59482368D01*
X102722962Y-59398492D01*
X102782272Y-59295765D01*
X102812973Y-59181188D01*
X102812973Y-59062570D01*
X102782272Y-58947993D01*
X102722962Y-58845266D01*
X102639086Y-58761390D01*
X102634584Y-58756888D01*
X102601099Y-58695565D01*
X102606083Y-58625873D01*
X102614879Y-58607206D01*
X102642796Y-58558852D01*
X102642797Y-58558851D01*
X102642797Y-58558849D01*
X102642799Y-58558847D01*
X102673500Y-58444270D01*
X102673500Y-58325652D01*
X102642799Y-58211075D01*
X102583489Y-58108348D01*
X102572781Y-58097640D01*
X102539296Y-58036317D01*
X102544280Y-57966625D01*
X102572779Y-57922280D01*
X102583489Y-57911571D01*
X102642799Y-57808844D01*
X102673500Y-57694267D01*
X102673500Y-57575649D01*
X102642799Y-57461072D01*
X102583489Y-57358345D01*
X102499613Y-57274469D01*
X102396886Y-57215159D01*
X102282309Y-57184458D01*
X102163691Y-57184458D01*
X102049114Y-57215159D01*
X102049112Y-57215159D01*
X102049112Y-57215160D01*
X101946387Y-57274469D01*
X101946384Y-57274471D01*
X101862513Y-57358342D01*
X101862511Y-57358345D01*
X101846894Y-57385395D01*
X101803201Y-57461072D01*
X101772500Y-57575649D01*
X101772500Y-57575651D01*
X101772500Y-57650605D01*
X101752815Y-57717644D01*
X101736181Y-57738286D01*
X100970378Y-58504088D01*
X100909055Y-58537573D01*
X100839363Y-58532589D01*
X100783430Y-58490717D01*
X100768135Y-58463858D01*
X100765992Y-58458685D01*
X100756632Y-58436086D01*
X100756628Y-58436079D01*
X100647139Y-58272218D01*
X100647136Y-58272214D01*
X100507785Y-58132863D01*
X100507781Y-58132860D01*
X100343920Y-58023371D01*
X100343907Y-58023364D01*
X100161839Y-57947950D01*
X100161829Y-57947947D01*
X99968543Y-57909500D01*
X99968541Y-57909500D01*
X99771459Y-57909500D01*
X99771457Y-57909500D01*
X99578170Y-57947947D01*
X99578160Y-57947950D01*
X99396092Y-58023364D01*
X99396079Y-58023371D01*
X99232218Y-58132860D01*
X99232214Y-58132863D01*
X99092863Y-58272214D01*
X99092860Y-58272218D01*
X99007602Y-58399816D01*
X98953990Y-58444621D01*
X98884665Y-58453328D01*
X98821637Y-58423173D01*
X98784918Y-58363730D01*
X98780500Y-58330925D01*
X98780500Y-54409074D01*
X98800185Y-54342035D01*
X98852989Y-54296280D01*
X98922147Y-54286336D01*
X98985703Y-54315361D01*
X99007602Y-54340183D01*
X99092860Y-54467782D01*
X99232214Y-54607136D01*
X99232218Y-54607139D01*
X99396079Y-54716628D01*
X99396092Y-54716635D01*
X99578160Y-54792049D01*
X99578165Y-54792051D01*
X99578169Y-54792051D01*
X99578170Y-54792052D01*
X99771456Y-54830500D01*
X99771459Y-54830500D01*
X99968543Y-54830500D01*
X100098582Y-54804632D01*
X100161835Y-54792051D01*
X100343914Y-54716632D01*
X100507782Y-54607139D01*
X100647139Y-54467782D01*
X100756632Y-54303914D01*
X100832051Y-54121835D01*
X100870500Y-53928541D01*
X100870500Y-53927072D01*
X100870718Y-53926329D01*
X100871097Y-53922481D01*
X100871826Y-53922552D01*
X100890185Y-53860033D01*
X100942989Y-53814278D01*
X101012147Y-53804334D01*
X101075703Y-53833359D01*
X101082170Y-53839380D01*
X101345339Y-54102549D01*
X101776230Y-54533440D01*
X101798715Y-54567090D01*
X101799137Y-54566847D01*
X101802849Y-54573277D01*
X101803108Y-54573664D01*
X101803197Y-54573879D01*
X101803200Y-54573885D01*
X101803201Y-54573886D01*
X101862511Y-54676613D01*
X101946387Y-54760489D01*
X102049114Y-54819799D01*
X102163691Y-54850500D01*
X102163694Y-54850500D01*
X102207232Y-54850500D01*
X102274271Y-54870185D01*
X102320026Y-54922989D01*
X102329970Y-54992147D01*
X102314619Y-55036500D01*
X102280201Y-55096114D01*
X102249500Y-55210691D01*
X102249500Y-55329309D01*
X102280201Y-55443886D01*
X102339511Y-55546613D01*
X102423387Y-55630489D01*
X102526114Y-55689799D01*
X102640691Y-55720500D01*
X102640694Y-55720500D01*
X102759306Y-55720500D01*
X102759309Y-55720500D01*
X102844410Y-55697697D01*
X102914256Y-55699360D01*
X102972118Y-55738522D01*
X102999623Y-55802750D01*
X103000500Y-55817472D01*
X103000500Y-56530986D01*
X102980815Y-56598025D01*
X102938502Y-56638372D01*
X102893390Y-56664418D01*
X102893384Y-56664422D01*
X102809513Y-56748293D01*
X102809511Y-56748296D01*
X102750201Y-56851023D01*
X102719500Y-56965600D01*
X102719500Y-57084218D01*
X102750201Y-57198795D01*
X102809511Y-57301522D01*
X102893387Y-57385398D01*
X102996114Y-57444708D01*
X103110691Y-57475409D01*
X103110694Y-57475409D01*
X103229306Y-57475409D01*
X103229309Y-57475409D01*
X103343886Y-57444708D01*
X103446613Y-57385398D01*
X103530489Y-57301522D01*
X103589799Y-57198795D01*
X103620500Y-57084218D01*
X103620500Y-56965600D01*
X103589799Y-56851023D01*
X103530489Y-56748296D01*
X103530488Y-56748295D01*
X103530487Y-56748293D01*
X103527122Y-56743908D01*
X103501930Y-56678738D01*
X103501500Y-56668424D01*
X103501500Y-54102552D01*
X103501499Y-54102549D01*
X103463364Y-54010482D01*
X103392897Y-53940015D01*
X103392896Y-53940014D01*
X102692051Y-53239169D01*
X101959819Y-52506937D01*
X101926334Y-52445614D01*
X101923500Y-52419256D01*
X101923500Y-42201504D01*
X103450000Y-42201504D01*
X103450000Y-42600000D01*
X104150000Y-42600000D01*
X104150000Y-43100000D01*
X103450000Y-43100000D01*
X103450000Y-43498495D01*
X103488427Y-43691681D01*
X103488430Y-43691693D01*
X103563807Y-43873671D01*
X103563814Y-43873684D01*
X103673248Y-44037462D01*
X103673251Y-44037466D01*
X103812533Y-44176748D01*
X103812537Y-44176751D01*
X103976315Y-44286185D01*
X103976328Y-44286192D01*
X104158308Y-44361569D01*
X104200000Y-44369862D01*
X104200000Y-43566988D01*
X104209940Y-43584205D01*
X104265795Y-43640060D01*
X104334204Y-43679556D01*
X104410504Y-43700000D01*
X104489496Y-43700000D01*
X104565796Y-43679556D01*
X104634205Y-43640060D01*
X104690060Y-43584205D01*
X104700000Y-43566988D01*
X104700000Y-44369862D01*
X104741690Y-44361569D01*
X104741692Y-44361569D01*
X104923671Y-44286192D01*
X104923684Y-44286185D01*
X105087462Y-44176751D01*
X105087466Y-44176748D01*
X105226748Y-44037466D01*
X105226751Y-44037462D01*
X105336185Y-43873684D01*
X105336192Y-43873671D01*
X105411569Y-43691693D01*
X105411572Y-43691681D01*
X105442800Y-43534690D01*
X105449999Y-43498494D01*
X105450000Y-43498492D01*
X105450000Y-43100000D01*
X104750000Y-43100000D01*
X104750000Y-42600000D01*
X105305536Y-42600000D01*
X105372575Y-42619685D01*
X105412923Y-42662000D01*
X105419482Y-42673361D01*
X105419484Y-42673364D01*
X105419485Y-42673365D01*
X105526635Y-42780515D01*
X105657865Y-42856281D01*
X105804234Y-42895500D01*
X105804236Y-42895500D01*
X105955764Y-42895500D01*
X105955766Y-42895500D01*
X106102135Y-42856281D01*
X106233365Y-42780515D01*
X106340515Y-42673365D01*
X106416281Y-42542135D01*
X106455500Y-42395766D01*
X106455500Y-42244234D01*
X111084500Y-42244234D01*
X111084500Y-42395765D01*
X111123719Y-42542136D01*
X111161602Y-42607750D01*
X111199485Y-42673365D01*
X111306635Y-42780515D01*
X111437865Y-42856281D01*
X111584234Y-42895500D01*
X111584236Y-42895500D01*
X111735764Y-42895500D01*
X111735766Y-42895500D01*
X111882135Y-42856281D01*
X112013365Y-42780515D01*
X112120515Y-42673365D01*
X112196281Y-42542135D01*
X112235500Y-42395766D01*
X112235500Y-42244234D01*
X112196281Y-42097865D01*
X112120515Y-41966635D01*
X112013365Y-41859485D01*
X111947750Y-41821602D01*
X111882136Y-41783719D01*
X111808950Y-41764109D01*
X111735766Y-41744500D01*
X111584234Y-41744500D01*
X111437863Y-41783719D01*
X111306635Y-41859485D01*
X111306632Y-41859487D01*
X111199487Y-41966632D01*
X111199485Y-41966635D01*
X111123719Y-42097863D01*
X111084500Y-42244234D01*
X106455500Y-42244234D01*
X106416281Y-42097865D01*
X106340515Y-41966635D01*
X106233365Y-41859485D01*
X106167750Y-41821602D01*
X106102136Y-41783719D01*
X106028950Y-41764109D01*
X105955766Y-41744500D01*
X105804234Y-41744500D01*
X105657863Y-41783719D01*
X105526635Y-41859485D01*
X105520189Y-41864432D01*
X105518099Y-41861709D01*
X105470217Y-41887466D01*
X105400558Y-41882043D01*
X105344888Y-41839821D01*
X105339299Y-41830976D01*
X105226751Y-41662537D01*
X105226748Y-41662533D01*
X105087466Y-41523251D01*
X105087462Y-41523248D01*
X104923684Y-41413814D01*
X104923671Y-41413807D01*
X104741691Y-41338429D01*
X104741683Y-41338427D01*
X104700000Y-41330135D01*
X104700000Y-42133011D01*
X104690060Y-42115795D01*
X104634205Y-42059940D01*
X104565796Y-42020444D01*
X104489496Y-42000000D01*
X104410504Y-42000000D01*
X104334204Y-42020444D01*
X104265795Y-42059940D01*
X104209940Y-42115795D01*
X104200000Y-42133011D01*
X104200000Y-41330136D01*
X104199999Y-41330135D01*
X104158316Y-41338427D01*
X104158308Y-41338429D01*
X103976328Y-41413807D01*
X103976315Y-41413814D01*
X103812537Y-41523248D01*
X103812533Y-41523251D01*
X103673251Y-41662533D01*
X103673248Y-41662537D01*
X103563814Y-41826315D01*
X103563807Y-41826328D01*
X103488430Y-42008306D01*
X103488427Y-42008318D01*
X103450000Y-42201504D01*
X101923500Y-42201504D01*
X101923500Y-40343173D01*
X101923499Y-40343170D01*
X101885364Y-40251103D01*
X101814897Y-40180636D01*
X100906819Y-39272558D01*
X100873334Y-39211235D01*
X100870500Y-39184877D01*
X100870500Y-37854500D01*
X100890185Y-37787461D01*
X100942989Y-37741706D01*
X100994500Y-37730500D01*
X103446917Y-37730500D01*
X103513956Y-37750185D01*
G37*
%TD.AperFunction*%
%TA.AperFunction,Conductor*%
G36*
X108304075Y-86822993D02*
G01*
X108369901Y-86937007D01*
X108462993Y-87030099D01*
X108577007Y-87095925D01*
X108640591Y-87112962D01*
X108060373Y-87693181D01*
X107999050Y-87726666D01*
X107972692Y-87729500D01*
X107326281Y-87729500D01*
X107259242Y-87709815D01*
X107213487Y-87657011D01*
X107203543Y-87587853D01*
X107217915Y-87550342D01*
X107217094Y-87550002D01*
X107221764Y-87538726D01*
X107221767Y-87538722D01*
X107221768Y-87538717D01*
X107230500Y-87494822D01*
X107230500Y-87043503D01*
X107250185Y-86976464D01*
X107302989Y-86930709D01*
X107372147Y-86920765D01*
X107435703Y-86949790D01*
X107472431Y-87005185D01*
X107518904Y-87148217D01*
X107615375Y-87337550D01*
X107654728Y-87391716D01*
X108287037Y-86759408D01*
X108304075Y-86822993D01*
G37*
%TD.AperFunction*%
%TA.AperFunction,Conductor*%
G36*
X109885270Y-87391717D02*
G01*
X109885270Y-87391716D01*
X109924622Y-87337554D01*
X110021095Y-87148217D01*
X110086755Y-86946134D01*
X110096056Y-86887412D01*
X110125985Y-86824277D01*
X110185296Y-86787346D01*
X110255159Y-86788342D01*
X110313392Y-86826952D01*
X110340147Y-86882616D01*
X110347947Y-86921830D01*
X110347950Y-86921839D01*
X110423364Y-87103907D01*
X110423371Y-87103920D01*
X110532860Y-87267781D01*
X110532863Y-87267785D01*
X110672214Y-87407136D01*
X110672218Y-87407139D01*
X110814782Y-87502398D01*
X110859587Y-87556010D01*
X110868294Y-87625335D01*
X110838139Y-87688363D01*
X110778696Y-87725082D01*
X110745891Y-87729500D01*
X109567308Y-87729500D01*
X109500269Y-87709815D01*
X109479627Y-87693181D01*
X108899408Y-87112962D01*
X108962993Y-87095925D01*
X109077007Y-87030099D01*
X109170099Y-86937007D01*
X109235925Y-86822993D01*
X109252962Y-86759408D01*
X109885270Y-87391717D01*
G37*
%TD.AperFunction*%
%TA.AperFunction,Conductor*%
G36*
X118743181Y-82479627D02*
G01*
X118776666Y-82540950D01*
X118779500Y-82567308D01*
X118779500Y-83745891D01*
X118759815Y-83812930D01*
X118707011Y-83858685D01*
X118637853Y-83868629D01*
X118574297Y-83839604D01*
X118552398Y-83814782D01*
X118457139Y-83672218D01*
X118457136Y-83672214D01*
X118317785Y-83532863D01*
X118317781Y-83532860D01*
X118153920Y-83423371D01*
X118153907Y-83423364D01*
X117971839Y-83347950D01*
X117971830Y-83347947D01*
X117932616Y-83340147D01*
X117870705Y-83307761D01*
X117836132Y-83247045D01*
X117839873Y-83177275D01*
X117880740Y-83120604D01*
X117937412Y-83096056D01*
X117996134Y-83086755D01*
X118198217Y-83021095D01*
X118387554Y-82924622D01*
X118441716Y-82885270D01*
X118441717Y-82885270D01*
X117809408Y-82252962D01*
X117872993Y-82235925D01*
X117987007Y-82170099D01*
X118080099Y-82077007D01*
X118145925Y-81962993D01*
X118162962Y-81899408D01*
X118743181Y-82479627D01*
G37*
%TD.AperFunction*%
%TA.AperFunction,Conductor*%
G36*
X99404075Y-81962993D02*
G01*
X99469901Y-82077007D01*
X99562993Y-82170099D01*
X99677007Y-82235925D01*
X99740590Y-82252962D01*
X99108282Y-82885269D01*
X99108282Y-82885270D01*
X99162449Y-82924624D01*
X99351782Y-83021095D01*
X99553865Y-83086755D01*
X99612587Y-83096056D01*
X99675722Y-83125985D01*
X99712654Y-83185297D01*
X99711656Y-83255159D01*
X99673047Y-83313392D01*
X99617384Y-83340147D01*
X99578167Y-83347948D01*
X99578160Y-83347950D01*
X99396092Y-83423364D01*
X99396079Y-83423371D01*
X99232218Y-83532860D01*
X99232214Y-83532863D01*
X99092863Y-83672214D01*
X99092860Y-83672218D01*
X99007602Y-83799816D01*
X98953990Y-83844621D01*
X98884665Y-83853328D01*
X98821637Y-83823173D01*
X98784918Y-83763730D01*
X98780500Y-83730925D01*
X98780500Y-82557308D01*
X98800185Y-82490269D01*
X98816819Y-82469627D01*
X99387037Y-81899408D01*
X99404075Y-81962993D01*
G37*
%TD.AperFunction*%
%TA.AperFunction,Conductor*%
G36*
X98985703Y-79715361D02*
G01*
X99007602Y-79740183D01*
X99092860Y-79867782D01*
X99232214Y-80007136D01*
X99232218Y-80007139D01*
X99396079Y-80116628D01*
X99396092Y-80116635D01*
X99578160Y-80192049D01*
X99578165Y-80192051D01*
X99598491Y-80196094D01*
X99617381Y-80199852D01*
X99679292Y-80232237D01*
X99713866Y-80292952D01*
X99710127Y-80362722D01*
X99669261Y-80419394D01*
X99612589Y-80443942D01*
X99553870Y-80453242D01*
X99553869Y-80453242D01*
X99351782Y-80518904D01*
X99162439Y-80615380D01*
X99108282Y-80654727D01*
X99108282Y-80654728D01*
X99740591Y-81287037D01*
X99677007Y-81304075D01*
X99562993Y-81369901D01*
X99469901Y-81462993D01*
X99404075Y-81577007D01*
X99387037Y-81640591D01*
X98816819Y-81070373D01*
X98783334Y-81009050D01*
X98780500Y-80982692D01*
X98780500Y-79809074D01*
X98800185Y-79742035D01*
X98852989Y-79696280D01*
X98922147Y-79686336D01*
X98985703Y-79715361D01*
G37*
%TD.AperFunction*%
%TA.AperFunction,Conductor*%
G36*
X118738362Y-79701859D02*
G01*
X118775082Y-79761302D01*
X118779500Y-79794108D01*
X118779500Y-80972692D01*
X118759815Y-81039731D01*
X118743181Y-81060373D01*
X118162962Y-81640591D01*
X118145925Y-81577007D01*
X118080099Y-81462993D01*
X117987007Y-81369901D01*
X117872993Y-81304075D01*
X117809409Y-81287037D01*
X118441716Y-80654728D01*
X118387550Y-80615375D01*
X118198217Y-80518904D01*
X117996128Y-80453242D01*
X117937411Y-80443942D01*
X117874276Y-80414012D01*
X117837345Y-80354701D01*
X117838343Y-80284838D01*
X117876953Y-80226606D01*
X117932615Y-80199852D01*
X117971835Y-80192051D01*
X118153914Y-80116632D01*
X118317782Y-80007139D01*
X118457139Y-79867782D01*
X118528287Y-79761302D01*
X118552398Y-79725217D01*
X118606010Y-79680412D01*
X118675335Y-79671705D01*
X118738362Y-79701859D01*
G37*
%TD.AperFunction*%
%TA.AperFunction,Conductor*%
G36*
X101002633Y-44449080D02*
G01*
X101006146Y-44449818D01*
X101055904Y-44498868D01*
X101071500Y-44559073D01*
X101071500Y-45872856D01*
X101051815Y-45939895D01*
X100999011Y-45985650D01*
X100929853Y-45995594D01*
X100866297Y-45966569D01*
X100832939Y-45920308D01*
X100756635Y-45736092D01*
X100756628Y-45736079D01*
X100647139Y-45572218D01*
X100647136Y-45572214D01*
X100507785Y-45432863D01*
X100507781Y-45432860D01*
X100343920Y-45323371D01*
X100343907Y-45323364D01*
X100161839Y-45247950D01*
X100161830Y-45247947D01*
X100122616Y-45240147D01*
X100060705Y-45207761D01*
X100026132Y-45147045D01*
X100029873Y-45077275D01*
X100070740Y-45020604D01*
X100127412Y-44996056D01*
X100186134Y-44986755D01*
X100388217Y-44921095D01*
X100577554Y-44824622D01*
X100631716Y-44785270D01*
X100631717Y-44785270D01*
X99999408Y-44152962D01*
X100062993Y-44135925D01*
X100177007Y-44070099D01*
X100270099Y-43977007D01*
X100335925Y-43862993D01*
X100352962Y-43799408D01*
X101002633Y-44449080D01*
G37*
%TD.AperFunction*%
%TA.AperFunction,Conductor*%
G36*
X118743181Y-44379627D02*
G01*
X118776666Y-44440950D01*
X118779500Y-44467308D01*
X118779500Y-45645891D01*
X118759815Y-45712930D01*
X118707011Y-45758685D01*
X118637853Y-45768629D01*
X118574297Y-45739604D01*
X118552398Y-45714782D01*
X118457139Y-45572218D01*
X118457136Y-45572214D01*
X118317785Y-45432863D01*
X118317781Y-45432860D01*
X118153920Y-45323371D01*
X118153907Y-45323364D01*
X117971839Y-45247950D01*
X117971830Y-45247947D01*
X117932616Y-45240147D01*
X117870705Y-45207761D01*
X117836132Y-45147045D01*
X117839873Y-45077275D01*
X117880740Y-45020604D01*
X117937412Y-44996056D01*
X117996134Y-44986755D01*
X118198217Y-44921095D01*
X118387554Y-44824622D01*
X118441716Y-44785270D01*
X118441717Y-44785270D01*
X117809408Y-44152962D01*
X117872993Y-44135925D01*
X117987007Y-44070099D01*
X118080099Y-43977007D01*
X118145925Y-43862993D01*
X118162962Y-43799408D01*
X118743181Y-44379627D01*
G37*
%TD.AperFunction*%
%TA.AperFunction,Conductor*%
G36*
X99404075Y-43862993D02*
G01*
X99469901Y-43977007D01*
X99562993Y-44070099D01*
X99677007Y-44135925D01*
X99740590Y-44152962D01*
X99108282Y-44785269D01*
X99108282Y-44785270D01*
X99162449Y-44824624D01*
X99351782Y-44921095D01*
X99553865Y-44986755D01*
X99612587Y-44996056D01*
X99675722Y-45025985D01*
X99712654Y-45085297D01*
X99711656Y-45155159D01*
X99673047Y-45213392D01*
X99617384Y-45240147D01*
X99578167Y-45247948D01*
X99578160Y-45247950D01*
X99396092Y-45323364D01*
X99396079Y-45323371D01*
X99232218Y-45432860D01*
X99232214Y-45432863D01*
X99092863Y-45572214D01*
X99092860Y-45572218D01*
X99007602Y-45699816D01*
X98953990Y-45744621D01*
X98884665Y-45753328D01*
X98821637Y-45723173D01*
X98784918Y-45663730D01*
X98780500Y-45630925D01*
X98780500Y-44457308D01*
X98800185Y-44390269D01*
X98816819Y-44369627D01*
X99387037Y-43799408D01*
X99404075Y-43862993D01*
G37*
%TD.AperFunction*%
%TA.AperFunction,Conductor*%
G36*
X98985703Y-41615361D02*
G01*
X99007602Y-41640183D01*
X99092860Y-41767782D01*
X99232214Y-41907136D01*
X99232218Y-41907139D01*
X99396079Y-42016628D01*
X99396092Y-42016635D01*
X99578160Y-42092049D01*
X99578165Y-42092051D01*
X99598491Y-42096094D01*
X99617381Y-42099852D01*
X99679292Y-42132237D01*
X99713866Y-42192952D01*
X99710127Y-42262722D01*
X99669261Y-42319394D01*
X99612589Y-42343942D01*
X99553870Y-42353242D01*
X99553869Y-42353242D01*
X99351782Y-42418904D01*
X99162439Y-42515380D01*
X99108282Y-42554727D01*
X99108282Y-42554728D01*
X99740591Y-43187037D01*
X99677007Y-43204075D01*
X99562993Y-43269901D01*
X99469901Y-43362993D01*
X99404075Y-43477007D01*
X99387037Y-43540591D01*
X98816819Y-42970373D01*
X98783334Y-42909050D01*
X98780500Y-42882692D01*
X98780500Y-41709074D01*
X98800185Y-41642035D01*
X98852989Y-41596280D01*
X98922147Y-41586336D01*
X98985703Y-41615361D01*
G37*
%TD.AperFunction*%
%TA.AperFunction,Conductor*%
G36*
X118738362Y-41601859D02*
G01*
X118775082Y-41661302D01*
X118779500Y-41694108D01*
X118779500Y-42872692D01*
X118759815Y-42939731D01*
X118743181Y-42960373D01*
X118162962Y-43540591D01*
X118145925Y-43477007D01*
X118080099Y-43362993D01*
X117987007Y-43269901D01*
X117872993Y-43204075D01*
X117809409Y-43187037D01*
X118441716Y-42554728D01*
X118387550Y-42515375D01*
X118198217Y-42418904D01*
X117996128Y-42353242D01*
X117937411Y-42343942D01*
X117874276Y-42314012D01*
X117837345Y-42254701D01*
X117838343Y-42184838D01*
X117876953Y-42126606D01*
X117932615Y-42099852D01*
X117971835Y-42092051D01*
X118153914Y-42016632D01*
X118317782Y-41907139D01*
X118457139Y-41767782D01*
X118506366Y-41694108D01*
X118552398Y-41625217D01*
X118606010Y-41580412D01*
X118675335Y-41571705D01*
X118738362Y-41601859D01*
G37*
%TD.AperFunction*%
%TD*%
M02*
