M48
; DRILL file KiCad 9.99.0-4247-g42f93c0d15 date 2026-05-03T12:37:54-0400
; FORMAT={-:-/ absolute / metric / decimal}
; #@! TF.CreationDate,2026-05-03T12:37:54-04:00
; #@! TF.GenerationSoftware,Kicad,Pcbnew,9.99.0-4247-g42f93c0d15
; #@! TF.FileFunction,Plated,1,2,PTH
FMAT,2
METRIC
; #@! TA.AperFunction,Plated,PTH,ViaDrill
T1C0.300
; #@! TA.AperFunction,Plated,PTH,ComponentDrill
T2C0.600
; #@! TA.AperFunction,Plated,PTH,ComponentDrill
T3C1.000
%
G90
G05
T1
X102.081Y-68.409
X102.223Y-54.4
X102.223Y-57.635
X102.223Y-58.385
X102.362Y-59.122
X102.7Y-55.27
X102.925Y-62.26
X103.17Y-57.025
X103.627Y-64.841
X104.177Y-64.255
X104.27Y-58.925
X104.727Y-62.377
X104.845Y-60.873
X105.35Y-80.65
X105.586Y-47.114
X106.468Y-64.227
X107.01Y-59.11
X107.17Y-74.13
X107.78Y-69.421
X107.99Y-47.71
X108.56Y-59.41
X108.78Y-66.73
X108.78Y-68.83
X108.83Y-72.81
X108.89Y-77.83
X108.939Y-79.261
X109.019Y-47.961
X109.18Y-62.928
X110.18Y-64.23
X110.479Y-69.346
X111.107Y-64.117
X111.281Y-67.82
X111.333Y-67.034
X111.68Y-60.43
X112.28Y-61.19
X113.65Y-63.44
T3
X99.87Y-38.59
X99.87Y-41.13
X99.87Y-43.67
X99.87Y-46.21
X99.87Y-48.75
X99.87Y-51.29
X99.87Y-53.83
X99.87Y-56.37
X99.87Y-58.91
X99.87Y-61.45
X99.87Y-63.99
X99.87Y-66.53
X99.87Y-69.07
X99.87Y-71.61
X99.87Y-74.15
X99.87Y-76.69
X99.87Y-79.23
X99.87Y-81.77
X99.87Y-84.31
X99.87Y-86.85
X106.23Y-86.63
X108.77Y-86.63
X111.31Y-86.63
X117.68Y-38.59
X117.68Y-41.13
X117.68Y-43.67
X117.68Y-46.21
X117.68Y-48.75
X117.68Y-51.29
X117.68Y-53.83
X117.68Y-56.37
X117.68Y-58.91
X117.68Y-61.45
X117.68Y-63.99
X117.68Y-66.53
X117.68Y-69.07
X117.68Y-71.61
X117.68Y-74.15
X117.68Y-76.69
X117.68Y-79.23
X117.68Y-81.77
X117.68Y-84.31
X117.68Y-86.85
T2
G00X104.45Y-38.97
M15
G01X104.45Y-38.37
M16
G05
G00X104.45Y-43.4
M15
G01X104.45Y-42.3
M16
G05
G00X113.09Y-38.97
M15
G01X113.09Y-38.37
M16
G05
G00X113.09Y-43.4
M15
G01X113.09Y-42.3
M16
G05
M30
